<svg width="1038" height="564" viewBox="0 0 1038 564" fill="none" xmlns="http://www.w3.org/2000/svg">
<g clip-path="url(#clip0_8_436)">
<path opacity="0.24" d="M997.354 488.442C994.195 491.712 990.942 494.849 987.481 497.892C983.627 501.251 979.599 504.405 975.414 507.341C938.077 534.442 891.454 547.029 845.683 554.154C774.509 565.153 702.144 564.435 630.195 563.735C463.071 562.072 295.941 560.182 128.804 558.066C85.5102 557.404 34.2343 552.245 12.086 515.694C11.6137 514.986 11.1781 514.255 10.781 513.502C-32.5321 435.676 65.5937 367.603 106.316 319.675C132.795 288.662 134.27 244.457 142.252 204.543C153.374 149.282 180.421 95.9308 224.433 60.6466C268.446 25.3623 330.352 10.6212 383.311 30.1059C420.174 43.6565 451.401 72.534 490.345 78.1659C513.761 81.5677 537.366 76.0303 560.686 71.8725C663.787 53.3327 783.058 66.2029 851.716 145.238C876.985 174.305 893.459 210.118 919.145 238.693C949.123 271.974 991.623 295.976 1016.89 331.298C1023.23 339.953 1028.32 349.45 1032.02 359.514C1048.01 403.718 1030.23 454.33 997.354 488.442Z" fill="#A1CFF1"/>
<path d="M705.435 238.655L476.084 76.9563L665.262 0L753.988 205.752L705.435 238.655Z" fill="url(#paint0_linear_8_436)"/>
<path d="M721.607 381.04L455.468 462.04L420.836 332.318L709.899 313.363L721.607 381.04Z" fill="url(#paint1_linear_8_436)"/>
<path d="M997.354 488.442L885.629 387.711L887.35 328.954L1016.91 331.279C1023.24 339.934 1028.34 349.431 1032.04 359.495C1048.01 403.718 1030.23 454.33 997.354 488.442Z" fill="url(#paint2_linear_8_436)"/>
<path opacity="0.43" d="M975.414 507.266C938.077 534.367 891.454 546.953 845.683 554.078C774.509 565.077 702.144 564.359 630.195 563.66C463.071 561.997 295.941 560.107 128.804 557.99C85.5102 557.329 34.2343 552.169 12.086 515.619H12.5022C34.3856 512.482 56.3826 510.875 78.3796 509.382C364.593 489.548 651.717 486.317 938.304 499.706C950.996 500.197 964.708 501.388 975.414 507.266Z" fill="#3080E3"/>
<path opacity="0.45" d="M67.088 523.783C69.1685 530.776 78.0581 532.647 85.34 533.233C130.053 536.823 174.866 538.461 219.781 538.146C231.545 538.052 243.574 537.787 254.545 533.573C261.921 530.738 268.579 526.202 276.125 523.878C283.672 521.553 292.127 521.572 300.222 521.685L517.733 524.482C523.37 524.323 529.005 524.863 534.509 526.089C541.602 527.979 547.882 532.042 554.596 534.971C571.751 542.531 591.214 542.342 609.882 540.981C640.44 538.796 670.723 533.733 700.328 525.862C678.414 522.154 656.316 519.63 634.13 518.302C507.879 509.004 381.155 508.853 254.563 508.664C220.518 508.664 186.284 508.664 152.428 512.916C123.357 516.488 95.44 513.616 67.088 523.783Z" fill="#3080E3"/>
<path d="M326.456 357.246L317.131 379.32H325.037L334.362 357.851L326.456 357.246Z" fill="#3080E3"/>
<path d="M461.464 356.925L452.139 379.018H460.045L469.37 357.548L461.464 356.925Z" fill="#3080E3"/>
<path d="M559.911 357.322C551.681 365.648 542.596 373.085 532.807 379.509C529.024 381.966 524.92 384.687 523.804 388.958C523.282 392.03 523.684 395.187 524.958 398.03C531.01 414.812 542.491 429.043 550.719 444.88C550.99 445.295 551.122 445.784 551.097 446.279C550.92 446.841 550.534 447.315 550.019 447.602L544.591 451.608C530.727 441.119 520.002 427.134 509.732 413.054C502.696 403.34 495.566 392.757 494.998 380.775C494.687 377.676 495.148 374.548 496.339 371.669C497.531 368.791 499.415 366.251 501.826 364.276C505.104 361.311 508.971 359.069 513.174 357.7C519.7 355.583 526.717 355.658 533.583 355.81C541.148 355.923 549.527 356.433 554.596 361.99" fill="#606161"/>
<path d="M559.911 357.322C551.681 365.648 542.596 373.085 532.807 379.509C529.024 381.966 524.92 384.687 523.804 388.958C523.282 392.03 523.684 395.187 524.958 398.03C531.01 414.812 542.491 429.043 550.719 444.88C550.99 445.295 551.122 445.784 551.097 446.279C550.92 446.841 550.534 447.315 550.019 447.602L544.591 451.608C530.727 441.119 520.002 427.134 509.732 413.054C502.696 403.34 495.566 392.757 494.998 380.775C494.687 377.676 495.148 374.548 496.339 371.669C497.531 368.791 499.415 366.251 501.826 364.276C505.104 361.311 508.971 359.069 513.174 357.7C519.7 355.583 526.717 355.658 533.583 355.81C541.148 355.923 549.527 356.433 554.596 361.99" fill="url(#paint3_linear_8_436)"/>
<path d="M545.574 458.714C545.828 459.791 545.885 460.905 545.744 462.003C545.468 463.141 544.995 464.222 544.345 465.197C542.697 468.064 541.268 471.053 540.07 474.136C539.676 474.886 539.582 475.757 539.805 476.574C540.335 477.859 542.113 477.972 543.494 477.745C547.542 477.096 551.347 475.388 554.52 472.794C555.143 472.349 555.654 471.767 556.015 471.093C556.297 470.417 556.439 469.69 556.431 468.957C556.638 462.676 554.63 456.522 550.757 451.57C550.395 451.024 549.892 450.586 549.3 450.304C547.768 449.699 545.517 451.268 544.931 452.704C544.345 454.141 545.272 456.994 545.574 458.714Z" fill="#606161"/>
<path d="M547.447 483.906C547.447 483.906 533.866 467.275 532.542 467.427C531.218 467.578 529.497 469.978 529.497 469.978L544.95 484.511L547.447 483.906Z" fill="#606161"/>
<path d="M543.513 480.845L546.104 488.593L560.838 481.752L558.719 474.759L543.513 480.845Z" fill="#3080E3"/>
<path d="M543.513 480.845L546.104 488.593L560.838 481.752L558.719 474.759L543.513 480.845Z" fill="url(#paint4_linear_8_436)"/>
<path d="M404.741 481.487C404.741 481.487 391.16 464.856 389.836 465.008C388.512 465.159 386.791 467.54 386.791 467.54L402.225 482.073L404.741 481.487Z" fill="#606161"/>
<path d="M400.806 478.407L403.398 486.155L418.132 479.333L416.013 472.34L400.806 478.407Z" fill="#3080E3"/>
<path d="M400.806 478.407L403.398 486.155L418.132 479.333L416.013 472.34L400.806 478.407Z" fill="url(#paint5_linear_8_436)"/>
<path d="M281.592 482.999C281.592 482.999 268.011 466.368 266.687 466.519C265.363 466.671 263.642 469.071 263.642 469.071L279.076 483.604L281.592 482.999Z" fill="#606161"/>
<path d="M423.068 357.322C414.846 365.657 405.761 373.094 395.964 379.509C392.182 381.966 388.077 384.687 386.961 388.958C386.436 392.031 386.844 395.191 388.134 398.03C394.187 414.812 405.667 429.043 413.895 444.88C414.169 445.292 414.296 445.785 414.254 446.279C414.079 446.836 413.701 447.308 413.195 447.602L407.767 451.608C393.884 441.119 383.179 427.134 372.908 413.054C365.853 403.34 358.742 392.757 358.155 380.775C357.847 377.674 358.311 374.545 359.505 371.667C360.7 368.788 362.588 366.249 365.002 364.276C368.274 361.303 372.143 359.061 376.351 357.7C382.876 355.583 389.874 355.658 396.74 355.81C404.306 355.923 412.703 356.433 417.753 361.99" fill="#606161"/>
<path d="M423.068 357.322C414.846 365.657 405.761 373.094 395.964 379.509C392.182 381.966 388.077 384.687 386.961 388.958C386.436 392.031 386.844 395.191 388.134 398.03C394.187 414.812 405.667 429.043 413.895 444.88C414.169 445.292 414.296 445.785 414.254 446.279C414.079 446.836 413.701 447.308 413.195 447.602L407.767 451.608C393.884 441.119 383.179 427.134 372.908 413.054C365.853 403.34 358.742 392.757 358.155 380.775C357.847 377.674 358.311 374.545 359.505 371.667C360.7 368.788 362.588 366.249 365.002 364.276C368.274 361.303 372.143 359.061 376.351 357.7C382.876 355.583 389.874 355.658 396.74 355.81C404.306 355.923 412.703 356.433 417.753 361.99" fill="url(#paint6_linear_8_436)"/>
<path d="M409.356 456.692C409.609 457.769 409.667 458.883 409.526 459.98C409.24 461.088 408.773 462.142 408.145 463.099C406.493 465.965 405.064 468.953 403.871 472.038C403.473 472.779 403.372 473.644 403.587 474.457C404.135 475.761 405.913 475.874 407.37 475.648C411.418 474.999 415.223 473.29 418.397 470.696C419.019 470.251 419.53 469.669 419.891 468.995C420.174 468.32 420.31 467.592 420.288 466.86C420.497 460.578 418.488 454.423 414.614 449.473C414.243 448.922 413.734 448.479 413.138 448.187C411.606 447.583 409.356 449.17 408.788 450.607C408.221 452.043 409.053 454.972 409.356 456.692Z" fill="#606161"/>
<path d="M296.042 368.359L292.467 378.526C292.467 378.526 295.134 380.813 296.723 379.906C298.312 378.999 302.397 368.566 302.397 368.566L296.042 368.359Z" fill="#3080E3"/>
<path d="M287.512 361.801C285.999 362.424 284.315 363.331 284.013 364.938C283.944 365.631 284.068 366.33 284.372 366.957C284.676 367.584 285.147 368.115 285.734 368.491C288.495 370.607 292.316 370.381 295.796 370.135C298.463 369.984 301.13 369.984 303.797 370.135C305.778 370.324 307.773 370.324 309.754 370.135C311.745 369.913 313.594 368.996 314.975 367.546C315.833 366.494 316.344 365.203 316.439 363.85C316.534 362.497 316.207 361.147 315.504 359.986C313.726 357.151 310 356.377 306.88 356.774C302.652 357.32 298.482 358.237 294.415 359.514C292.089 360.043 289.781 360.875 287.512 361.801Z" fill="#606161"/>
<path d="M287.512 361.801C285.999 362.424 284.315 363.331 284.013 364.938C283.944 365.631 284.068 366.33 284.372 366.957C284.676 367.584 285.147 368.115 285.734 368.491C288.495 370.607 292.316 370.381 295.796 370.135C298.463 369.984 301.13 369.984 303.797 370.135C305.778 370.324 307.773 370.324 309.754 370.135C311.745 369.913 313.594 368.996 314.975 367.546C315.833 366.494 316.344 365.203 316.439 363.85C316.534 362.497 316.207 361.147 315.504 359.986C313.726 357.151 310 356.377 306.88 356.774C302.652 357.32 298.482 358.237 294.415 359.514C292.089 360.043 289.781 360.875 287.512 361.801Z" fill="url(#paint7_linear_8_436)"/>
<path d="M411.587 368.359L408.013 378.526C408.013 378.526 410.68 380.813 412.287 379.906C413.895 378.999 417.961 368.566 417.961 368.566L411.587 368.359Z" fill="#3080E3"/>
<path d="M403.057 361.801C401.544 362.424 399.861 363.331 399.558 364.938C399.489 365.631 399.614 366.33 399.918 366.957C400.221 367.584 400.693 368.115 401.279 368.491C404.041 370.607 407.861 370.381 411.342 370.135C414.008 369.984 416.675 369.984 419.342 370.135C421.324 370.324 423.319 370.324 425.3 370.135C427.291 369.913 429.139 368.996 430.52 367.546C431.378 366.494 431.889 365.203 431.984 363.85C432.079 362.497 431.753 361.147 431.05 359.986C429.272 357.151 425.546 356.377 422.444 356.774C418.247 357.274 414.101 358.14 410.055 359.363C407.634 360.043 405.327 360.875 403.057 361.801Z" fill="#606161"/>
<path d="M403.057 361.801C401.544 362.424 399.861 363.331 399.558 364.938C399.489 365.631 399.614 366.33 399.918 366.957C400.221 367.584 400.693 368.115 401.279 368.491C404.041 370.607 407.861 370.381 411.342 370.135C414.008 369.984 416.675 369.984 419.342 370.135C421.324 370.324 423.319 370.324 425.3 370.135C427.291 369.913 429.139 368.996 430.52 367.546C431.378 366.494 431.889 365.203 431.984 363.85C432.079 362.497 431.753 361.147 431.05 359.986C429.272 357.151 425.546 356.377 422.444 356.774C418.247 357.274 414.101 358.14 410.055 359.363C407.634 360.043 405.327 360.875 403.057 361.801Z" fill="url(#paint8_linear_8_436)"/>
<path d="M553.896 368.359L550.322 378.526C550.322 378.526 552.988 380.813 554.577 379.906C556.166 378.999 560.251 368.566 560.251 368.566L553.896 368.359Z" fill="#3080E3"/>
<path d="M545.366 361.801C543.853 362.424 542.17 363.331 541.867 364.938C541.796 365.629 541.918 366.327 542.218 366.953C542.519 367.58 542.986 368.112 543.569 368.491C546.35 370.607 550.17 370.381 553.65 370.135C556.317 369.984 558.984 369.984 561.651 370.135C563.632 370.324 565.627 370.324 567.609 370.135C569.6 369.913 571.448 368.996 572.829 367.546C573.687 366.494 574.198 365.203 574.293 363.85C574.388 362.497 574.062 361.147 573.359 359.986C571.581 357.151 567.855 356.377 564.734 356.774C560.507 357.32 556.336 358.237 552.27 359.514C550.019 360.043 547.636 360.875 545.366 361.801Z" fill="#606161"/>
<path d="M545.366 361.801C543.853 362.424 542.17 363.331 541.867 364.938C541.796 365.629 541.918 366.327 542.218 366.953C542.519 367.58 542.986 368.112 543.569 368.491C546.35 370.607 550.17 370.381 553.65 370.135C556.317 369.984 558.984 369.984 561.651 370.135C563.632 370.324 565.627 370.324 567.609 370.135C569.6 369.913 571.448 368.996 572.829 367.546C573.687 366.494 574.198 365.203 574.293 363.85C574.388 362.497 574.062 361.147 573.359 359.986C571.581 357.151 567.855 356.377 564.734 356.774C560.507 357.32 556.336 358.237 552.27 359.514C550.019 360.043 547.636 360.875 545.366 361.801Z" fill="url(#paint9_linear_8_436)"/>
<path d="M160.845 524.709C148.602 524.698 136.639 521.06 126.465 514.256C116.292 507.451 108.366 497.786 103.69 486.481C99.0138 475.176 97.7971 462.74 100.194 450.744C102.59 438.748 108.493 427.732 117.154 419.087C125.816 410.443 136.848 404.559 148.857 402.179C160.865 399.799 173.31 401.03 184.618 405.716C195.926 410.403 205.59 418.334 212.387 428.507C219.185 438.681 222.811 450.64 222.807 462.872C222.787 479.279 216.25 495.007 204.632 506.602C193.014 518.197 177.265 524.709 160.845 524.709ZM160.845 409.653C150.31 409.649 140.01 412.767 131.249 418.613C122.487 424.458 115.658 432.768 111.624 442.493C107.589 452.217 106.532 462.918 108.585 473.243C110.638 483.568 115.709 493.052 123.157 500.497C130.605 507.942 140.096 513.012 150.428 515.067C160.76 517.122 171.47 516.069 181.204 512.042C190.937 508.015 199.257 501.193 205.11 492.441C210.963 483.689 214.088 473.399 214.088 462.872C214.068 448.767 208.452 435.245 198.472 425.269C188.492 415.293 174.961 409.678 160.845 409.653Z" fill="#606161"/>
<path d="M609.636 524.709C597.391 524.709 585.422 521.081 575.241 514.283C565.06 507.486 557.126 497.824 552.441 486.52C547.756 475.216 546.531 462.778 548.921 450.779C551.311 438.779 557.209 427.757 565.869 419.108C574.528 410.458 585.561 404.568 597.57 402.183C609.58 399.799 622.028 401.026 633.339 405.711C644.651 410.396 654.318 418.327 661.118 428.501C667.918 438.676 671.545 450.637 671.541 462.872C671.521 479.269 664.992 494.989 653.386 506.582C641.781 518.175 626.046 524.694 609.636 524.709ZM609.636 409.653C599.102 409.653 588.804 412.774 580.045 418.622C571.286 424.47 564.46 432.781 560.428 442.506C556.397 452.23 555.342 462.931 557.397 473.255C559.453 483.578 564.525 493.061 571.974 500.504C579.423 507.947 588.913 513.015 599.245 515.069C609.577 517.122 620.286 516.068 630.018 512.04C639.751 508.012 648.069 501.191 653.921 492.439C659.774 483.687 662.898 473.398 662.898 462.872C662.883 448.762 657.266 435.234 647.281 425.257C637.296 415.28 623.757 409.668 609.636 409.653Z" fill="#606161"/>
<path d="M160.845 524.709C148.602 524.698 136.639 521.06 126.465 514.256C116.292 507.451 108.366 497.786 103.69 486.481C99.0138 475.176 97.7971 462.74 100.194 450.744C102.59 438.748 108.493 427.732 117.154 419.087C125.816 410.443 136.848 404.559 148.857 402.179C160.865 399.799 173.31 401.03 184.618 405.716C195.926 410.403 205.59 418.334 212.387 428.507C219.185 438.681 222.811 450.64 222.807 462.872C222.787 479.279 216.25 495.007 204.632 506.602C193.014 518.197 177.265 524.709 160.845 524.709ZM160.845 409.653C150.31 409.649 140.01 412.767 131.249 418.613C122.487 424.458 115.658 432.768 111.624 442.493C107.589 452.217 106.532 462.918 108.585 473.243C110.638 483.568 115.709 493.052 123.157 500.497C130.605 507.942 140.096 513.012 150.428 515.067C160.76 517.122 171.47 516.069 181.204 512.042C190.937 508.015 199.257 501.193 205.11 492.441C210.963 483.689 214.088 473.399 214.088 462.872C214.068 448.767 208.452 435.245 198.472 425.269C188.492 415.293 174.961 409.678 160.845 409.653Z" fill="url(#paint10_linear_8_436)"/>
<path d="M609.636 524.709C597.391 524.709 585.422 521.081 575.241 514.283C565.06 507.486 557.126 497.824 552.441 486.52C547.756 475.216 546.531 462.778 548.921 450.779C551.311 438.779 557.209 427.757 565.869 419.108C574.528 410.458 585.561 404.568 597.57 402.183C609.58 399.799 622.028 401.026 633.339 405.711C644.651 410.396 654.318 418.327 661.118 428.501C667.918 438.676 671.545 450.637 671.541 462.872C671.521 479.269 664.992 494.989 653.386 506.582C641.781 518.175 626.046 524.694 609.636 524.709ZM609.636 409.653C599.102 409.653 588.804 412.774 580.045 418.622C571.286 424.47 564.46 432.781 560.428 442.506C556.397 452.23 555.342 462.931 557.397 473.255C559.453 483.578 564.525 493.061 571.974 500.504C579.423 507.947 588.913 513.015 599.245 515.069C609.577 517.122 620.286 516.068 630.018 512.04C639.751 508.012 648.069 501.191 653.921 492.439C659.774 483.687 662.898 473.398 662.898 462.872C662.883 448.762 657.266 435.234 647.281 425.257C637.296 415.28 623.757 409.668 609.636 409.653Z" fill="url(#paint11_linear_8_436)"/>
<path d="M231.432 298.886C224.244 306.087 213.747 308.525 204.498 312.758C200.886 314.421 197.159 316.67 195.665 320.318C195.022 322.135 194.746 324.062 194.852 325.987C194.719 326.475 194.71 326.989 194.828 327.482C194.945 327.974 195.184 328.429 195.522 328.805C195.861 329.181 196.289 329.466 196.767 329.634C197.244 329.802 197.757 329.848 198.256 329.767C208.258 329.896 218.219 328.468 227.781 325.534C238.279 322.321 248.587 316.954 254.904 307.958C256.286 306.091 257.306 303.982 257.911 301.74C258.356 299.418 258.47 297.045 258.252 294.691C258.227 290.01 257.694 285.347 256.663 280.781C255.755 277.398 253.845 271.955 250.648 270.028C247.452 268.1 244.804 275.244 243.593 277.587C239.981 285.014 237.276 293.028 231.432 298.886Z" fill="#3080E3"/>
<path d="M267.482 249.957C267.482 249.957 267.652 257.195 267.482 262.487C267.482 266.437 266.063 274.015 257.646 274.015C249.23 274.015 248.189 264.358 248.397 262.487C248.174 259.688 248.174 256.876 248.397 254.077C249.041 249.466 267.028 246.744 267.482 249.957Z" fill="#F0CAC5"/>
<path d="M267.614 261.825C268.217 261.577 268.892 261.564 269.504 261.788C270.117 262.012 270.623 262.457 270.924 263.035C272.191 265.152 272.267 269.385 270.924 275.168C270.528 277.713 269.689 280.169 268.446 282.425C268.446 282.425 262.942 274.639 258.989 274.318C259.065 274.318 266.706 272.825 267.614 261.825Z" fill="#F1FCFF"/>
<path d="M242.061 224.425C242.061 224.425 244.161 230.869 242.213 233.874C234.987 245.213 239.111 244.042 241.796 244.287C242.137 244.287 241.664 246.48 242.629 250.637C243.404 253.926 241.097 261.391 251.216 258.197C254.11 257.309 268.144 253.359 269.146 244.665C270.394 233.798 277.071 220.097 263.907 215.448C248.133 210.061 242.988 214.332 242.061 224.425Z" fill="#F0CAC5"/>
<path d="M249.286 209.324C249.286 209.324 242.061 209.835 239.584 212.575C236.538 215.958 235.99 219.7 239.186 222.724C242.383 225.747 250.762 222.875 256.606 226.503C262.451 230.132 256.228 239.392 259.141 241.377C262.053 243.361 260.313 237.389 264.172 235.877C268.03 234.365 269.6 240.848 265.552 245.629C261.505 250.411 265.307 253.472 267.936 254.266C270.565 255.06 276.939 233.477 276.409 225.577C275.88 217.678 271.983 217.81 271.983 217.81C271.983 217.81 271.813 205.469 249.286 209.324Z" fill="#606161"/>
<path d="M248.284 258.991C248.284 258.991 258.554 255.211 263.188 253.075C263.188 253.075 253.542 262.241 248.549 262.184L248.284 258.991Z" fill="#E3B3AF"/>
<path d="M241.948 244.968C241.948 244.968 249.513 245.516 253.883 242.775C258.252 240.035 260.37 238.315 260.881 241.093C261.391 243.871 263.358 248.54 261.391 251.847C259.424 255.154 248.984 262.846 246.26 260.843C243.537 258.839 241.721 256.42 242.194 253.623C242.418 250.738 242.336 247.836 241.948 244.968Z" fill="#606161"/>
<path d="M243.329 248.558C243.329 248.558 244.785 250.297 248.284 248.558C251.783 246.82 252.294 244.117 253.958 246.82C255.623 249.522 251.821 254.871 247.357 255.022C242.894 255.173 243.612 252.111 243.329 248.558Z" fill="#F0CAC5"/>
<path d="M260.389 265.227C259.938 266.972 259.09 268.589 257.911 269.952C256.02 271.955 252.975 272.503 250.724 274.129C244.066 278.986 248.189 290.495 249.343 297.053C251.207 306.126 252.471 315.312 253.126 324.551C253.334 329.975 253.126 335.531 254.809 340.672C255.998 343.937 257.846 346.923 260.237 349.446C262.629 351.968 265.513 353.974 268.711 355.337C275.125 358.003 282.177 358.745 289.006 357.473C293.848 356.909 298.376 354.786 301.905 351.425C305.023 347.704 306.801 343.046 306.955 338.196C307.958 325.628 303.04 313.419 298.236 301.759C292.089 286.885 285.809 270.387 272.721 260.181C270.546 258.499 267.69 257.044 265.155 258.027C264.094 258.584 263.167 259.365 262.435 260.314C261.704 261.263 261.187 262.359 260.919 263.526C260.748 264.093 260.635 264.66 260.389 265.227Z" fill="#3080E3"/>
<path d="M260.389 265.227C259.938 266.972 259.09 268.589 257.911 269.952C256.02 271.955 252.975 272.503 250.724 274.129C244.066 278.986 248.189 290.495 249.343 297.053C251.207 306.126 252.471 315.312 253.126 324.551C253.334 329.975 253.126 335.531 254.809 340.672C255.998 343.937 257.846 346.923 260.237 349.446C262.629 351.968 265.513 353.974 268.711 355.337C275.125 358.003 282.177 358.745 289.006 357.473C293.848 356.909 298.376 354.786 301.905 351.425C305.023 347.704 306.801 343.046 306.955 338.196C307.958 325.628 303.04 313.419 298.236 301.759C292.089 286.885 285.809 270.387 272.721 260.181C270.546 258.499 267.69 257.044 265.155 258.027C264.094 258.584 263.167 259.365 262.435 260.314C261.704 261.263 261.187 262.359 260.919 263.526C260.748 264.093 260.635 264.66 260.389 265.227Z" fill="url(#paint12_linear_8_436)"/>
<path d="M295.928 360.194C287.702 368.524 278.617 375.961 268.825 382.382C265.042 384.838 260.937 387.541 259.822 391.831C259.295 394.904 259.703 398.064 260.994 400.902C267.047 417.704 278.527 431.934 286.755 447.772C287.029 448.184 287.156 448.677 287.114 449.17C286.939 449.728 286.561 450.2 286.055 450.493L280.627 454.5C266.744 444.011 256.039 430.026 245.768 415.946C238.714 406.232 231.602 395.649 231.016 383.648C230.707 380.547 231.171 377.418 232.365 374.539C233.56 371.661 235.448 369.122 237.862 367.149C241.14 364.188 245.008 361.953 249.211 360.591C255.736 358.474 262.734 358.55 269.6 358.701C277.166 358.815 285.563 359.306 290.614 364.881" fill="#606161"/>
<path d="M295.928 360.194C287.702 368.524 278.617 375.961 268.825 382.382C265.042 384.838 260.937 387.541 259.822 391.831C259.295 394.904 259.703 398.064 260.994 400.902C267.047 417.704 278.527 431.934 286.755 447.772C287.029 448.184 287.156 448.677 287.114 449.17C286.939 449.728 286.561 450.2 286.055 450.493L280.627 454.5C266.744 444.011 256.039 430.026 245.768 415.946C238.714 406.232 231.602 395.649 231.016 383.648C230.707 380.547 231.171 377.418 232.365 374.539C233.56 371.661 235.448 369.122 237.862 367.149C241.14 364.188 245.008 361.953 249.211 360.591C255.736 358.474 262.734 358.55 269.6 358.701C277.166 358.815 285.563 359.306 290.614 364.881" fill="url(#paint13_linear_8_436)"/>
<path d="M282.197 459.527C282.467 460.601 282.531 461.717 282.386 462.815C282.104 463.919 281.637 464.967 281.005 465.915C279.355 468.791 277.92 471.785 276.712 474.873C276.319 475.616 276.224 476.481 276.447 477.292C276.995 478.596 278.773 478.709 280.23 478.482C284.276 477.825 288.078 476.117 291.257 473.531C291.864 473.07 292.372 472.492 292.751 471.83C293.035 471.155 293.17 470.427 293.148 469.694C293.357 463.413 291.349 457.258 287.474 452.307C287.111 451.751 286.6 451.306 285.999 451.022C284.467 450.418 282.216 452.005 281.648 453.423C280.873 455.18 281.913 457.826 282.197 459.527Z" fill="#606161"/>
<path d="M187.929 331.676C187.39 333.411 187.21 335.238 187.402 337.045C187.594 338.852 188.153 340.6 189.045 342.184C189.508 343.033 190.154 343.769 190.937 344.338C192.681 345.244 194.684 345.524 196.611 345.132C197.035 345.145 197.447 344.996 197.765 344.716C197.927 344.517 198.026 344.273 198.048 344.017C198.427 341.995 197.386 339.859 197.916 337.875C198.597 335.361 201.51 333.963 202.285 331.487C203.325 328.066 199.467 323.436 195.949 323.493C192.431 323.549 188.894 328.595 187.929 331.676Z" fill="#F0CAC5"/>
<path d="M163.663 465.461C162.942 465.466 162.232 465.289 161.598 464.947C160.963 464.604 160.425 464.108 160.034 463.504C159.642 462.9 159.408 462.206 159.355 461.488C159.302 460.77 159.43 460.05 159.729 459.395L204.328 359.363C204.558 358.845 204.887 358.378 205.298 357.988C205.708 357.598 206.191 357.292 206.72 357.088C207.249 356.885 207.812 356.787 208.379 356.801C208.945 356.815 209.503 356.941 210.021 357.17C210.539 357.4 211.006 357.729 211.397 358.139C211.788 358.549 212.093 359.032 212.297 359.561C212.501 360.089 212.598 360.652 212.584 361.218C212.57 361.784 212.445 362.342 212.215 362.859L167.616 463.023C167.259 463.764 166.696 464.387 165.996 464.819C165.295 465.251 164.486 465.474 163.663 465.461Z" fill="#3080E3"/>
<path d="M257.949 470.545L193.85 390.716C193.135 389.824 192.804 388.684 192.93 387.548C193.056 386.413 193.628 385.373 194.521 384.659C195.414 383.945 196.554 383.614 197.691 383.74C198.828 383.866 199.868 384.438 200.583 385.33L255.887 454.179L290.689 377.524C291.163 376.482 292.032 375.67 293.105 375.268C294.178 374.866 295.367 374.906 296.411 375.38C297.454 375.853 298.266 376.722 298.669 377.794C299.072 378.866 299.031 380.054 298.557 381.096L257.949 470.545Z" fill="#3080E3"/>
<path d="M258.195 469.203C257.051 469.203 255.954 468.749 255.146 467.941C254.337 467.133 253.883 466.037 253.883 464.894C253.883 463.751 254.337 462.655 255.146 461.847C255.954 461.039 257.051 460.585 258.195 460.585L375.121 460.472L404.098 379.074C404.284 378.537 404.575 378.042 404.955 377.619C405.335 377.196 405.796 376.853 406.31 376.61C406.825 376.367 407.382 376.229 407.951 376.205C408.519 376.18 409.087 376.269 409.62 376.466C410.697 376.855 411.576 377.653 412.065 378.687C412.554 379.721 412.613 380.907 412.23 381.985L381.212 469.109L258.271 469.203H258.195Z" fill="#3080E3"/>
<path d="M379.055 469.203C377.912 469.203 376.815 468.749 376.006 467.941C375.197 467.133 374.743 466.037 374.743 464.894C374.743 463.751 375.197 462.655 376.006 461.847C376.815 461.039 377.912 460.585 379.055 460.585L521.062 460.472L550.019 379.074C550.205 378.539 550.496 378.047 550.875 377.625C551.253 377.204 551.712 376.861 552.224 376.619C552.737 376.376 553.292 376.238 553.858 376.211C554.425 376.185 554.99 376.272 555.523 376.466C556.603 376.851 557.486 377.648 557.979 378.682C558.472 379.717 558.534 380.904 558.152 381.985L527.133 469.109L404.192 469.203H379.055Z" fill="#3080E3"/>
<path d="M408.542 384.838L199.732 383.232C198.635 383.159 197.607 382.673 196.856 381.871C196.104 381.069 195.687 380.012 195.687 378.914C195.687 377.815 196.104 376.758 196.856 375.956C197.607 375.154 198.635 374.668 199.732 374.595L413.46 376.239L408.542 384.838Z" fill="#3080E3"/>
<path d="M521.648 470.734C520.549 470.68 519.511 470.21 518.746 469.42C517.981 468.629 517.546 467.577 517.529 466.478C517.512 465.378 517.915 464.313 518.655 463.5C519.396 462.686 520.418 462.185 521.516 462.097L596.245 459.697L552.043 386.445L343.232 384.857C342.135 384.785 341.107 384.298 340.356 383.496C339.605 382.694 339.187 381.637 339.187 380.539C339.187 379.441 339.605 378.383 340.356 377.581C341.107 376.78 342.135 376.293 343.232 376.22L556.96 377.846L611.281 467.861L521.818 470.734H521.648Z" fill="#3080E3"/>
<path d="M218.267 359.363L197.462 357.473L198.219 344.244L192.544 340.464C192.08 340.159 191.682 339.765 191.374 339.304C191.066 338.843 190.853 338.325 190.749 337.78C190.645 337.235 190.651 336.675 190.768 336.133C190.885 335.591 191.109 335.078 191.429 334.624C192.088 333.697 193.084 333.063 194.204 332.859C195.323 332.654 196.479 332.894 197.424 333.528L207.127 339.991L206.616 349.97L212.953 350.518L217.133 341.22L229.011 339.5C230.131 339.325 231.275 339.598 232.195 340.259C233.115 340.92 233.738 341.917 233.928 343.034C234.006 343.586 233.973 344.149 233.832 344.688C233.691 345.228 233.445 345.735 233.107 346.179C232.77 346.623 232.348 346.997 231.865 347.277C231.383 347.558 230.85 347.741 230.297 347.815L223.109 348.855L218.267 359.363Z" fill="#3080E3"/>
<path d="M218.267 359.363L197.462 357.473L198.219 344.244L192.544 340.464C192.08 340.159 191.682 339.765 191.374 339.304C191.066 338.843 190.853 338.325 190.749 337.78C190.645 337.235 190.651 336.675 190.768 336.133C190.885 335.591 191.109 335.078 191.429 334.624C192.088 333.697 193.084 333.063 194.204 332.859C195.323 332.654 196.479 332.894 197.424 333.528L207.127 339.991L206.616 349.97L212.953 350.518L217.133 341.22L229.011 339.5C230.131 339.325 231.275 339.598 232.195 340.259C233.115 340.92 233.738 341.917 233.928 343.034C234.006 343.586 233.973 344.149 233.832 344.688C233.691 345.228 233.445 345.735 233.107 346.179C232.77 346.623 232.348 346.997 231.865 347.277C231.383 347.558 230.85 347.741 230.297 347.815L223.109 348.855L218.267 359.363Z" fill="url(#paint14_linear_8_436)"/>
<path d="M340.717 359.363L319.911 357.473L320.611 344.13L314.937 340.35C314.471 340.048 314.072 339.654 313.761 339.194C313.451 338.734 313.237 338.216 313.131 337.671C313.025 337.126 313.03 336.565 313.145 336.023C313.26 335.48 313.484 334.965 313.802 334.511C314.465 333.582 315.464 332.948 316.587 332.744C317.71 332.539 318.868 332.78 319.817 333.414L329.52 339.878L328.99 349.857L335.345 350.405L339.506 341.163L351.403 339.443C352.522 339.263 353.666 339.535 354.584 340.197C355.503 340.86 356.121 341.86 356.302 342.977C356.382 343.53 356.351 344.093 356.211 344.634C356.071 345.175 355.825 345.682 355.487 346.127C355.149 346.572 354.726 346.945 354.243 347.225C353.759 347.506 353.225 347.687 352.67 347.759L345.502 348.798L340.717 359.363Z" fill="#3080E3"/>
<path d="M340.717 359.363L319.911 357.473L320.611 344.13L314.937 340.35C314.471 340.048 314.072 339.654 313.761 339.194C313.451 338.734 313.237 338.216 313.131 337.671C313.025 337.126 313.03 336.565 313.145 336.023C313.26 335.48 313.484 334.965 313.802 334.511C314.465 333.582 315.464 332.948 316.587 332.744C317.71 332.539 318.868 332.78 319.817 333.414L329.52 339.878L328.99 349.857L335.345 350.405L339.506 341.163L351.403 339.443C352.522 339.263 353.666 339.535 354.584 340.197C355.503 340.86 356.121 341.86 356.302 342.977C356.382 343.53 356.351 344.093 356.211 344.634C356.071 345.175 355.825 345.682 355.487 346.127C355.149 346.572 354.726 346.945 354.243 347.225C353.759 347.506 353.225 347.687 352.67 347.759L345.502 348.798L340.717 359.363Z" fill="url(#paint15_linear_8_436)"/>
<path d="M476.595 359.363L455.789 357.473L456.489 344.13L450.815 340.35C450.351 340.046 449.953 339.652 449.645 339.191C449.336 338.73 449.124 338.211 449.019 337.667C448.915 337.122 448.922 336.562 449.039 336.02C449.155 335.478 449.38 334.964 449.699 334.511C450.359 333.583 451.354 332.95 452.474 332.745C453.594 332.541 454.75 332.781 455.695 333.414L465.398 339.878L464.906 349.913L471.242 350.461L475.422 341.22L487.3 339.5C488.42 339.325 489.564 339.598 490.485 340.259C491.405 340.92 492.028 341.917 492.218 343.034C492.295 343.586 492.262 344.149 492.121 344.688C491.98 345.228 491.734 345.735 491.397 346.179C491.059 346.623 490.637 346.997 490.155 347.277C489.673 347.558 489.14 347.741 488.586 347.815L481.399 348.855L476.595 359.363Z" fill="#3080E3"/>
<path d="M476.595 359.363L455.789 357.473L456.489 344.13L450.815 340.35C450.351 340.046 449.953 339.652 449.645 339.191C449.336 338.73 449.124 338.211 449.019 337.667C448.915 337.122 448.922 336.562 449.039 336.02C449.155 335.478 449.38 334.964 449.699 334.511C450.359 333.583 451.354 332.95 452.474 332.745C453.594 332.541 454.75 332.781 455.695 333.414L465.398 339.878L464.906 349.913L471.242 350.461L475.422 341.22L487.3 339.5C488.42 339.325 489.564 339.598 490.485 340.259C491.405 340.92 492.028 341.917 492.218 343.034C492.295 343.586 492.262 344.149 492.121 344.688C491.98 345.228 491.734 345.735 491.397 346.179C491.059 346.623 490.637 346.997 490.155 347.277C489.673 347.558 489.14 347.741 488.586 347.815L481.399 348.855L476.595 359.363Z" fill="url(#paint16_linear_8_436)"/>
<path d="M191.277 399.806C191.069 399.806 184.374 398.351 184.166 398.313C183.333 398.143 182.879 397.482 183.182 396.858L196.838 368.226C197.051 367.895 197.363 367.639 197.729 367.493C198.095 367.347 198.498 367.319 198.881 367.414C199.713 367.603 206.616 369.719 206.314 370.343L192.677 399.05C192.522 399.28 192.313 399.468 192.07 399.6C191.826 399.731 191.554 399.802 191.277 399.806Z" fill="#3080E3"/>
<path d="M190.256 398.786C190.048 398.786 183.352 397.331 183.125 397.293C182.293 397.104 181.858 396.461 182.161 395.838L195.798 367.206C196.012 366.871 196.327 366.612 196.697 366.466C197.067 366.32 197.474 366.295 197.859 366.393C198.692 366.563 205.595 368.699 205.292 369.322L191.637 397.954C191.494 398.197 191.294 398.401 191.052 398.546C190.811 398.691 190.537 398.774 190.256 398.786Z" fill="url(#paint17_linear_8_436)"/>
<path d="M269.411 271.18C265.382 273.562 263.226 278.135 261.675 282.52C258.214 292.404 256.549 303.063 251.045 311.964C247.892 317.048 243.608 321.336 238.524 324.494C235.29 326.516 231.659 328.123 229.067 330.958C226.476 333.792 225.285 338.517 227.838 341.39C230.391 344.262 234.609 344.092 238.184 343.166C253.485 339.198 264.285 325.798 272.891 312.55C276.849 306.936 279.947 300.764 282.083 294.237C284.277 286.659 283.332 262.978 269.411 271.18Z" fill="#3080E3"/>
<path d="M220.783 340.464C218.987 342.092 217.678 344.185 217 346.511C216.664 347.671 216.598 348.893 216.808 350.082C217.018 351.271 217.498 352.397 218.211 353.372C218.945 354.336 219.97 355.04 221.134 355.38C222.298 355.72 223.541 355.679 224.679 355.262C225.475 354.87 226.218 354.382 226.892 353.806L233.815 348.269C234.716 347.628 235.491 346.827 236.103 345.907C237.749 343.015 235.517 336.93 232.321 335.682C228.67 334.208 223.242 338.101 220.783 340.464Z" fill="#F0CAC5"/>
<path d="M227.97 360.686C225.623 361.702 223.472 363.122 221.615 364.881C218.714 368.34 217.287 372.799 217.643 377.298C218.074 383.12 219.348 388.85 221.426 394.307L231.583 425.169C231.769 425.835 232.049 426.471 232.415 427.059C234.42 430.101 239.621 428.778 241.418 425.603C243.215 422.428 242.667 418.516 242.194 414.907C240.716 403.764 240.21 392.515 240.681 381.285C240.608 380.479 240.845 379.675 241.343 379.036C241.885 378.616 242.547 378.378 243.234 378.356C251.991 377.468 260.824 378.469 269.6 378.205C278.376 377.94 287.549 376.315 294.453 370.834C301.357 365.354 305.177 355.337 301.319 347.437C300.622 345.837 299.42 344.509 297.895 343.658C296.222 343.015 294.416 342.795 292.637 343.015C282.348 343.488 272.683 343.544 262.81 346.663C256.814 348.552 250.894 350.612 245.05 352.956C240.756 354.695 232.529 360.686 227.97 360.686Z" fill="#606161"/>
<path d="M227.97 360.686C225.623 361.702 223.472 363.122 221.615 364.881C218.714 368.34 217.287 372.799 217.643 377.298C218.074 383.12 219.348 388.85 221.426 394.307L231.583 425.169C231.769 425.835 232.049 426.471 232.415 427.059C234.42 430.101 239.621 428.778 241.418 425.603C243.215 422.428 242.667 418.516 242.194 414.907C240.716 403.764 240.21 392.515 240.681 381.285C240.608 380.479 240.845 379.675 241.343 379.036C241.885 378.616 242.547 378.378 243.234 378.356C251.991 377.468 260.824 378.469 269.6 378.205C278.376 377.94 287.549 376.315 294.453 370.834C301.357 365.354 305.177 355.337 301.319 347.437C300.622 345.837 299.42 344.509 297.895 343.658C296.222 343.015 294.416 342.795 292.637 343.015C282.348 343.488 272.683 343.544 262.81 346.663C256.814 348.552 250.894 350.612 245.05 352.956C240.756 354.695 232.529 360.686 227.97 360.686Z" fill="url(#paint18_linear_8_436)"/>
<path d="M236.179 434.694C235.828 435.546 235.307 436.317 234.647 436.962C232.735 439.04 230.568 440.869 228.197 442.404C227.076 443.01 226.091 443.84 225.304 444.842C225.016 445.285 224.82 445.78 224.726 446.299C224.632 446.818 224.642 447.351 224.755 447.866C224.862 448.519 225.222 449.103 225.757 449.492C226.567 449.875 227.492 449.943 228.349 449.681C232.967 448.723 237.425 447.113 241.588 444.899C242.3 444.564 242.983 444.172 243.631 443.727C245.045 442.682 246.14 441.263 246.791 439.631C247.443 437.998 247.626 436.217 247.319 434.486C247.225 433.982 247.066 433.493 246.847 433.031C246.563 432.495 246.228 431.988 245.844 431.519C244.67 429.699 243.307 428.007 241.778 426.473C241.66 426.346 241.509 426.254 241.343 426.208C241.133 426.213 240.929 426.278 240.756 426.397C239.905 426.888 239.073 427.418 238.26 427.966C237.446 428.514 236.765 428.759 236.368 429.383C235.725 430.876 236.746 433.068 236.179 434.694Z" fill="#606161"/>
<path d="M358.572 296.032C351.384 303.214 340.887 305.652 331.657 309.904C328.025 311.567 324.299 313.797 322.805 317.464C322.159 319.28 321.889 321.209 322.011 323.133C321.938 323.765 322.021 324.405 322.251 324.998C322.482 325.591 322.854 326.118 323.335 326.535C323.975 326.847 324.686 326.984 325.396 326.932C335.404 327.061 345.372 325.633 354.94 322.699C365.418 319.486 375.745 314.119 382.044 305.123C383.426 303.256 384.446 301.147 385.051 298.905C385.496 296.583 385.611 294.21 385.392 291.856C385.367 287.175 384.834 282.512 383.803 277.946C382.895 274.582 380.985 269.12 377.788 267.193C374.592 265.265 371.944 272.409 370.733 274.752C367.121 282.142 364.416 290.174 358.572 296.032Z" fill="#3080E3"/>
<path d="M377.013 258.896C373.514 264.868 373.532 272.239 374.251 279.118C375.708 293.387 379.661 307.466 380.228 321.697C380.436 327.102 380.228 332.659 381.911 337.799C383.101 341.064 384.948 344.051 387.339 346.573C389.731 349.096 392.615 351.101 395.813 352.465C402.254 355.156 409.341 355.904 416.202 354.619C421.041 354.053 425.566 351.938 429.102 348.59C432.216 344.867 433.994 340.21 434.152 335.361C435.154 322.793 430.256 310.585 425.432 298.943C420.269 286.451 414.935 273.675 406.386 263.035C402.736 258.499 398.348 253.056 392.446 251.809C389.456 251.249 386.366 251.63 383.601 252.899C380.837 254.168 378.535 256.264 377.013 258.896Z" fill="#3080E3"/>
<path d="M377.013 258.896C373.514 264.868 373.532 272.239 374.251 279.118C375.708 293.387 379.661 307.466 380.228 321.697C380.436 327.102 380.228 332.659 381.911 337.799C383.101 341.064 384.948 344.051 387.339 346.573C389.731 349.096 392.615 351.101 395.813 352.465C402.254 355.156 409.341 355.904 416.202 354.619C421.041 354.053 425.566 351.938 429.102 348.59C432.216 344.867 433.994 340.21 434.152 335.361C435.154 322.793 430.256 310.585 425.432 298.943C420.269 286.451 414.935 273.675 406.386 263.035C402.736 258.499 398.348 253.056 392.446 251.809C389.456 251.249 386.366 251.63 383.601 252.899C380.837 254.168 378.535 256.264 377.013 258.896Z" fill="url(#paint19_linear_8_436)"/>
<path d="M347.923 337.591C346.135 339.218 344.826 341.303 344.14 343.62C343.804 344.78 343.738 346.001 343.948 347.191C344.158 348.38 344.637 349.505 345.351 350.48C346.085 351.445 347.11 352.148 348.274 352.489C349.438 352.829 350.68 352.787 351.819 352.37C352.618 351.986 353.363 351.496 354.032 350.915L360.955 345.377C361.855 344.736 362.631 343.936 363.243 343.015C364.889 340.124 362.657 334.057 359.46 332.791C355.81 331.336 350.382 335.248 347.923 337.591Z" fill="#F0CAC5"/>
<path d="M312.989 326.535C312.445 328.271 312.265 330.099 312.46 331.907C312.656 333.715 313.222 335.464 314.124 337.043C314.585 337.894 315.231 338.63 316.015 339.198C317.761 340.1 319.763 340.381 321.689 339.991C322.107 340.003 322.513 339.855 322.824 339.576C322.985 339.373 323.089 339.132 323.127 338.876C323.486 336.854 322.446 334.719 322.994 332.734C323.656 330.221 326.588 328.822 327.345 326.327C328.385 322.926 324.526 318.295 321.008 318.352C317.49 318.409 313.972 323.455 312.989 326.535Z" fill="#F0CAC5"/>
<path d="M355.205 357.813C352.861 358.836 350.711 360.255 348.85 362.008C345.949 365.475 344.523 369.939 344.878 374.444C345.305 380.267 346.579 385.997 348.661 391.453L358.817 422.315C359.016 422.977 359.295 423.611 359.65 424.205C361.655 427.229 366.856 425.906 368.653 422.731C370.45 419.556 369.901 415.644 369.428 412.034C367.95 400.892 367.444 389.642 367.915 378.413C367.844 377.607 368.081 376.803 368.577 376.164C369.118 375.743 369.783 375.51 370.468 375.502C379.207 374.595 388.04 375.597 396.816 375.351C405.592 375.105 414.765 373.461 421.669 367.962C428.572 362.462 432.393 352.465 428.534 344.565C427.846 342.959 426.642 341.629 425.111 340.785C423.442 340.127 421.633 339.899 419.853 340.124C409.564 340.596 399.899 340.672 390.044 343.771C384.03 345.661 378.11 347.721 372.265 350.064C367.896 351.803 359.669 357.813 355.205 357.813Z" fill="#606161"/>
<path d="M495.395 296.032C488.208 303.214 477.711 305.652 468.481 309.904C464.868 311.567 461.142 313.797 459.648 317.464C458.987 319.277 458.71 321.208 458.835 323.133C458.764 323.767 458.85 324.408 459.084 325.001C459.318 325.594 459.693 326.12 460.178 326.535C460.811 326.847 461.516 326.985 462.22 326.932C472.228 327.061 482.195 325.633 491.764 322.699C502.261 319.486 512.569 314.119 518.887 305.123C520.263 303.255 521.277 301.146 521.875 298.905C522.317 296.583 522.438 294.211 522.234 291.856C522.203 287.175 521.664 282.511 520.627 277.946C519.738 274.582 517.827 269.12 514.612 267.193C511.397 265.265 508.768 272.409 507.576 274.752C503.944 282.142 501.24 290.174 495.395 296.032Z" fill="#3080E3"/>
<path d="M513.855 258.896C510.337 264.868 510.375 272.239 511.075 279.118C512.55 293.387 516.484 307.466 517.052 321.697C517.279 327.102 517.052 332.659 518.735 337.799C519.927 341.062 521.776 344.047 524.167 346.57C526.558 349.092 529.44 351.098 532.637 352.465C539.084 355.156 546.178 355.905 553.045 354.619C557.881 354.044 562.403 351.931 565.945 348.59C569.051 344.863 570.828 340.209 570.995 335.361C571.978 322.793 567.079 310.585 562.256 298.943C557.112 286.451 551.759 273.675 543.229 263.035C539.56 258.499 535.19 253.056 529.27 251.809C526.283 251.247 523.194 251.628 520.432 252.897C517.67 254.167 515.372 256.263 513.855 258.896Z" fill="#3080E3"/>
<path d="M513.855 258.896C510.337 264.868 510.375 272.239 511.075 279.118C512.55 293.387 516.484 307.466 517.052 321.697C517.279 327.102 517.052 332.659 518.735 337.799C519.927 341.062 521.776 344.047 524.167 346.57C526.558 349.092 529.44 351.098 532.637 352.465C539.084 355.156 546.178 355.905 553.045 354.619C557.881 354.044 562.403 351.931 565.945 348.59C569.051 344.863 570.828 340.209 570.995 335.361C571.978 322.793 567.079 310.585 562.256 298.943C557.112 286.451 551.759 273.675 543.229 263.035C539.56 258.499 535.19 253.056 529.27 251.809C526.283 251.247 523.194 251.628 520.432 252.897C517.67 254.167 515.372 256.263 513.855 258.896Z" fill="url(#paint20_linear_8_436)"/>
<path d="M533.393 268.327C529.365 270.689 527.19 275.263 525.658 279.666C522.196 289.531 520.532 300.209 515.009 309.11C511.853 314.185 507.576 318.472 502.507 321.64C499.254 323.663 495.641 325.25 493.05 328.085C490.459 330.92 489.362 335.645 491.821 338.517C494.279 341.39 498.592 341.239 502.167 340.313C517.468 336.344 528.268 322.944 536.874 309.696C540.836 304.078 543.934 297.899 546.066 291.364C548.241 283.767 547.314 260.143 533.393 268.327Z" fill="#3080E3"/>
<path d="M484.766 337.591C482.982 339.222 481.674 341.305 480.983 343.62C480.649 344.781 480.586 346.003 480.8 347.193C481.013 348.382 481.496 349.507 482.212 350.48C482.947 351.445 483.971 352.148 485.135 352.489C486.3 352.829 487.542 352.787 488.681 352.37C489.477 351.99 490.215 351.5 490.875 350.915L497.798 345.377C498.703 344.741 499.479 343.94 500.086 343.015C501.751 340.124 499.5 334.057 496.303 332.791C492.653 331.336 487.206 335.248 484.766 337.591Z" fill="#C8A59C"/>
<path d="M449.775 326.535C449.242 328.272 449.068 330.099 449.263 331.905C449.458 333.712 450.018 335.46 450.91 337.043C451.372 337.892 452.018 338.628 452.801 339.198C454.546 340.103 456.549 340.384 458.475 339.991C458.899 340.004 459.311 339.856 459.629 339.576C459.791 339.376 459.89 339.132 459.913 338.876C460.291 336.854 459.251 334.719 459.78 332.734C460.461 330.221 463.374 328.822 464.131 326.327C465.19 322.926 461.331 318.295 457.813 318.352C454.295 318.409 450.796 323.455 449.775 326.535Z" fill="#C8A59C"/>
<path d="M491.934 357.813C489.598 358.841 487.456 360.26 485.598 362.008C484.149 363.718 483.052 365.696 482.371 367.83C481.689 369.964 481.436 372.212 481.626 374.444C482.062 380.266 483.336 385.995 485.409 391.453L495.566 422.315C495.771 422.977 496.056 423.612 496.417 424.205C498.422 427.229 503.623 425.906 505.401 422.731C507.179 419.556 506.668 415.644 506.176 412.034C504.699 400.892 504.192 389.642 504.663 378.413C504.609 377.605 504.851 376.806 505.344 376.164C505.885 375.742 506.549 375.509 507.236 375.502C515.974 374.595 524.807 375.597 533.602 375.351C542.397 375.105 551.551 373.461 558.436 367.962C565.32 362.462 569.16 352.465 565.32 344.565C564.626 342.963 563.423 341.635 561.897 340.785C560.227 340.129 558.419 339.902 556.639 340.124C546.35 340.596 536.666 340.672 526.812 343.771C520.816 345.661 514.877 347.721 509.032 350.064C504.72 351.803 496.511 357.813 491.934 357.813Z" fill="#606161"/>
<path d="M355.205 357.813C352.861 358.836 350.711 360.255 348.85 362.008C345.949 365.475 344.523 369.939 344.878 374.444C345.305 380.267 346.579 385.997 348.661 391.453L358.817 422.315C359.016 422.977 359.295 423.611 359.65 424.205C361.655 427.229 366.856 425.906 368.653 422.731C370.45 419.556 369.901 415.644 369.428 412.034C367.95 400.892 367.444 389.642 367.915 378.413C367.844 377.607 368.081 376.803 368.577 376.164C369.118 375.743 369.783 375.51 370.468 375.502C379.207 374.595 388.04 375.597 396.816 375.351C405.592 375.105 414.765 373.461 421.669 367.962C428.572 362.462 432.393 352.465 428.534 344.565C427.846 342.959 426.642 341.629 425.111 340.785C423.442 340.127 421.633 339.899 419.853 340.124C409.564 340.596 399.899 340.672 390.044 343.771C384.03 345.661 378.11 347.721 372.265 350.064C367.896 351.803 359.669 357.813 355.205 357.813Z" fill="url(#paint21_linear_8_436)"/>
<path d="M491.934 357.813C489.598 358.841 487.456 360.26 485.598 362.008C484.149 363.718 483.052 365.696 482.371 367.83C481.689 369.964 481.436 372.212 481.626 374.444C482.062 380.266 483.336 385.995 485.409 391.453L495.566 422.315C495.771 422.977 496.056 423.612 496.417 424.205C498.422 427.229 503.623 425.906 505.401 422.731C507.179 419.556 506.668 415.644 506.176 412.034C504.699 400.892 504.192 389.642 504.663 378.413C504.609 377.605 504.851 376.806 505.344 376.164C505.885 375.742 506.549 375.509 507.236 375.502C515.974 374.595 524.807 375.597 533.602 375.351C542.397 375.105 551.551 373.461 558.436 367.962C565.32 362.462 569.16 352.465 565.32 344.565C564.626 342.963 563.423 341.635 561.897 340.785C560.227 340.129 558.419 339.902 556.639 340.124C546.35 340.596 536.666 340.672 526.812 343.771C520.816 345.661 514.877 347.721 509.032 350.064C504.72 351.803 496.511 357.813 491.934 357.813Z" fill="url(#paint22_linear_8_436)"/>
<path d="M363.319 431.84C362.967 432.686 362.446 433.452 361.787 434.089C359.871 436.168 357.704 438.003 355.337 439.551C354.212 440.144 353.226 440.968 352.443 441.97C351.871 442.867 351.674 443.953 351.895 444.994C352.002 445.646 352.362 446.23 352.897 446.619C353.707 447.003 354.631 447.07 355.488 446.808C360.106 445.856 364.564 444.253 368.728 442.045C369.436 441.696 370.119 441.298 370.771 440.855C372.182 439.811 373.274 438.395 373.926 436.767C374.577 435.138 374.762 433.36 374.459 431.632C374.371 431.127 374.212 430.637 373.986 430.177C373.699 429.637 373.364 429.125 372.984 428.646C371.81 426.837 370.453 425.152 368.936 423.619C368.819 423.483 368.659 423.39 368.482 423.354C368.27 423.342 368.061 423.409 367.896 423.543C367.045 424.035 366.213 424.545 365.418 425.093C364.624 425.641 363.905 425.906 363.527 426.51C362.865 428.022 363.886 430.196 363.319 431.84Z" fill="#606161"/>
<path d="M499.538 433.862C499.191 434.706 498.676 435.471 498.024 436.111C496.097 438.187 493.925 440.021 491.556 441.573C490.43 442.173 489.444 443.004 488.662 444.011C488.089 444.901 487.892 445.981 488.113 447.016C488.235 447.668 488.6 448.249 489.135 448.641C489.942 449.033 490.867 449.107 491.726 448.849C496.342 447.884 500.799 446.275 504.966 444.068C505.674 443.718 506.356 443.321 507.009 442.877C508.419 441.833 509.512 440.418 510.163 438.789C510.814 437.16 510.999 435.382 510.697 433.654C510.606 433.152 510.453 432.664 510.243 432.199C509.956 431.655 509.613 431.142 509.221 430.668C508.047 428.859 506.691 427.175 505.174 425.641C505.051 425.511 504.894 425.419 504.72 425.377C504.508 425.366 504.299 425.433 504.134 425.566C503.282 426.057 502.469 426.567 501.656 427.115C500.843 427.663 500.143 427.928 499.764 428.533C499.084 430.045 500.105 432.218 499.538 433.862Z" fill="#606161"/>
<path d="M538.273 223.763C536.893 218.66 532.599 212.537 522.045 211.271C514.48 210.383 511.151 212.272 510.564 214.54C510.179 215.059 509.92 215.661 509.808 216.298L509.562 214.748C509.221 219.001 507.973 230.434 508.087 236.917C508.2 243.399 510.791 250.146 515.539 249.787C520.286 249.428 531.578 242.227 533.999 239.185C536.42 236.142 539.673 228.96 538.273 223.763Z" fill="#C8A59C"/>
<path d="M521.421 253.926C522.052 254.711 522.933 255.258 523.918 255.475L527.417 256.647C528.425 257.044 529.493 257.267 530.575 257.309C531.12 257.332 531.662 257.217 532.151 256.976C532.641 256.735 533.061 256.375 533.375 255.929C533.761 255.13 533.924 254.242 533.847 253.359C534.082 248.664 533.565 243.962 532.315 239.43C532.148 238.718 531.707 238.1 531.086 237.71C530.58 237.558 530.041 237.558 529.535 237.71C526.395 238.334 522.178 240.791 521.213 244.098C521.03 245.354 521.062 246.633 521.308 247.878C521.383 249.598 520.419 252.244 521.421 253.926Z" fill="#C8A59C"/>
<path d="M362.241 235.972C362.354 238.996 365.778 240.64 367.442 243.153C369.107 245.667 369.031 249.522 371.338 251.658C373.646 253.793 377.523 253.151 380.795 251.828C381.817 251.393 382.687 257.365 383.481 258.121C386.243 260.71 391.047 257.327 393.922 255.664C394.479 255.396 394.955 254.985 395.302 254.474C395.334 252.298 395.189 250.124 394.867 247.973C394.659 242.303 394.357 236.463 393.96 230.718C393.835 227.378 393.366 224.059 392.56 220.815C391.963 218.418 390.817 216.192 389.212 214.314C387.86 212.907 386.2 211.833 384.362 211.177C382.524 210.521 380.558 210.301 378.62 210.534C374.694 211.064 371.127 213.096 368.672 216.203C366.451 219.226 365.139 222.819 364.889 226.56C364.378 229.527 362.127 232.967 362.241 235.972Z" fill="#F0CAC5"/>
<path d="M356.794 208.852C357.041 211.717 358.298 214.402 360.342 216.427C362.386 218.452 365.083 219.685 367.953 219.908C371.149 220.134 374.875 219.322 377.164 221.552C377.712 222.1 378.185 222.799 378.942 222.95C379.425 223.016 379.915 223.016 380.398 222.95C382.914 222.837 384.181 225.936 384.559 228.412C386.281 228.034 385.202 224.236 386.961 224.198C387.326 224.207 387.676 224.348 387.945 224.595C388.513 225.083 388.972 225.684 389.292 226.361C389.612 227.037 389.787 227.773 389.805 228.521C389.823 229.269 389.683 230.013 389.395 230.704C389.108 231.395 388.678 232.018 388.134 232.532C390.165 235.043 391.344 238.134 391.501 241.358C391.595 244.079 391.633 247.746 394.281 248.294C394.875 248.371 395.479 248.302 396.04 248.091C396.601 247.88 397.101 247.534 397.497 247.084C400.901 243.72 399.615 237.748 402.225 233.761C403.852 231.285 406.859 229.773 407.899 226.995C408.429 225.322 408.429 223.527 407.899 221.854C406.761 217.545 404.143 213.772 400.504 211.195C398.952 210.284 397.494 209.221 396.154 208.02C395.182 206.829 394.304 205.565 393.525 204.24C388.285 196.416 380.285 197.248 372.019 197.512C365.154 197.569 356.529 200.234 356.794 208.852Z" fill="#EDB607"/>
<path d="M258.233 479.238C255.072 479.238 251.982 478.302 249.353 476.547C246.725 474.792 244.677 472.298 243.467 469.38C242.257 466.462 241.941 463.251 242.558 460.153C243.174 457.056 244.696 454.21 246.932 451.977C249.167 449.743 252.014 448.222 255.115 447.606C258.215 446.99 261.429 447.306 264.349 448.515C267.269 449.724 269.765 451.77 271.522 454.397C273.278 457.023 274.215 460.11 274.215 463.269C274.21 467.503 272.525 471.562 269.528 474.556C266.532 477.549 262.47 479.233 258.233 479.238ZM258.233 455.936C256.781 455.936 255.362 456.366 254.156 457.172C252.949 457.978 252.008 459.123 251.453 460.463C250.897 461.803 250.752 463.277 251.035 464.699C251.318 466.122 252.017 467.428 253.044 468.454C254.07 469.479 255.378 470.178 256.801 470.461C258.225 470.744 259.7 470.598 261.041 470.043C262.382 469.488 263.528 468.549 264.335 467.343C265.141 466.137 265.571 464.719 265.571 463.269C265.571 461.324 264.798 459.459 263.422 458.084C262.046 456.709 260.179 455.936 258.233 455.936Z" fill="#3080E3"/>
<path d="M258.233 481.053C255.071 481.053 251.98 480.116 249.351 478.36C246.723 476.604 244.674 474.109 243.465 471.19C242.256 468.271 241.941 465.059 242.559 461.961C243.177 458.862 244.701 456.017 246.938 453.784C249.175 451.552 252.025 450.032 255.126 449.418C258.228 448.804 261.442 449.123 264.362 450.335C267.282 451.546 269.777 453.596 271.531 456.225C273.285 458.853 274.219 461.943 274.215 465.102C274.21 469.334 272.524 473.391 269.527 476.382C266.531 479.373 262.468 481.053 258.233 481.053ZM258.233 457.769C256.781 457.769 255.362 458.199 254.156 459.005C252.949 459.811 252.008 460.956 251.453 462.296C250.897 463.636 250.752 465.11 251.035 466.533C251.318 467.955 252.017 469.262 253.044 470.287C254.07 471.313 255.378 472.011 256.801 472.294C258.225 472.577 259.7 472.432 261.041 471.877C262.382 471.322 263.528 470.382 264.335 469.176C265.141 467.97 265.571 466.552 265.571 465.102C265.571 463.157 264.798 461.292 263.422 459.917C262.046 458.542 260.179 457.769 258.233 457.769Z" fill="url(#paint23_linear_8_436)"/>
<path d="M381.079 479.238C377.918 479.238 374.828 478.302 372.2 476.547C369.572 474.792 367.523 472.298 366.313 469.38C365.104 466.462 364.787 463.251 365.404 460.153C366.021 457.056 367.543 454.21 369.778 451.977C372.013 449.743 374.861 448.222 377.961 447.606C381.061 446.99 384.275 447.306 387.195 448.515C390.116 449.724 392.612 451.77 394.368 454.397C396.124 457.023 397.061 460.11 397.061 463.269C397.056 467.503 395.371 471.562 392.375 474.556C389.379 477.549 385.316 479.233 381.079 479.238ZM381.079 455.936C379.628 455.936 378.209 456.366 377.002 457.172C375.795 457.978 374.855 459.123 374.299 460.463C373.744 461.803 373.598 463.277 373.882 464.699C374.165 466.122 374.864 467.428 375.89 468.454C376.916 469.479 378.224 470.178 379.647 470.461C381.071 470.744 382.547 470.598 383.888 470.043C385.228 469.488 386.375 468.549 387.181 467.343C387.987 466.137 388.418 464.719 388.418 463.269C388.418 461.324 387.645 459.459 386.268 458.084C384.892 456.709 383.025 455.936 381.079 455.936Z" fill="#3080E3"/>
<path d="M381.079 481.053C377.917 481.053 374.827 480.116 372.198 478.36C369.569 476.604 367.521 474.109 366.312 471.19C365.102 468.271 364.787 465.059 365.405 461.961C366.024 458.862 367.548 456.017 369.785 453.784C372.022 451.552 374.871 450.032 377.973 449.418C381.074 448.804 384.288 449.123 387.208 450.335C390.128 451.546 392.623 453.596 394.377 456.225C396.131 458.853 397.065 461.943 397.061 465.102C397.056 469.334 395.37 473.391 392.374 476.382C389.377 479.373 385.315 481.053 381.079 481.053ZM381.079 457.769C379.628 457.769 378.209 458.199 377.002 459.005C375.795 459.811 374.855 460.956 374.299 462.296C373.744 463.636 373.598 465.11 373.882 466.533C374.165 467.955 374.864 469.262 375.89 470.287C376.916 471.313 378.224 472.011 379.647 472.294C381.071 472.577 382.547 472.432 383.888 471.877C385.228 471.322 386.375 470.382 387.181 469.176C387.987 467.97 388.418 466.552 388.418 465.102C388.418 463.157 387.645 461.292 386.268 459.917C384.892 458.542 383.025 457.769 381.079 457.769Z" fill="url(#paint24_linear_8_436)"/>
<path d="M521.27 479.238C518.108 479.242 515.016 478.309 512.385 476.556C509.754 474.804 507.703 472.311 506.49 469.393C505.278 466.475 504.959 463.264 505.573 460.165C506.188 457.066 507.708 454.219 509.943 451.983C512.177 449.748 515.025 448.225 518.126 447.608C521.227 446.99 524.441 447.305 527.363 448.513C530.284 449.721 532.781 451.768 534.538 454.395C536.295 457.021 537.233 460.11 537.233 463.269C537.228 467.499 535.545 471.556 532.553 474.549C529.561 477.542 525.504 479.228 521.27 479.238ZM521.27 455.936C519.818 455.936 518.399 456.366 517.193 457.172C515.986 457.978 515.045 459.123 514.49 460.463C513.934 461.803 513.789 463.277 514.072 464.699C514.355 466.122 515.054 467.428 516.08 468.454C517.107 469.479 518.414 470.178 519.838 470.461C521.262 470.744 522.737 470.598 524.078 470.043C525.419 469.488 526.565 468.549 527.371 467.343C528.178 466.137 528.608 464.719 528.608 463.269C528.608 461.324 527.835 459.459 526.459 458.084C525.083 456.709 523.216 455.936 521.27 455.936Z" fill="#3080E3"/>
<path d="M521.27 481.053C518.107 481.056 515.014 480.123 512.383 478.369C509.752 476.616 507.701 474.122 506.489 471.203C505.277 468.284 504.959 465.072 505.575 461.972C506.191 458.873 507.713 456.025 509.95 453.791C512.186 451.556 515.035 450.035 518.137 449.419C521.239 448.804 524.454 449.122 527.376 450.333C530.297 451.544 532.793 453.594 534.547 456.223C536.302 458.852 537.237 461.942 537.233 465.102C537.223 469.329 535.538 473.381 532.546 476.37C529.555 479.359 525.5 481.043 521.27 481.053ZM521.27 457.769C519.818 457.769 518.399 458.199 517.193 459.005C515.986 459.811 515.045 460.956 514.49 462.296C513.934 463.636 513.789 465.11 514.072 466.533C514.355 467.955 515.054 469.262 516.08 470.287C517.107 471.313 518.414 472.011 519.838 472.294C521.262 472.577 522.737 472.432 524.078 471.877C525.419 471.322 526.565 470.382 527.371 469.176C528.178 467.97 528.608 466.552 528.608 465.102C528.608 463.157 527.835 461.292 526.459 459.917C525.083 458.542 523.216 457.769 521.27 457.769Z" fill="url(#paint25_linear_8_436)"/>
<path d="M243.347 450.418C243.347 450.418 256.322 467.521 257.628 467.427C258.933 467.332 260.767 464.989 260.767 464.989L245.882 449.87L243.347 450.418Z" fill="#606161"/>
<path d="M229.616 448.944L232.188 456.692L246.941 449.851L244.823 442.858L229.616 448.944Z" fill="#3080E3"/>
<path d="M229.616 448.944L232.188 456.692L246.941 449.851L244.823 442.858L229.616 448.944Z" fill="url(#paint26_linear_8_436)"/>
<path d="M277.657 479.938L280.23 487.686L294.983 480.845L292.864 473.852L277.657 479.938Z" fill="#3080E3"/>
<path d="M277.657 479.938L280.23 487.686L294.983 480.845L292.864 473.852L277.657 479.938Z" fill="url(#paint27_linear_8_436)"/>
<path d="M366.553 448.887C366.553 448.887 379.528 466.009 380.833 465.896C382.138 465.782 383.973 463.458 383.973 463.458L369.088 448.339L366.553 448.887Z" fill="#606161"/>
<path d="M352.765 447.432L355.337 455.161L370.09 448.339L367.953 441.346L352.765 447.432Z" fill="#3080E3"/>
<path d="M352.765 447.432L355.337 455.161L370.09 448.339L367.953 441.346L352.765 447.432Z" fill="url(#paint28_linear_8_436)"/>
<path d="M509.203 451.325C509.203 451.325 522.178 468.447 523.501 468.334C524.825 468.22 526.641 465.915 526.641 465.915L511.737 450.796L509.203 451.325Z" fill="#606161"/>
<path d="M495.471 449.851L498.062 457.599L512.796 450.758L510.678 443.784L495.471 449.851Z" fill="#3080E3"/>
<path d="M495.471 449.851L498.062 457.599L512.796 450.758L510.678 443.784L495.471 449.851Z" fill="url(#paint29_linear_8_436)"/>
<path d="M396.551 268.327C392.522 270.689 390.366 275.263 388.815 279.666C385.354 289.531 383.689 300.209 378.185 309.11C375.024 314.181 370.749 318.466 365.683 321.64C362.43 323.663 358.799 325.25 356.226 328.085C353.654 330.92 352.443 335.645 354.997 338.517C357.55 341.39 361.768 341.239 365.343 340.313C380.644 336.344 391.444 322.944 400.05 309.696C404.005 304.074 407.102 297.896 409.242 291.364C411.417 283.767 410.472 260.143 396.551 268.327Z" fill="#3080E3"/>
<path d="M519.284 208.285C515.595 208.587 511.018 208.757 508.938 211.913C506.403 215.788 509.619 217.47 512.929 218.471C518.924 220.361 519.567 226.749 521.213 231.852C521.867 234.517 523.424 236.874 525.62 238.523C526.868 239.355 528.362 239.563 529.611 240.413C531.422 241.705 532.711 243.602 533.242 245.761C533.712 248.018 534.442 250.212 535.417 252.3C537.04 254.68 539.257 256.596 541.848 257.857C543.992 259.225 546.361 260.204 548.846 260.748C552.686 261.117 556.556 260.465 560.062 258.858C561.111 258.356 562.249 258.066 563.41 258.008C567.098 258.008 569.217 262.525 572.772 263.507C575.477 264.244 578.447 263.186 581.17 263.734C584.503 264.704 587.925 265.337 591.384 265.624C595.201 265.865 598.982 264.761 602.07 262.506C603.57 261.343 604.636 259.711 605.099 257.872C605.562 256.032 605.394 254.09 604.624 252.357C602.865 249.144 598.949 247.991 595.885 245.856C594.328 244.73 593.01 243.307 592.007 241.668C591.004 240.03 590.336 238.21 590.041 236.312C589.606 233.25 590.041 230 588.849 227.203C588.024 225.732 586.911 224.444 585.575 223.414C584.239 222.385 582.709 221.635 581.076 221.212C577.426 219.967 573.583 219.385 569.727 219.492C564.053 219.681 558.152 221.382 552.516 220.134C546.879 218.887 542.094 214.465 537.063 211.214C531.71 207.756 527.341 207.434 521.289 208.285H519.284Z" fill="#606161"/>
<path d="M519.284 208.285C515.595 208.587 511.018 208.757 508.938 211.913C506.403 215.788 509.619 217.47 512.929 218.471C518.924 220.361 519.567 226.749 521.213 231.852C521.867 234.517 523.424 236.874 525.62 238.523C526.868 239.355 528.362 239.563 529.611 240.413C531.422 241.705 532.711 243.602 533.242 245.761C533.712 248.018 534.442 250.212 535.417 252.3C537.04 254.68 539.257 256.596 541.848 257.857C543.992 259.225 546.361 260.204 548.846 260.748C552.686 261.117 556.556 260.465 560.062 258.858C561.111 258.356 562.249 258.066 563.41 258.008C567.098 258.008 569.217 262.525 572.772 263.507C575.477 264.244 578.447 263.186 581.17 263.734C584.503 264.704 587.925 265.337 591.384 265.624C595.201 265.865 598.982 264.761 602.07 262.506C603.57 261.343 604.636 259.711 605.099 257.872C605.562 256.032 605.394 254.09 604.624 252.357C602.865 249.144 598.949 247.991 595.885 245.856C594.328 244.73 593.01 243.307 592.007 241.668C591.004 240.03 590.336 238.21 590.041 236.312C589.606 233.25 590.041 230 588.849 227.203C588.024 225.732 586.911 224.444 585.575 223.414C584.239 222.385 582.709 221.635 581.076 221.212C577.426 219.967 573.583 219.385 569.727 219.492C564.053 219.681 558.152 221.382 552.516 220.134C546.879 218.887 542.094 214.465 537.063 211.214C531.71 207.756 527.341 207.434 521.289 208.285H519.284Z" fill="#C75A5A" fill-opacity="0.93"/>
<path d="M911.56 283.351C911.56 347.437 856.898 458.393 792.742 458.393C728.586 458.393 679.258 347.437 679.258 283.351C679.062 267.984 681.922 252.732 687.671 238.478C693.421 224.224 701.946 211.253 712.752 200.317C723.558 189.381 736.429 180.698 750.62 174.771C764.811 168.845 780.038 165.793 795.419 165.793C810.799 165.793 826.026 168.845 840.217 174.771C854.408 180.698 867.279 189.381 878.085 200.317C888.891 211.253 897.416 224.224 903.166 238.478C908.915 252.732 911.775 267.984 911.579 283.351H911.56Z" fill="#3080E3"/>
<path d="M911.56 283.351C911.56 347.437 856.898 458.393 792.742 458.393C728.586 458.393 679.258 347.437 679.258 283.351C679.062 267.984 681.922 252.732 687.671 238.478C693.421 224.224 701.946 211.253 712.752 200.317C723.558 189.381 736.429 180.698 750.62 174.771C764.811 168.845 780.038 165.793 795.419 165.793C810.799 165.793 826.026 168.845 840.217 174.771C854.408 180.698 867.279 189.381 878.085 200.317C888.891 211.253 897.416 224.224 903.166 238.478C908.915 252.732 911.775 267.984 911.579 283.351H911.56Z" fill="url(#paint30_linear_8_436)"/>
<path d="M855.631 430.347H744.039C733.948 430.347 725.768 438.521 725.768 448.603V448.622C725.768 458.705 733.948 466.879 744.039 466.879H855.631C865.722 466.879 873.902 458.705 873.902 448.622V448.603C873.902 438.521 865.722 430.347 855.631 430.347Z" fill="#3080E3"/>
<path d="M855.631 430.347H744.039C733.948 430.347 725.768 438.521 725.768 448.603V448.622C725.768 458.705 733.948 466.879 744.039 466.879H855.631C865.722 466.879 873.902 458.705 873.902 448.622V448.603C873.902 438.521 865.722 430.347 855.631 430.347Z" fill="url(#paint31_linear_8_436)"/>
<path d="M855.631 470.677H744.039C733.948 470.677 725.768 478.851 725.768 488.934V488.952C725.768 499.035 733.948 507.209 744.039 507.209H855.631C865.722 507.209 873.902 499.035 873.902 488.952V488.934C873.902 478.851 865.722 470.677 855.631 470.677Z" fill="#3080E3"/>
<path d="M855.631 470.677H744.039C733.948 470.677 725.768 478.851 725.768 488.934V488.952C725.768 499.035 733.948 507.209 744.039 507.209H855.631C865.722 507.209 873.902 499.035 873.902 488.952V488.934C873.902 478.851 865.722 470.677 855.631 470.677Z" fill="url(#paint32_linear_8_436)"/>
<path d="M868.814 444.37H733.069C720.795 444.37 710.845 454.312 710.845 466.576V466.595C710.845 478.859 720.795 488.801 733.069 488.801H868.814C881.088 488.801 891.038 478.859 891.038 466.595V466.576C891.038 454.312 881.088 444.37 868.814 444.37Z" fill="#3080E3"/>
<path d="M868.814 444.37H733.069C720.795 444.37 710.845 454.312 710.845 466.576V466.595C710.845 478.859 720.795 488.801 733.069 488.801H868.814C881.088 488.801 891.038 478.859 891.038 466.595V466.576C891.038 454.312 881.088 444.37 868.814 444.37Z" fill="url(#paint33_linear_8_436)"/>
<path d="M828.282 432.955L822.607 432.048C825.272 415.625 830.073 399.621 836.888 384.442C838.136 381.682 839.46 378.942 840.784 376.183C844.869 367.659 849.125 358.852 850.997 349.611C853.135 339.198 852.019 325.193 842.486 317.18C839.812 314.686 836.271 313.33 832.613 313.401C829.303 313.985 826.282 315.654 824.026 318.144C827.023 323.488 828.621 329.502 828.67 335.627C828.72 341.753 827.22 347.791 824.31 353.183C823.275 355.334 821.433 356.991 819.184 357.794C818.314 358.043 817.4 358.101 816.506 357.964C815.611 357.827 814.757 357.498 814.002 357C812.694 356.04 811.59 354.832 810.753 353.443C809.915 352.055 809.361 350.515 809.122 348.912C808.155 343.436 808.347 337.818 809.686 332.422C811.025 327.025 813.481 321.968 816.895 317.577C815.498 315.705 813.864 314.022 812.035 312.569C810.522 311.288 808.737 310.37 806.814 309.885C801.14 308.544 796.166 314.308 793.329 320.412C797.686 324.974 801.055 330.384 803.226 336.306C805.397 342.227 806.322 348.532 805.944 354.827C805.89 358.722 804.561 362.492 802.161 365.562C799.268 368.869 793.65 370.532 789.621 367.451C787.752 365.839 786.43 363.686 785.839 361.29C781.719 348.422 781.978 334.554 786.576 321.848C784.85 320.147 782.67 318.98 780.297 318.484C777.408 318.374 774.583 319.345 772.372 321.206C760.778 329.786 759.34 346.776 759.51 356.131C760.171 383.255 770.967 409.15 789.773 428.722L785.649 432.69C765.86 412.065 754.505 384.79 753.817 356.225C753.477 338.177 758.867 324.097 768.948 316.538C772.341 313.787 776.658 312.435 781.016 312.758C783.939 313.241 786.681 314.494 788.959 316.387C792.742 309.299 799.703 302.76 807.873 304.235C810.688 304.876 813.313 306.171 815.534 308.014C817.477 309.544 819.235 311.294 820.773 313.23C822.378 311.497 824.316 310.103 826.471 309.131C828.626 308.159 830.954 307.629 833.317 307.573C835.681 307.516 838.031 307.934 840.23 308.802C842.429 309.67 844.431 310.97 846.118 312.626C857.579 322.245 859.017 338.555 856.558 350.612C854.553 360.516 850.165 369.663 845.91 378.507C844.604 381.21 843.318 383.912 842.127 386.634C835.492 401.398 830.837 416.973 828.282 432.955ZM791.078 326.535C787.775 337.318 787.855 348.853 791.305 359.589C791.606 360.877 792.261 362.055 793.196 362.991C794.445 363.936 796.828 363.142 797.981 361.857C799.546 359.737 800.364 357.159 800.308 354.525C800.923 344.359 797.62 334.344 791.078 326.535ZM820.13 323.02C815.158 330.341 813.25 339.315 814.815 348.023C815.024 349.667 815.824 351.178 817.066 352.276C818.144 352.276 818.692 351.614 819.373 350.386C821.645 346.205 822.897 341.548 823.028 336.793C823.16 332.038 822.167 327.319 820.13 323.02Z" fill="#3080E3"/>
</g>
<defs>
<linearGradient id="paint0_linear_8_436" x1="562.01" y1="18.7666" x2="674.209" y2="274.535" gradientUnits="userSpaceOnUse">
<stop stop-color="white" stop-opacity="0"/>
<stop offset="0.95" stop-color="white"/>
</linearGradient>
<linearGradient id="paint1_linear_8_436" x1="393.56" y1="370.821" x2="745.498" y2="402.169" gradientUnits="userSpaceOnUse">
<stop stop-color="white" stop-opacity="0"/>
<stop offset="0.95" stop-color="white"/>
</linearGradient>
<linearGradient id="paint2_linear_8_436" x1="1023.83" y1="413.943" x2="891.05" y2="381.539" gradientUnits="userSpaceOnUse">
<stop stop-color="white" stop-opacity="0"/>
<stop offset="0.95" stop-color="white"/>
</linearGradient>
<linearGradient id="paint3_linear_8_436" x1="512.607" y1="426.34" x2="538.112" y2="386.218" gradientUnits="userSpaceOnUse">
<stop stop-color="#010101" stop-opacity="0"/>
<stop offset="0.47" stop-color="#010101" stop-opacity="0.47"/>
<stop offset="0.95" stop-color="#010101"/>
</linearGradient>
<linearGradient id="paint4_linear_8_436" x1="543.513" y1="481.676" x2="560.838" y2="481.676" gradientUnits="userSpaceOnUse">
<stop stop-color="#010101" stop-opacity="0"/>
<stop offset="0.47" stop-color="#010101" stop-opacity="0.47"/>
<stop offset="0.95" stop-color="#010101"/>
</linearGradient>
<linearGradient id="paint5_linear_8_436" x1="400.806" y1="479.257" x2="418.132" y2="479.257" gradientUnits="userSpaceOnUse">
<stop stop-color="#010101" stop-opacity="0"/>
<stop offset="0.47" stop-color="#010101" stop-opacity="0.47"/>
<stop offset="0.95" stop-color="#010101"/>
</linearGradient>
<linearGradient id="paint6_linear_8_436" x1="372.662" y1="430.158" x2="415.191" y2="366.324" gradientUnits="userSpaceOnUse">
<stop stop-color="#010101" stop-opacity="0"/>
<stop offset="0.47" stop-color="#010101" stop-opacity="0.47"/>
<stop offset="0.95" stop-color="#010101"/>
</linearGradient>
<linearGradient id="paint7_linear_8_436" x1="301.924" y1="369.908" x2="298.732" y2="358.964" gradientUnits="userSpaceOnUse">
<stop stop-color="#010101" stop-opacity="0"/>
<stop offset="0.47" stop-color="#010101" stop-opacity="0.47"/>
<stop offset="0.95" stop-color="#010101"/>
</linearGradient>
<linearGradient id="paint8_linear_8_436" x1="417.47" y1="369.908" x2="414.278" y2="358.964" gradientUnits="userSpaceOnUse">
<stop stop-color="#010101" stop-opacity="0"/>
<stop offset="0.47" stop-color="#010101" stop-opacity="0.47"/>
<stop offset="0.95" stop-color="#010101"/>
</linearGradient>
<linearGradient id="paint9_linear_8_436" x1="559.779" y1="369.908" x2="556.587" y2="358.964" gradientUnits="userSpaceOnUse">
<stop stop-color="#010101" stop-opacity="0"/>
<stop offset="0.47" stop-color="#010101" stop-opacity="0.47"/>
<stop offset="0.95" stop-color="#010101"/>
</linearGradient>
<linearGradient id="paint10_linear_8_436" x1="158.953" y1="537.22" x2="163.825" y2="344.395" gradientUnits="userSpaceOnUse">
<stop stop-color="#010101" stop-opacity="0"/>
<stop offset="0.47" stop-color="#010101" stop-opacity="0.47"/>
<stop offset="0.95" stop-color="#010101"/>
</linearGradient>
<linearGradient id="paint11_linear_8_436" x1="607.574" y1="544.818" x2="612.446" y2="351.992" gradientUnits="userSpaceOnUse">
<stop stop-color="#010101" stop-opacity="0"/>
<stop offset="0.47" stop-color="#010101" stop-opacity="0.47"/>
<stop offset="0.95" stop-color="#010101"/>
</linearGradient>
<linearGradient id="paint12_linear_8_436" x1="259.027" y1="256.968" x2="433.912" y2="874.412" gradientUnits="userSpaceOnUse">
<stop stop-color="#010101" stop-opacity="0"/>
<stop offset="0.47" stop-color="#010101" stop-opacity="0.47"/>
<stop offset="0.95" stop-color="#010101"/>
</linearGradient>
<linearGradient id="paint13_linear_8_436" x1="249.343" y1="434.996" x2="276.26" y2="375.222" gradientUnits="userSpaceOnUse">
<stop stop-color="#010101" stop-opacity="0"/>
<stop offset="0.47" stop-color="#010101" stop-opacity="0.47"/>
<stop offset="0.95" stop-color="#010101"/>
</linearGradient>
<linearGradient id="paint14_linear_8_436" x1="215.147" y1="331.487" x2="197.997" y2="383.354" gradientUnits="userSpaceOnUse">
<stop stop-color="#010101" stop-opacity="0"/>
<stop offset="0.47" stop-color="#010101" stop-opacity="0.47"/>
<stop offset="0.95" stop-color="#010101"/>
</linearGradient>
<linearGradient id="paint15_linear_8_436" x1="337.577" y1="331.487" x2="320.447" y2="383.354" gradientUnits="userSpaceOnUse">
<stop stop-color="#010101" stop-opacity="0"/>
<stop offset="0.47" stop-color="#010101" stop-opacity="0.47"/>
<stop offset="0.95" stop-color="#010101"/>
</linearGradient>
<linearGradient id="paint16_linear_8_436" x1="473.474" y1="331.487" x2="456.325" y2="383.354" gradientUnits="userSpaceOnUse">
<stop stop-color="#010101" stop-opacity="0"/>
<stop offset="0.47" stop-color="#010101" stop-opacity="0.47"/>
<stop offset="0.95" stop-color="#010101"/>
</linearGradient>
<linearGradient id="paint17_linear_8_436" x1="198.105" y1="385.273" x2="173.374" y2="372.292" gradientUnits="userSpaceOnUse">
<stop stop-color="#010101" stop-opacity="0"/>
<stop offset="0.47" stop-color="#010101" stop-opacity="0.47"/>
<stop offset="0.95" stop-color="#010101"/>
</linearGradient>
<linearGradient id="paint18_linear_8_436" x1="217.643" y1="385.859" x2="302.983" y2="385.859" gradientUnits="userSpaceOnUse">
<stop stop-color="#010101" stop-opacity="0"/>
<stop offset="0.47" stop-color="#010101" stop-opacity="0.47"/>
<stop offset="0.95" stop-color="#010101"/>
</linearGradient>
<linearGradient id="paint19_linear_8_436" x1="407.162" y1="289.342" x2="366.275" y2="461.942" gradientUnits="userSpaceOnUse">
<stop stop-color="#010101" stop-opacity="0"/>
<stop offset="0.47" stop-color="#010101" stop-opacity="0.47"/>
<stop offset="0.95" stop-color="#010101"/>
</linearGradient>
<linearGradient id="paint20_linear_8_436" x1="551.759" y1="293.746" x2="428.365" y2="392.286" gradientUnits="userSpaceOnUse">
<stop stop-color="#010101" stop-opacity="0"/>
<stop offset="0.47" stop-color="#010101" stop-opacity="0.47"/>
<stop offset="0.95" stop-color="#010101"/>
</linearGradient>
<linearGradient id="paint21_linear_8_436" x1="344.783" y1="383.005" x2="430.123" y2="383.005" gradientUnits="userSpaceOnUse">
<stop stop-color="#010101" stop-opacity="0"/>
<stop offset="0.47" stop-color="#010101" stop-opacity="0.47"/>
<stop offset="0.95" stop-color="#010101"/>
</linearGradient>
<linearGradient id="paint22_linear_8_436" x1="481.607" y1="383.005" x2="566.966" y2="383.005" gradientUnits="userSpaceOnUse">
<stop stop-color="#010101" stop-opacity="0"/>
<stop offset="0.47" stop-color="#010101" stop-opacity="0.47"/>
<stop offset="0.95" stop-color="#010101"/>
</linearGradient>
<linearGradient id="paint23_linear_8_436" x1="242.269" y1="465.102" x2="274.215" y2="465.102" gradientUnits="userSpaceOnUse">
<stop stop-color="#010101" stop-opacity="0"/>
<stop offset="0.47" stop-color="#010101" stop-opacity="0.47"/>
<stop offset="0.95" stop-color="#010101"/>
</linearGradient>
<linearGradient id="paint24_linear_8_436" x1="365.116" y1="465.102" x2="397.061" y2="465.102" gradientUnits="userSpaceOnUse">
<stop stop-color="#010101" stop-opacity="0"/>
<stop offset="0.47" stop-color="#010101" stop-opacity="0.47"/>
<stop offset="0.95" stop-color="#010101"/>
</linearGradient>
<linearGradient id="paint25_linear_8_436" x1="505.287" y1="465.102" x2="537.233" y2="465.102" gradientUnits="userSpaceOnUse">
<stop stop-color="#010101" stop-opacity="0"/>
<stop offset="0.47" stop-color="#010101" stop-opacity="0.47"/>
<stop offset="0.95" stop-color="#010101"/>
</linearGradient>
<linearGradient id="paint26_linear_8_436" x1="229.616" y1="449.775" x2="246.941" y2="449.775" gradientUnits="userSpaceOnUse">
<stop stop-color="#010101" stop-opacity="0"/>
<stop offset="0.47" stop-color="#010101" stop-opacity="0.47"/>
<stop offset="0.95" stop-color="#010101"/>
</linearGradient>
<linearGradient id="paint27_linear_8_436" x1="277.657" y1="480.769" x2="294.983" y2="480.769" gradientUnits="userSpaceOnUse">
<stop stop-color="#010101" stop-opacity="0"/>
<stop offset="0.47" stop-color="#010101" stop-opacity="0.47"/>
<stop offset="0.95" stop-color="#010101"/>
</linearGradient>
<linearGradient id="paint28_linear_8_436" x1="352.765" y1="448.263" x2="370.09" y2="448.263" gradientUnits="userSpaceOnUse">
<stop stop-color="#010101" stop-opacity="0"/>
<stop offset="0.47" stop-color="#010101" stop-opacity="0.47"/>
<stop offset="0.95" stop-color="#010101"/>
</linearGradient>
<linearGradient id="paint29_linear_8_436" x1="495.471" y1="450.682" x2="512.796" y2="450.682" gradientUnits="userSpaceOnUse">
<stop stop-color="#010101" stop-opacity="0"/>
<stop offset="0.47" stop-color="#010101" stop-opacity="0.47"/>
<stop offset="0.95" stop-color="#010101"/>
</linearGradient>
<linearGradient id="paint30_linear_8_436" x1="641.071" y1="322.585" x2="875.546" y2="307.518" gradientUnits="userSpaceOnUse">
<stop stop-color="white" stop-opacity="0"/>
<stop offset="0.95" stop-color="white"/>
</linearGradient>
<linearGradient id="paint31_linear_8_436" x1="800.138" y1="431.103" x2="798.835" y2="504.317" gradientUnits="userSpaceOnUse">
<stop stop-color="#010101" stop-opacity="0"/>
<stop offset="0.47" stop-color="#010101" stop-opacity="0.47"/>
<stop offset="0.95" stop-color="#010101"/>
</linearGradient>
<linearGradient id="paint32_linear_8_436" x1="802.861" y1="468.466" x2="784.166" y2="595.32" gradientUnits="userSpaceOnUse">
<stop stop-color="#010101" stop-opacity="0"/>
<stop offset="0.47" stop-color="#010101" stop-opacity="0.47"/>
<stop offset="0.95" stop-color="#010101"/>
</linearGradient>
<linearGradient id="paint33_linear_8_436" x1="801.915" y1="458.847" x2="785.26" y2="590.821" gradientUnits="userSpaceOnUse">
<stop stop-color="#010101" stop-opacity="0"/>
<stop offset="0.47" stop-color="#010101" stop-opacity="0.47"/>
<stop offset="0.95" stop-color="#010101"/>
</linearGradient>
<clipPath id="clip0_8_436">
<rect width="1038" height="564" fill="white"/>
</clipPath>
</defs>
</svg>
