<svg width="880" height="478" viewBox="0 0 880 478" fill="none" xmlns="http://www.w3.org/2000/svg">
<g clip-path="url(#clip0_8_436)">
<path opacity="0.24" d="M845.541 413.963C842.863 416.734 840.105 419.393 837.171 421.972C833.904 424.819 830.489 427.492 826.94 429.981C795.287 452.949 755.761 463.617 716.956 469.655C656.617 478.977 595.267 478.368 534.27 477.776C392.585 476.366 250.894 474.765 109.198 472.971C72.4942 472.41 29.0233 468.037 10.2464 437.06C9.84594 436.46 9.47665 435.84 9.13995 435.202C-27.5802 369.243 55.6093 311.55 90.1327 270.93C112.582 244.646 113.832 207.182 120.599 173.354C130.028 126.52 152.958 81.3031 190.271 51.3991C227.585 21.495 280.067 9.00163 324.965 25.5153C356.217 36.9996 382.691 61.4738 415.707 66.247C435.558 69.13 455.57 64.437 475.341 60.9132C562.748 45.2004 663.864 56.1081 722.071 123.092C743.494 147.726 757.461 178.079 779.236 202.297C804.652 230.503 840.682 250.845 862.105 280.781C867.475 288.116 871.793 296.165 874.933 304.694C888.483 342.158 873.41 385.052 845.541 413.963Z" fill="#A1CFF1"/>
<path d="M598.057 202.265L403.617 65.2219L563.999 0L639.219 174.379L598.057 202.265Z" fill="url(#paint0_linear_8_436)"/>
<path d="M611.767 322.938L386.138 391.587L356.778 281.646L601.841 265.58L611.767 322.938Z" fill="url(#paint1_linear_8_436)"/>
<path d="M845.541 413.963L750.822 328.592L752.281 278.795L862.121 280.765C867.491 288.1 871.809 296.149 874.949 304.678C888.482 342.158 873.41 385.052 845.541 413.963Z" fill="url(#paint2_linear_8_436)"/>
<path opacity="0.43" d="M826.94 429.917C795.287 452.885 755.761 463.553 716.956 469.591C656.617 478.913 595.267 478.304 534.27 477.712C392.585 476.302 250.894 474.7 109.198 472.907C72.4942 472.346 29.0233 467.973 10.2464 436.996H10.5991C29.1516 434.337 47.8003 432.976 66.449 431.71C309.096 414.9 552.515 412.162 795.48 423.51C806.239 423.926 817.864 424.935 826.94 429.917Z" fill="#3080E3"/>
<path opacity="0.45" d="M56.8761 443.916C58.6399 449.842 66.1764 451.428 72.3499 451.924C110.257 454.967 148.249 456.356 186.327 456.089C196.3 456.008 206.499 455.784 215.799 452.212C222.052 449.81 227.697 445.966 234.095 443.996C240.493 442.025 247.66 442.042 254.523 442.138L438.926 444.508C443.705 444.373 448.482 444.831 453.149 445.87C459.162 447.471 464.485 450.915 470.178 453.398C484.722 459.805 501.222 459.644 517.048 458.491C542.954 456.639 568.628 452.349 593.727 445.677C575.149 442.535 556.414 440.396 537.605 439.271C430.571 431.39 323.137 431.262 215.815 431.102C186.952 431.102 157.929 431.102 129.226 434.706C104.58 437.733 80.9125 435.298 56.8761 443.916Z" fill="#3080E3"/>
<path d="M276.764 302.772L268.859 321.48H275.561L283.467 303.285L276.764 302.772Z" fill="#3080E3"/>
<path d="M391.222 302.5L383.316 321.224H390.019L397.924 303.029L391.222 302.5Z" fill="#3080E3"/>
<path d="M474.684 302.836C467.707 309.893 460.005 316.196 451.706 321.641C448.499 323.723 445.019 326.029 444.073 329.649C443.63 332.252 443.971 334.928 445.051 337.337C450.182 351.561 459.915 363.621 466.891 377.044C467.12 377.395 467.233 377.81 467.211 378.229C467.061 378.706 466.734 379.107 466.297 379.35L461.695 382.746C449.942 373.856 440.85 362.004 432.143 350.071C426.178 341.838 420.133 332.869 419.652 322.714C419.388 320.087 419.779 317.436 420.789 314.996C421.799 312.557 423.397 310.404 425.44 308.731C428.219 306.217 431.497 304.318 435.061 303.157C440.593 301.363 446.542 301.427 452.363 301.555C458.777 301.651 465.881 302.084 470.178 306.793" fill="#606161"/>
<path d="M474.684 302.836C467.707 309.893 460.005 316.196 451.706 321.641C448.499 323.723 445.019 326.029 444.073 329.649C443.63 332.252 443.971 334.928 445.051 337.337C450.182 351.561 459.915 363.621 466.891 377.044C467.12 377.395 467.233 377.81 467.211 378.229C467.061 378.706 466.734 379.107 466.297 379.35L461.695 382.746C449.942 373.856 440.85 362.004 432.143 350.071C426.178 341.838 420.133 332.869 419.652 322.714C419.388 320.087 419.779 317.436 420.789 314.996C421.799 312.557 423.397 310.404 425.44 308.731C428.219 306.217 431.497 304.318 435.061 303.157C440.593 301.363 446.542 301.427 452.363 301.555C458.777 301.651 465.881 302.084 470.178 306.793" fill="url(#paint3_linear_8_436)"/>
<path d="M462.529 388.768C462.744 389.681 462.793 390.625 462.673 391.555C462.439 392.52 462.038 393.436 461.487 394.262C460.09 396.693 458.878 399.226 457.863 401.838C457.529 402.474 457.449 403.212 457.638 403.905C458.087 404.994 459.595 405.09 460.765 404.898C464.198 404.348 467.423 402.9 470.114 400.701C470.641 400.324 471.075 399.831 471.38 399.26C471.62 398.687 471.74 398.071 471.733 397.45C471.909 392.126 470.206 386.91 466.923 382.714C466.616 382.251 466.189 381.88 465.688 381.641C464.389 381.128 462.481 382.458 461.984 383.675C461.487 384.892 462.273 387.311 462.529 388.768Z" fill="#606161"/>
<path d="M464.117 410.119C464.117 410.119 452.604 396.024 451.481 396.152C450.359 396.28 448.899 398.315 448.899 398.315L462 410.632L464.117 410.119Z" fill="#606161"/>
<path d="M460.781 407.525L462.978 414.092L475.469 408.293L473.673 402.367L460.781 407.525Z" fill="#3080E3"/>
<path d="M460.781 407.525L462.978 414.092L475.469 408.293L473.673 402.367L460.781 407.525Z" fill="url(#paint4_linear_8_436)"/>
<path d="M343.133 408.069C343.133 408.069 331.62 393.974 330.497 394.102C329.375 394.23 327.915 396.248 327.915 396.248L341 408.566L343.133 408.069Z" fill="#606161"/>
<path d="M339.797 405.458L341.994 412.025L354.485 406.243L352.689 400.317L339.797 405.458Z" fill="#3080E3"/>
<path d="M339.797 405.458L341.994 412.025L354.485 406.243L352.689 400.317L339.797 405.458Z" fill="url(#paint5_linear_8_436)"/>
<path d="M238.729 409.35C238.729 409.35 227.216 395.255 226.093 395.384C224.971 395.512 223.512 397.546 223.512 397.546L236.596 409.863L238.729 409.35Z" fill="#606161"/>
<path d="M358.671 302.836C351.7 309.9 343.998 316.204 335.692 321.641C332.485 323.723 329.006 326.029 328.06 329.649C327.614 332.253 327.961 334.931 329.054 337.337C334.185 351.561 343.918 363.621 350.894 377.044C351.126 377.393 351.234 377.811 351.198 378.229C351.049 378.702 350.729 379.102 350.3 379.35L345.698 382.746C333.929 373.856 324.853 362.004 316.146 350.071C310.165 341.838 304.136 332.869 303.638 322.714C303.377 320.086 303.77 317.434 304.783 314.994C305.796 312.554 307.396 310.403 309.443 308.731C312.217 306.211 315.497 304.311 319.064 303.157C324.596 301.363 330.529 301.427 336.35 301.555C342.764 301.651 349.883 302.084 354.165 306.793" fill="#606161"/>
<path d="M358.671 302.836C351.7 309.9 343.998 316.204 335.692 321.641C332.485 323.723 329.006 326.029 328.06 329.649C327.614 332.253 327.961 334.931 329.054 337.337C334.185 351.561 343.918 363.621 350.894 377.044C351.126 377.393 351.234 377.811 351.198 378.229C351.049 378.702 350.729 379.102 350.3 379.35L345.698 382.746C333.929 373.856 324.853 362.004 316.146 350.071C310.165 341.838 304.136 332.869 303.638 322.714C303.377 320.086 303.77 317.434 304.783 314.994C305.796 312.554 307.396 310.403 309.443 308.731C312.217 306.211 315.497 304.311 319.064 303.157C324.596 301.363 330.529 301.427 336.35 301.555C342.764 301.651 349.883 302.084 354.165 306.793" fill="url(#paint6_linear_8_436)"/>
<path d="M347.045 387.055C347.26 387.967 347.309 388.911 347.19 389.842C346.947 390.781 346.552 391.674 346.019 392.484C344.619 394.913 343.407 397.446 342.395 400.061C342.058 400.689 341.972 401.422 342.155 402.111C342.62 403.216 344.127 403.312 345.362 403.12C348.794 402.57 352.019 401.122 354.71 398.923C355.238 398.546 355.671 398.053 355.977 397.482C356.217 396.909 356.332 396.292 356.313 395.672C356.491 390.348 354.788 385.132 351.503 380.936C351.189 380.47 350.758 380.094 350.252 379.847C348.953 379.334 347.045 380.68 346.564 381.897C346.083 383.114 346.789 385.597 347.045 387.055Z" fill="#606161"/>
<path d="M250.98 312.19L247.949 320.808C247.949 320.808 250.21 322.746 251.557 321.977C252.904 321.208 256.367 312.367 256.367 312.367L250.98 312.19Z" fill="#3080E3"/>
<path d="M243.748 306.632C242.465 307.161 241.038 307.93 240.781 309.291C240.723 309.879 240.829 310.471 241.086 311.002C241.344 311.534 241.743 311.984 242.241 312.302C244.582 314.096 247.821 313.904 250.771 313.696C253.032 313.568 255.293 313.568 257.554 313.696C259.234 313.856 260.925 313.856 262.605 313.696C264.293 313.508 265.86 312.731 267.031 311.502C267.758 310.61 268.191 309.516 268.272 308.369C268.352 307.222 268.075 306.079 267.48 305.095C265.972 302.692 262.813 302.036 260.168 302.372C256.584 302.835 253.048 303.612 249.601 304.694C247.628 305.143 245.672 305.848 243.748 306.632Z" fill="#606161"/>
<path d="M243.748 306.632C242.465 307.161 241.038 307.93 240.781 309.291C240.723 309.879 240.829 310.471 241.086 311.002C241.344 311.534 241.743 311.984 242.241 312.302C244.582 314.096 247.821 313.904 250.771 313.696C253.032 313.568 255.293 313.568 257.554 313.696C259.234 313.856 260.925 313.856 262.605 313.696C264.293 313.508 265.86 312.731 267.031 311.502C267.758 310.61 268.191 309.516 268.272 308.369C268.352 307.222 268.075 306.079 267.48 305.095C265.972 302.692 262.813 302.036 260.168 302.372C256.584 302.835 253.048 303.612 249.601 304.694C247.628 305.143 245.672 305.848 243.748 306.632Z" fill="url(#paint7_linear_8_436)"/>
<path d="M348.937 312.19L345.907 320.808C345.907 320.808 348.168 322.746 349.531 321.977C350.894 321.208 354.341 312.367 354.341 312.367L348.937 312.19Z" fill="#3080E3"/>
<path d="M341.706 306.632C340.423 307.161 338.996 307.93 338.739 309.291C338.681 309.879 338.786 310.471 339.044 311.002C339.301 311.534 339.701 311.984 340.198 312.302C342.539 314.096 345.778 313.904 348.729 313.696C350.99 313.568 353.251 313.568 355.512 313.696C357.192 313.856 358.883 313.856 360.563 313.696C362.25 313.508 363.818 312.731 364.988 311.502C365.716 310.61 366.149 309.516 366.229 308.369C366.31 307.222 366.033 306.079 365.437 305.095C363.93 302.692 360.771 302.036 358.141 302.372C354.583 302.796 351.069 303.53 347.639 304.566C345.586 305.143 343.63 305.848 341.706 306.632Z" fill="#606161"/>
<path d="M341.706 306.632C340.423 307.161 338.996 307.93 338.739 309.291C338.681 309.879 338.786 310.471 339.044 311.002C339.301 311.534 339.701 311.984 340.198 312.302C342.539 314.096 345.778 313.904 348.729 313.696C350.99 313.568 353.251 313.568 355.512 313.696C357.192 313.856 358.883 313.856 360.563 313.696C362.25 313.508 363.818 312.731 364.988 311.502C365.716 310.61 366.149 309.516 366.229 308.369C366.31 307.222 366.033 306.079 365.437 305.095C363.93 302.692 360.771 302.036 358.141 302.372C354.583 302.796 351.069 303.53 347.639 304.566C345.586 305.143 343.63 305.848 341.706 306.632Z" fill="url(#paint8_linear_8_436)"/>
<path d="M469.584 312.19L466.554 320.808C466.554 320.808 468.815 322.746 470.162 321.977C471.509 321.208 474.972 312.367 474.972 312.367L469.584 312.19Z" fill="#3080E3"/>
<path d="M462.353 306.632C461.07 307.161 459.643 307.93 459.386 309.291C459.326 309.877 459.43 310.468 459.684 311C459.939 311.531 460.335 311.982 460.829 312.302C463.187 314.096 466.426 313.904 469.376 313.696C471.637 313.568 473.898 313.568 476.159 313.696C477.839 313.856 479.53 313.856 481.21 313.696C482.898 313.508 484.465 312.731 485.636 311.502C486.363 310.61 486.796 309.516 486.877 308.369C486.957 307.222 486.68 306.079 486.085 305.095C484.577 302.692 481.418 302.036 478.773 302.372C475.189 302.835 471.653 303.612 468.206 304.694C466.297 305.143 464.277 305.848 462.353 306.632Z" fill="#606161"/>
<path d="M462.353 306.632C461.07 307.161 459.643 307.93 459.386 309.291C459.326 309.877 459.43 310.468 459.684 311C459.939 311.531 460.335 311.982 460.829 312.302C463.187 314.096 466.426 313.904 469.376 313.696C471.637 313.568 473.898 313.568 476.159 313.696C477.839 313.856 479.53 313.856 481.21 313.696C482.898 313.508 484.465 312.731 485.636 311.502C486.363 310.61 486.796 309.516 486.877 308.369C486.957 307.222 486.68 306.079 486.085 305.095C484.577 302.692 481.418 302.036 478.773 302.372C475.189 302.835 471.653 303.612 468.206 304.694C466.297 305.143 464.277 305.848 462.353 306.632Z" fill="url(#paint9_linear_8_436)"/>
<path d="M136.362 444.7C125.983 444.691 115.84 441.608 107.215 435.841C98.5905 430.074 91.8712 421.882 87.9068 412.301C83.9424 402.72 82.9108 392.18 84.9426 382.013C86.9744 371.847 91.9782 362.51 99.3216 355.184C106.665 347.858 116.018 342.871 126.198 340.854C136.379 338.837 146.929 339.88 156.516 343.852C166.103 347.824 174.296 354.545 180.058 363.167C185.821 371.79 188.895 381.925 188.892 392.292C188.875 406.198 183.333 419.528 173.484 429.354C163.634 439.181 150.282 444.7 136.362 444.7V444.7ZM136.362 347.188C127.43 347.185 118.698 349.827 111.271 354.782C103.843 359.736 98.0528 366.779 94.6328 375.02C91.2127 383.262 90.3162 392.331 92.0566 401.082C93.7971 409.832 98.0964 417.871 104.411 424.18C110.725 430.49 118.771 434.787 127.53 436.529C136.29 438.27 145.37 437.378 153.622 433.965C161.874 430.551 168.927 424.77 173.889 417.352C178.851 409.935 181.5 401.214 181.5 392.292C181.483 380.338 176.722 368.878 168.261 360.423C159.801 351.968 148.329 347.209 136.362 347.188V347.188Z" fill="#606161"/>
<path d="M516.84 444.7C506.459 444.7 496.311 441.625 487.68 435.864C479.049 430.103 472.322 421.915 468.351 412.334C464.379 402.754 463.34 392.213 465.367 382.043C467.393 371.873 472.393 362.532 479.735 355.201C487.076 347.87 496.429 342.878 506.611 340.857C516.792 338.836 527.345 339.877 536.935 343.847C546.525 347.818 554.72 354.539 560.485 363.163C566.25 371.786 569.325 381.923 569.322 392.292C569.305 406.189 563.77 419.512 553.931 429.337C544.091 439.163 530.752 444.688 516.84 444.7V444.7ZM516.84 347.188C507.909 347.188 499.179 349.833 491.753 354.789C484.327 359.745 478.54 366.79 475.122 375.032C471.705 383.273 470.81 392.342 472.553 401.092C474.295 409.841 478.596 417.878 484.911 424.186C491.226 430.494 499.271 434.79 508.03 436.53C516.789 438.27 525.869 437.377 534.119 433.963C542.37 430.549 549.423 424.768 554.384 417.351C559.346 409.933 561.994 401.213 561.994 392.292C561.981 380.334 557.22 368.869 548.755 360.413C540.289 351.957 528.811 347.201 516.84 347.188Z" fill="#606161"/>
<path d="M136.362 444.7C125.983 444.691 115.84 441.608 107.215 435.841C98.5905 430.074 91.8712 421.882 87.9068 412.301C83.9424 402.72 82.9108 392.18 84.9426 382.013C86.9744 371.847 91.9782 362.51 99.3216 355.184C106.665 347.858 116.018 342.871 126.198 340.854C136.379 338.837 146.929 339.88 156.516 343.852C166.103 347.824 174.296 354.545 180.058 363.167C185.821 371.79 188.895 381.925 188.892 392.292C188.875 406.198 183.333 419.528 173.484 429.354C163.634 439.181 150.282 444.7 136.362 444.7V444.7ZM136.362 347.188C127.43 347.185 118.698 349.827 111.271 354.782C103.843 359.736 98.0528 366.779 94.6328 375.02C91.2127 383.262 90.3162 392.331 92.0566 401.082C93.7971 409.832 98.0964 417.871 104.411 424.18C110.725 430.49 118.771 434.787 127.53 436.529C136.29 438.27 145.37 437.378 153.622 433.965C161.874 430.551 168.927 424.77 173.889 417.352C178.851 409.935 181.5 401.214 181.5 392.292C181.483 380.338 176.722 368.878 168.261 360.423C159.801 351.968 148.329 347.209 136.362 347.188V347.188Z" fill="url(#paint10_linear_8_436)"/>
<path d="M516.84 444.7C506.459 444.7 496.311 441.625 487.68 435.864C479.049 430.103 472.322 421.915 468.351 412.334C464.379 402.754 463.34 392.213 465.367 382.043C467.393 371.873 472.393 362.532 479.735 355.201C487.076 347.87 496.429 342.878 506.611 340.857C516.792 338.836 527.345 339.877 536.935 343.847C546.525 347.818 554.72 354.539 560.485 363.163C566.25 371.786 569.325 381.923 569.322 392.292C569.305 406.189 563.77 419.512 553.931 429.337C544.091 439.163 530.752 444.688 516.84 444.7V444.7ZM516.84 347.188C507.909 347.188 499.179 349.833 491.753 354.789C484.327 359.745 478.54 366.79 475.122 375.032C471.705 383.273 470.81 392.342 472.553 401.092C474.295 409.841 478.596 417.878 484.911 424.186C491.226 430.494 499.271 434.79 508.03 436.53C516.789 438.27 525.869 437.377 534.119 433.963C542.37 430.549 549.423 424.768 554.384 417.351C559.346 409.933 561.994 401.213 561.994 392.292C561.981 380.334 557.22 368.869 548.755 360.413C540.289 351.957 528.811 347.201 516.84 347.188Z" fill="url(#paint11_linear_8_436)"/>
<path d="M196.204 253.311C190.111 259.414 181.211 261.48 173.37 265.068C170.308 266.477 167.149 268.383 165.882 271.475C165.337 273.015 165.102 274.648 165.192 276.28C165.08 276.694 165.072 277.129 165.172 277.546C165.271 277.964 165.474 278.349 165.761 278.668C166.048 278.987 166.411 279.229 166.816 279.371C167.221 279.513 167.655 279.552 168.079 279.483C176.558 279.593 185.003 278.382 193.109 275.896C202.009 273.173 210.748 268.624 216.104 261C217.275 259.417 218.14 257.63 218.653 255.73C219.03 253.762 219.127 251.751 218.942 249.756C218.921 245.789 218.469 241.836 217.595 237.967C216.825 235.1 215.206 230.487 212.496 228.853C209.786 227.219 207.541 233.274 206.515 235.26C203.452 241.555 201.159 248.346 196.204 253.311Z" fill="#3080E3"/>
<path d="M226.767 211.843C226.767 211.843 226.911 217.977 226.767 222.462C226.767 225.81 225.564 232.233 218.429 232.233C211.293 232.233 210.411 224.048 210.587 222.462C210.398 220.09 210.398 217.707 210.587 215.335C211.133 211.426 226.382 209.12 226.767 211.843Z" fill="#F0CAC5"/>
<path d="M226.879 221.902C227.39 221.691 227.962 221.68 228.481 221.87C229.001 222.059 229.43 222.437 229.685 222.927C230.759 224.721 230.824 228.309 229.685 233.21C229.349 235.367 228.638 237.448 227.585 239.36C227.585 239.36 222.918 232.761 219.567 232.489C219.631 232.489 226.109 231.224 226.879 221.902Z" fill="#F1FCFF"/>
<path d="M205.216 190.204C205.216 190.204 206.996 195.666 205.344 198.212C199.219 207.823 202.714 206.83 204.991 207.038C205.28 207.038 204.879 208.896 205.697 212.42C206.354 215.207 204.398 221.533 212.977 218.826C215.43 218.074 227.328 214.726 228.178 207.358C229.236 198.148 234.897 186.536 223.736 182.596C210.363 178.031 206.001 181.651 205.216 190.204Z" fill="#F0CAC5"/>
<path d="M211.341 177.406C211.341 177.406 205.216 177.838 203.115 180.161C200.534 183.028 200.069 186.199 202.778 188.762C205.488 191.325 212.592 188.89 217.547 191.966C222.501 195.041 217.226 202.889 219.695 204.571C222.165 206.253 220.69 201.192 223.961 199.91C227.232 198.629 228.563 204.123 225.131 208.175C221.7 212.227 224.923 214.822 227.152 215.495C229.38 216.168 234.784 197.876 234.335 191.181C233.886 184.486 230.583 184.598 230.583 184.598C230.583 184.598 230.439 174.139 211.341 177.406Z" fill="#606161"/>
<path d="M210.491 219.499C210.491 219.499 219.198 216.296 223.127 214.486C223.127 214.486 214.949 222.254 210.716 222.206L210.491 219.499Z" fill="#E3B3AF"/>
<path d="M205.12 207.614C205.12 207.614 211.534 208.079 215.238 205.756C218.942 203.434 220.738 201.976 221.171 204.331C221.604 206.685 223.271 210.642 221.603 213.445C219.936 216.248 211.085 222.767 208.776 221.069C206.466 219.371 204.927 217.321 205.328 214.95C205.518 212.504 205.448 210.045 205.12 207.614V207.614Z" fill="#606161"/>
<path d="M206.29 210.658C206.29 210.658 207.525 212.131 210.491 210.658C213.458 209.184 213.891 206.894 215.302 209.184C216.713 211.475 213.49 216.007 209.706 216.136C205.921 216.264 206.531 213.669 206.29 210.658Z" fill="#F0CAC5"/>
<path d="M220.754 224.785C220.372 226.263 219.653 227.634 218.653 228.789C217.05 230.487 214.468 230.951 212.56 232.329C206.915 236.445 210.411 246.2 211.389 251.758C212.97 259.447 214.041 267.232 214.596 275.063C214.773 279.66 214.596 284.369 216.023 288.725C217.031 291.492 218.598 294.024 220.625 296.162C222.652 298.3 225.097 299.999 227.809 301.155C233.247 303.414 239.225 304.043 245.015 302.965C249.12 302.486 252.958 300.687 255.95 297.839C258.594 294.686 260.101 290.738 260.232 286.627C261.082 275.976 256.913 265.629 252.84 255.746C247.628 243.14 242.305 229.157 231.208 220.508C229.364 219.083 226.943 217.849 224.794 218.682C223.895 219.155 223.108 219.816 222.488 220.621C221.869 221.425 221.43 222.354 221.203 223.343C221.058 223.824 220.962 224.304 220.754 224.785Z" fill="#3080E3"/>
<path d="M220.754 224.785C220.372 226.263 219.653 227.634 218.653 228.789C217.05 230.487 214.468 230.951 212.56 232.329C206.915 236.445 210.411 246.2 211.389 251.758C212.97 259.447 214.041 267.232 214.596 275.063C214.773 279.66 214.596 284.369 216.023 288.725C217.031 291.492 218.598 294.024 220.625 296.162C222.652 298.3 225.097 299.999 227.809 301.155C233.247 303.414 239.225 304.043 245.015 302.965C249.12 302.486 252.958 300.687 255.95 297.839C258.594 294.686 260.101 290.738 260.232 286.627C261.082 275.976 256.913 265.629 252.84 255.746C247.628 243.14 242.305 229.157 231.208 220.508C229.364 219.083 226.943 217.849 224.794 218.682C223.895 219.155 223.108 219.816 222.488 220.621C221.869 221.425 221.43 222.354 221.203 223.343C221.058 223.824 220.962 224.304 220.754 224.785Z" fill="url(#paint12_linear_8_436)"/>
<path d="M250.883 305.271C243.909 312.331 236.207 318.634 227.905 324.075C224.698 326.157 221.219 328.448 220.273 332.084C219.826 334.688 220.172 337.366 221.267 339.772C226.398 354.011 236.131 366.072 243.106 379.494C243.339 379.844 243.446 380.262 243.411 380.68C243.262 381.152 242.942 381.552 242.513 381.801L237.911 385.197C226.141 376.307 217.066 364.454 208.359 352.522C202.378 344.289 196.348 335.319 195.851 325.148C195.59 322.52 195.983 319.868 196.996 317.429C198.008 314.989 199.609 312.837 201.656 311.165C204.435 308.656 207.714 306.762 211.277 305.607C216.809 303.813 222.742 303.877 228.563 304.006C234.977 304.102 242.096 304.518 246.378 309.243" fill="#606161"/>
<path d="M250.883 305.271C243.909 312.331 236.207 318.634 227.905 324.075C224.698 326.157 221.219 328.448 220.273 332.084C219.826 334.688 220.172 337.366 221.267 339.772C226.398 354.011 236.131 366.072 243.106 379.494C243.339 379.844 243.446 380.262 243.411 380.68C243.262 381.152 242.942 381.552 242.513 381.801L237.911 385.197C226.141 376.307 217.066 364.454 208.359 352.522C202.378 344.289 196.348 335.319 195.851 325.148C195.59 322.52 195.983 319.868 196.996 317.429C198.008 314.989 199.609 312.837 201.656 311.165C204.435 308.656 207.714 306.762 211.277 305.607C216.809 303.813 222.742 303.877 228.563 304.006C234.977 304.102 242.096 304.518 246.378 309.243" fill="url(#paint13_linear_8_436)"/>
<path d="M239.242 389.457C239.471 390.368 239.526 391.313 239.402 392.244C239.163 393.179 238.767 394.067 238.232 394.871C236.833 397.309 235.616 399.846 234.592 402.463C234.259 403.093 234.179 403.826 234.367 404.513C234.832 405.618 236.34 405.715 237.574 405.522C241.005 404.965 244.228 403.518 246.923 401.326C247.438 400.935 247.869 400.445 248.19 399.884C248.43 399.312 248.545 398.695 248.526 398.074C248.704 392.751 247.001 387.534 243.716 383.339C243.408 382.867 242.975 382.49 242.465 382.249C241.166 381.737 239.258 383.082 238.777 384.284C238.12 385.773 239.001 388.016 239.242 389.457Z" fill="#606161"/>
<path d="M159.324 281.101C158.866 282.572 158.714 284.12 158.876 285.651C159.039 287.183 159.513 288.665 160.27 290.007C160.662 290.727 161.21 291.35 161.873 291.833C163.352 292.6 165.05 292.838 166.684 292.505C167.043 292.516 167.393 292.39 167.662 292.153C167.8 291.984 167.883 291.777 167.902 291.56C168.223 289.846 167.341 288.037 167.79 286.355C168.367 284.224 170.837 283.039 171.494 280.941C172.376 278.042 169.105 274.118 166.122 274.166C163.14 274.214 160.141 278.49 159.324 281.101Z" fill="#F0CAC5"/>
<path d="M138.751 394.487C138.14 394.49 137.538 394.34 137 394.05C136.462 393.761 136.006 393.34 135.674 392.828C135.342 392.316 135.144 391.728 135.099 391.119C135.053 390.511 135.162 389.901 135.415 389.345L173.226 304.566C173.421 304.128 173.7 303.732 174.048 303.401C174.396 303.07 174.806 302.811 175.254 302.639C175.702 302.466 176.18 302.384 176.66 302.395C177.14 302.407 177.613 302.514 178.052 302.708C178.492 302.903 178.888 303.182 179.219 303.529C179.55 303.877 179.809 304.286 179.982 304.734C180.155 305.182 180.238 305.659 180.226 306.139C180.214 306.618 180.107 307.091 179.913 307.529L142.102 392.42C141.799 393.048 141.323 393.577 140.729 393.943C140.135 394.309 139.449 394.498 138.751 394.487V394.487Z" fill="#3080E3"/>
<path d="M218.685 398.795L164.343 331.139C163.737 330.383 163.456 329.417 163.563 328.454C163.67 327.491 164.155 326.611 164.912 326.005C165.669 325.4 166.636 325.12 167.599 325.226C168.563 325.333 169.445 325.818 170.051 326.574L216.937 384.924L246.442 319.959C246.844 319.075 247.58 318.387 248.49 318.046C249.4 317.705 250.408 317.739 251.292 318.141C252.177 318.542 252.866 319.278 253.207 320.187C253.548 321.096 253.514 322.102 253.112 322.986L218.685 398.795Z" fill="#3080E3"/>
<path d="M218.894 397.658C217.924 397.658 216.994 397.273 216.308 396.588C215.623 395.903 215.238 394.975 215.238 394.006C215.238 393.037 215.623 392.109 216.308 391.424C216.994 390.739 217.924 390.354 218.894 390.354L318.022 390.258L342.587 321.272C342.745 320.817 342.993 320.398 343.315 320.039C343.637 319.68 344.027 319.39 344.463 319.184C344.9 318.978 345.372 318.861 345.854 318.84C346.336 318.819 346.817 318.895 347.27 319.062C348.182 319.391 348.927 320.068 349.342 320.944C349.757 321.821 349.807 322.825 349.483 323.739L323.185 397.578L218.958 397.658H218.894Z" fill="#3080E3"/>
<path d="M321.357 397.658C320.388 397.658 319.458 397.273 318.772 396.588C318.086 395.903 317.701 394.975 317.701 394.006C317.701 393.038 318.086 392.109 318.772 391.424C319.458 390.739 320.388 390.354 321.357 390.354L441.748 390.258L466.297 321.272C466.455 320.819 466.702 320.401 467.023 320.044C467.344 319.687 467.733 319.397 468.167 319.191C468.601 318.985 469.072 318.868 469.552 318.846C470.032 318.824 470.512 318.897 470.964 319.062C471.879 319.388 472.628 320.063 473.046 320.94C473.464 321.817 473.516 322.823 473.192 323.739L446.895 397.578L342.668 397.658H321.357Z" fill="#3080E3"/>
<path d="M346.356 326.157L169.329 324.796C168.4 324.734 167.528 324.322 166.891 323.642C166.254 322.963 165.9 322.067 165.9 321.136C165.9 320.205 166.254 319.309 166.891 318.629C167.528 317.95 168.4 317.538 169.329 317.476V317.476L350.525 318.87L346.356 326.157Z" fill="#3080E3"/>
<path d="M442.245 398.955C441.313 398.91 440.433 398.511 439.785 397.841C439.136 397.171 438.767 396.28 438.753 395.348C438.739 394.416 439.08 393.514 439.708 392.824C440.336 392.135 441.203 391.71 442.133 391.635L505.487 389.601L468.013 327.519L290.987 326.173C290.057 326.112 289.185 325.7 288.549 325.02C287.912 324.34 287.557 323.444 287.557 322.513C287.557 321.583 287.912 320.687 288.549 320.007C289.185 319.327 290.057 318.915 290.987 318.854V318.854L472.182 320.231L518.235 396.521L442.389 398.955H442.245Z" fill="#3080E3"/>
<path d="M185.044 304.566L167.405 302.965L168.047 291.753L163.236 288.549C162.843 288.291 162.505 287.957 162.244 287.566C161.982 287.175 161.802 286.736 161.714 286.275C161.626 285.813 161.631 285.338 161.73 284.879C161.829 284.419 162.02 283.984 162.29 283.6C162.849 282.814 163.693 282.277 164.643 282.104C165.592 281.93 166.572 282.134 167.373 282.671L175.599 288.149L175.166 296.606L180.538 297.07L184.082 289.19L194.152 287.732C195.101 287.584 196.071 287.815 196.851 288.375C197.632 288.936 198.159 289.781 198.321 290.727C198.386 291.196 198.358 291.672 198.239 292.13C198.119 292.587 197.911 293.016 197.625 293.393C197.339 293.769 196.981 294.086 196.572 294.324C196.163 294.562 195.711 294.717 195.242 294.78L189.149 295.661L185.044 304.566Z" fill="#3080E3"/>
<path d="M185.044 304.566L167.405 302.965L168.047 291.753L163.236 288.549C162.843 288.291 162.505 287.957 162.244 287.566C161.982 287.175 161.802 286.736 161.714 286.275C161.626 285.813 161.631 285.338 161.73 284.879C161.829 284.419 162.02 283.984 162.29 283.6C162.849 282.814 163.693 282.277 164.643 282.104C165.592 281.93 166.572 282.134 167.373 282.671L175.599 288.149L175.166 296.606L180.538 297.07L184.082 289.19L194.152 287.732C195.101 287.584 196.071 287.815 196.851 288.375C197.632 288.936 198.159 289.781 198.321 290.727C198.386 291.196 198.358 291.672 198.239 292.13C198.119 292.587 197.911 293.016 197.625 293.393C197.339 293.769 196.981 294.086 196.572 294.324C196.163 294.562 195.711 294.717 195.242 294.78L189.149 295.661L185.044 304.566Z" fill="url(#paint14_linear_8_436)"/>
<path d="M288.854 304.566L271.216 302.965L271.809 291.656L266.999 288.453C266.604 288.196 266.265 287.863 266.002 287.473C265.739 287.083 265.557 286.644 265.467 286.182C265.378 285.72 265.382 285.245 265.479 284.785C265.577 284.325 265.767 283.889 266.036 283.504C266.598 282.717 267.445 282.18 268.397 282.006C269.349 281.833 270.332 282.037 271.136 282.575L279.362 288.053L278.913 296.51L284.3 296.974L287.828 289.142L297.914 287.684C298.862 287.532 299.832 287.762 300.611 288.323C301.39 288.885 301.914 289.732 302.067 290.679C302.135 291.148 302.109 291.625 301.99 292.083C301.871 292.542 301.663 292.972 301.376 293.349C301.09 293.726 300.731 294.042 300.321 294.28C299.911 294.517 299.458 294.671 298.988 294.732L292.911 295.613L288.854 304.566Z" fill="#3080E3"/>
<path d="M288.854 304.566L271.216 302.965L271.809 291.656L266.999 288.453C266.604 288.196 266.265 287.863 266.002 287.473C265.739 287.083 265.557 286.644 265.467 286.182C265.378 285.72 265.382 285.245 265.479 284.785C265.577 284.325 265.767 283.889 266.036 283.504C266.598 282.717 267.445 282.18 268.397 282.006C269.349 281.833 270.332 282.037 271.136 282.575L279.362 288.053L278.913 296.51L284.3 296.974L287.828 289.142L297.914 287.684C298.862 287.532 299.832 287.762 300.611 288.323C301.39 288.885 301.914 289.732 302.067 290.679C302.135 291.148 302.109 291.625 301.99 292.083C301.871 292.542 301.663 292.972 301.376 293.349C301.09 293.726 300.731 294.042 300.321 294.28C299.911 294.517 299.458 294.671 298.988 294.732L292.911 295.613L288.854 304.566Z" fill="url(#paint15_linear_8_436)"/>
<path d="M404.05 304.566L386.411 302.965L387.004 291.656L382.194 288.453C381.801 288.195 381.463 287.861 381.202 287.47C380.94 287.079 380.76 286.64 380.672 286.178C380.583 285.717 380.589 285.242 380.688 284.783C380.787 284.323 380.977 283.888 381.248 283.504C381.807 282.718 382.651 282.181 383.6 282.008C384.55 281.834 385.529 282.038 386.331 282.575L394.557 288.053L394.14 296.558L399.512 297.022L403.055 289.19L413.125 287.732C414.075 287.584 415.045 287.815 415.825 288.375C416.605 288.936 417.133 289.781 417.294 290.727C417.36 291.196 417.332 291.672 417.213 292.13C417.093 292.587 416.884 293.016 416.598 293.393C416.312 293.769 415.955 294.086 415.546 294.324C415.137 294.562 414.685 294.717 414.216 294.78L408.122 295.661L404.05 304.566Z" fill="#3080E3"/>
<path d="M404.05 304.566L386.411 302.965L387.004 291.656L382.194 288.453C381.801 288.195 381.463 287.861 381.202 287.47C380.94 287.079 380.76 286.64 380.672 286.178C380.583 285.717 380.589 285.242 380.688 284.783C380.787 284.323 380.977 283.888 381.248 283.504C381.807 282.718 382.651 282.181 383.6 282.008C384.55 281.834 385.529 282.038 386.331 282.575L394.557 288.053L394.14 296.558L399.512 297.022L403.055 289.19L413.125 287.732C414.075 287.584 415.045 287.815 415.825 288.375C416.605 288.936 417.133 289.781 417.294 290.727C417.36 291.196 417.332 291.672 417.213 292.13C417.093 292.587 416.884 293.016 416.598 293.393C416.312 293.769 415.955 294.086 415.546 294.324C415.137 294.562 414.685 294.717 414.216 294.78L408.122 295.661L404.05 304.566Z" fill="url(#paint16_linear_8_436)"/>
<path d="M162.162 338.843C161.985 338.843 156.309 337.61 156.133 337.578C155.427 337.433 155.042 336.873 155.299 336.344L166.876 312.078C167.057 311.798 167.321 311.58 167.632 311.457C167.942 311.333 168.283 311.31 168.608 311.39C169.313 311.55 175.166 313.344 174.91 313.872L163.348 338.202C163.217 338.397 163.04 338.556 162.834 338.668C162.627 338.779 162.397 338.839 162.162 338.843V338.843Z" fill="#3080E3"/>
<path d="M161.296 337.978C161.12 337.978 155.443 336.745 155.251 336.713C154.545 336.553 154.176 336.008 154.433 335.479L165.994 311.213C166.176 310.93 166.443 310.71 166.757 310.587C167.07 310.463 167.415 310.441 167.742 310.525C168.448 310.669 174.3 312.479 174.044 313.007L162.466 337.273C162.346 337.479 162.176 337.652 161.971 337.775C161.767 337.898 161.534 337.968 161.296 337.978V337.978Z" fill="url(#paint17_linear_8_436)"/>
<path d="M228.402 229.83C224.987 231.848 223.159 235.724 221.844 239.44C218.91 247.817 217.499 256.851 212.832 264.395C210.159 268.704 206.527 272.338 202.217 275.015C199.475 276.728 196.396 278.09 194.2 280.492C192.003 282.895 190.993 286.899 193.157 289.334C195.322 291.769 198.898 291.624 201.929 290.84C214.901 287.476 224.057 276.12 231.353 264.892C234.708 260.134 237.335 254.903 239.146 249.371C241.006 242.948 240.204 222.879 228.402 229.83Z" fill="#3080E3"/>
<path d="M187.176 288.549C185.654 289.929 184.544 291.703 183.969 293.675C183.684 294.658 183.628 295.693 183.806 296.701C183.984 297.709 184.391 298.662 184.996 299.489C185.618 300.306 186.487 300.903 187.474 301.191C188.461 301.479 189.514 301.444 190.48 301.09C191.154 300.759 191.784 300.345 192.356 299.857L198.224 295.164C198.988 294.621 199.646 293.942 200.165 293.162C201.56 290.711 199.668 285.554 196.958 284.497C193.863 283.247 189.261 286.547 187.176 288.549Z" fill="#F0CAC5"/>
<path d="M193.27 305.687C191.279 306.549 189.456 307.752 187.882 309.243C185.422 312.175 184.213 315.953 184.515 319.766C184.88 324.701 185.96 329.557 187.722 334.182L196.332 360.338C196.49 360.903 196.727 361.442 197.038 361.94C198.738 364.518 203.147 363.397 204.671 360.706C206.194 358.015 205.729 354.7 205.328 351.641C204.075 342.198 203.646 332.663 204.045 323.146C203.984 322.463 204.184 321.781 204.606 321.24C205.067 320.884 205.628 320.682 206.21 320.663C213.634 319.911 221.122 320.76 228.563 320.535C236.003 320.311 243.78 318.934 249.633 314.289C255.485 309.644 258.724 301.155 255.453 294.459C254.863 293.103 253.843 291.978 252.551 291.256C251.132 290.711 249.601 290.524 248.093 290.711C239.37 291.112 231.176 291.16 222.806 293.803C217.723 295.404 212.704 297.15 207.749 299.136C204.109 300.61 197.134 305.687 193.27 305.687Z" fill="#606161"/>
<path d="M193.27 305.687C191.279 306.549 189.456 307.752 187.882 309.243C185.422 312.175 184.213 315.953 184.515 319.766C184.88 324.701 185.96 329.557 187.722 334.182L196.332 360.338C196.49 360.903 196.727 361.442 197.038 361.94C198.738 364.518 203.147 363.397 204.671 360.706C206.194 358.015 205.729 354.7 205.328 351.641C204.075 342.198 203.646 332.663 204.045 323.146C203.984 322.463 204.184 321.781 204.606 321.24C205.067 320.884 205.628 320.682 206.21 320.663C213.634 319.911 221.122 320.76 228.563 320.535C236.003 320.311 243.78 318.934 249.633 314.289C255.485 309.644 258.724 301.155 255.453 294.459C254.863 293.103 253.843 291.978 252.551 291.256C251.132 290.711 249.601 290.524 248.093 290.711C239.37 291.112 231.176 291.16 222.806 293.803C217.723 295.404 212.704 297.15 207.749 299.136C204.109 300.61 197.134 305.687 193.27 305.687Z" fill="url(#paint18_linear_8_436)"/>
<path d="M200.229 368.411C199.931 369.133 199.489 369.787 198.93 370.333C197.309 372.095 195.472 373.644 193.462 374.946C192.511 375.459 191.676 376.162 191.009 377.012C190.765 377.387 190.599 377.807 190.519 378.247C190.439 378.687 190.448 379.138 190.544 379.575C190.635 380.127 190.94 380.622 191.394 380.952C192.08 381.277 192.864 381.334 193.59 381.112C197.505 380.3 201.285 378.936 204.815 377.06C205.418 376.776 205.997 376.444 206.547 376.067C207.745 375.181 208.673 373.979 209.226 372.595C209.778 371.211 209.933 369.701 209.673 368.234C209.594 367.808 209.459 367.393 209.273 367.001C209.033 366.547 208.748 366.118 208.423 365.72C207.427 364.177 206.271 362.744 204.975 361.443C204.876 361.335 204.748 361.258 204.606 361.219C204.429 361.223 204.256 361.279 204.109 361.379C203.388 361.796 202.682 362.244 201.993 362.708C201.303 363.173 200.726 363.381 200.389 363.91C199.844 365.175 200.71 367.033 200.229 368.411Z" fill="#606161"/>
<path d="M303.991 250.893C297.898 256.979 288.999 259.045 281.174 262.649C278.095 264.059 274.936 265.949 273.669 269.056C273.121 270.596 272.892 272.231 272.996 273.861C272.934 274.397 273.004 274.939 273.2 275.442C273.395 275.944 273.71 276.391 274.118 276.744C274.661 277.009 275.264 277.125 275.866 277.081C284.351 277.19 292.801 275.98 300.913 273.493C309.796 270.77 318.551 266.221 323.891 258.597C325.062 257.015 325.927 255.227 326.44 253.327C326.817 251.359 326.915 249.348 326.729 247.353C326.708 243.386 326.256 239.434 325.382 235.564C324.612 232.713 322.993 228.084 320.283 226.451C317.573 224.817 315.328 230.871 314.302 232.857C311.239 239.12 308.946 245.927 303.991 250.893Z" fill="#3080E3"/>
<path d="M319.625 219.419C316.659 224.48 316.675 230.727 317.284 236.557C318.519 248.65 321.87 260.583 322.351 272.644C322.528 277.225 322.351 281.934 323.778 286.291C324.787 289.058 326.353 291.589 328.38 293.727C330.407 295.865 332.853 297.564 335.564 298.72C341.024 301.001 347.033 301.635 352.85 300.546C356.952 300.067 360.788 298.274 363.786 295.436C366.426 292.281 367.933 288.334 368.067 284.224C368.917 273.573 364.764 263.226 360.675 253.359C356.297 242.772 351.775 231.944 344.528 222.927C341.433 219.083 337.713 214.47 332.71 213.413C330.175 212.938 327.555 213.26 325.211 214.336C322.867 215.412 320.916 217.188 319.625 219.419V219.419Z" fill="#3080E3"/>
<path d="M319.625 219.419C316.659 224.48 316.675 230.727 317.284 236.557C318.519 248.65 321.87 260.583 322.351 272.644C322.528 277.225 322.351 281.934 323.778 286.291C324.787 289.058 326.353 291.589 328.38 293.727C330.407 295.865 332.853 297.564 335.564 298.72C341.024 301.001 347.033 301.635 352.85 300.546C356.952 300.067 360.788 298.274 363.786 295.436C366.426 292.281 367.933 288.334 368.067 284.224C368.917 273.573 364.764 263.226 360.675 253.359C356.297 242.772 351.775 231.944 344.528 222.927C341.433 219.083 337.713 214.47 332.71 213.413C330.175 212.938 327.555 213.26 325.211 214.336C322.867 215.412 320.916 217.188 319.625 219.419V219.419Z" fill="url(#paint19_linear_8_436)"/>
<path d="M294.964 286.114C293.447 287.493 292.338 289.26 291.757 291.224C291.471 292.207 291.416 293.242 291.593 294.25C291.771 295.258 292.178 296.212 292.783 297.038C293.405 297.856 294.274 298.452 295.261 298.74C296.248 299.029 297.301 298.993 298.267 298.64C298.944 298.314 299.575 297.899 300.143 297.407L306.012 292.714C306.775 292.17 307.433 291.491 307.952 290.711C309.347 288.261 307.455 283.119 304.745 282.046C301.65 280.813 297.048 284.128 294.964 286.114Z" fill="#F0CAC5"/>
<path d="M265.347 276.744C264.886 278.215 264.733 279.765 264.899 281.297C265.065 282.83 265.545 284.311 266.309 285.65C266.7 286.371 267.248 286.995 267.913 287.476C269.392 288.241 271.09 288.479 272.723 288.149C273.077 288.159 273.422 288.033 273.685 287.796C273.821 287.625 273.91 287.42 273.942 287.204C274.246 285.49 273.364 283.68 273.829 281.998C274.391 279.868 276.876 278.683 277.518 276.568C278.399 273.685 275.128 269.761 272.146 269.809C269.163 269.857 266.181 274.134 265.347 276.744Z" fill="#F0CAC5"/>
<path d="M301.137 303.253C299.15 304.12 297.327 305.323 295.749 306.809C293.29 309.747 292.081 313.53 292.382 317.348C292.744 322.283 293.824 327.139 295.589 331.763L304.2 357.919C304.368 358.48 304.605 359.018 304.905 359.521C306.605 362.084 311.015 360.963 312.538 358.272C314.061 355.581 313.596 352.265 313.195 349.206C311.943 339.763 311.513 330.229 311.913 320.712C311.853 320.028 312.053 319.348 312.474 318.806C312.933 318.449 313.496 318.252 314.077 318.245C321.485 317.476 328.974 318.325 336.414 318.117C343.854 317.909 351.631 316.515 357.484 311.854C363.337 307.193 366.576 298.72 363.305 292.025C362.721 290.664 361.7 289.537 360.402 288.821C358.987 288.264 357.454 288.071 355.945 288.261C347.222 288.661 339.028 288.725 330.673 291.352C325.574 292.954 320.555 294.7 315.601 296.686C311.896 298.159 304.921 303.253 301.137 303.253Z" fill="#606161"/>
<path d="M419.988 250.893C413.895 256.979 404.996 259.045 397.171 262.649C394.108 264.059 390.949 265.949 389.682 269.056C389.122 270.593 388.887 272.229 388.993 273.861C388.933 274.398 389.006 274.941 389.204 275.444C389.402 275.946 389.721 276.393 390.131 276.744C390.668 277.009 391.266 277.125 391.863 277.081C400.348 277.19 408.798 275.98 416.91 273.493C425.809 270.77 434.548 266.221 439.904 258.597C441.071 257.014 441.93 255.227 442.437 253.327C442.812 251.359 442.914 249.349 442.742 247.353C442.716 243.386 442.259 239.433 441.379 235.564C440.625 232.713 439.006 228.084 436.28 226.451C433.554 224.817 431.325 230.871 430.315 232.857C427.236 239.12 424.943 245.927 419.988 250.893Z" fill="#3080E3"/>
<path d="M435.639 219.419C432.656 224.48 432.688 230.727 433.281 236.557C434.532 248.65 437.867 260.583 438.348 272.644C438.541 277.225 438.348 281.934 439.776 286.291C440.786 289.057 442.353 291.586 444.38 293.724C446.407 295.862 448.851 297.562 451.561 298.72C457.027 301.001 463.041 301.636 468.863 300.546C472.963 300.059 476.797 298.267 479.799 295.436C482.432 292.277 483.939 288.333 484.08 284.224C484.914 273.573 480.761 263.226 476.672 253.359C472.311 242.772 467.773 231.944 460.541 222.927C457.43 219.083 453.726 214.47 448.707 213.413C446.174 212.936 443.556 213.259 441.214 214.335C438.873 215.411 436.924 217.188 435.639 219.419V219.419Z" fill="#3080E3"/>
<path d="M435.639 219.419C432.656 224.48 432.688 230.727 433.281 236.557C434.532 248.65 437.867 260.583 438.348 272.644C438.541 277.225 438.348 281.934 439.776 286.291C440.786 289.057 442.353 291.586 444.38 293.724C446.407 295.862 448.851 297.562 451.561 298.72C457.027 301.001 463.041 301.636 468.863 300.546C472.963 300.059 476.797 298.267 479.799 295.436C482.432 292.277 483.939 288.333 484.08 284.224C484.914 273.573 480.761 263.226 476.672 253.359C472.311 242.772 467.773 231.944 460.541 222.927C457.43 219.083 453.726 214.47 448.707 213.413C446.174 212.936 443.556 213.259 441.214 214.335C438.873 215.411 436.924 217.188 435.639 219.419V219.419Z" fill="url(#paint20_linear_8_436)"/>
<path d="M452.203 227.412C448.787 229.414 446.943 233.29 445.644 237.022C442.71 245.383 441.299 254.433 436.617 261.977C433.941 266.278 430.315 269.91 426.017 272.596C423.259 274.31 420.197 275.655 418 278.058C415.803 280.46 414.873 284.465 416.958 286.899C419.042 289.334 422.698 289.206 425.729 288.421C438.701 285.057 447.857 273.701 455.153 262.473C458.512 257.711 461.139 252.475 462.946 246.937C464.79 240.498 464.004 220.476 452.203 227.412Z" fill="#3080E3"/>
<path d="M410.977 286.114C409.464 287.496 408.356 289.262 407.77 291.224C407.487 292.208 407.434 293.244 407.614 294.252C407.795 295.26 408.205 296.213 408.812 297.038C409.435 297.856 410.303 298.452 411.29 298.74C412.277 299.029 413.33 298.993 414.296 298.64C414.97 298.317 415.597 297.902 416.156 297.407L422.025 292.714C422.792 292.174 423.45 291.495 423.965 290.711C425.376 288.261 423.468 283.119 420.758 282.046C417.663 280.813 413.045 284.128 410.977 286.114Z" fill="#C8A59C"/>
<path d="M381.312 276.744C380.86 278.217 380.713 279.765 380.878 281.296C381.044 282.827 381.519 284.308 382.274 285.65C382.666 286.37 383.214 286.994 383.878 287.476C385.357 288.244 387.055 288.481 388.688 288.149C389.047 288.16 389.397 288.034 389.666 287.796C389.804 287.627 389.888 287.421 389.907 287.204C390.227 285.49 389.345 283.68 389.794 281.998C390.372 279.868 392.841 278.683 393.483 276.568C394.38 273.685 391.109 269.761 388.127 269.809C385.144 269.857 382.178 274.134 381.312 276.744Z" fill="#C8A59C"/>
<path d="M417.054 303.253C415.074 304.124 413.257 305.326 411.682 306.809C410.454 308.257 409.524 309.934 408.946 311.743C408.368 313.551 408.154 315.456 408.315 317.348C408.684 322.282 409.764 327.137 411.522 331.763L420.133 357.919C420.306 358.481 420.549 359.019 420.854 359.521C422.554 362.084 426.964 360.963 428.471 358.272C429.978 355.581 429.545 352.265 429.128 349.206C427.876 339.763 427.446 330.229 427.846 320.711C427.799 320.027 428.005 319.35 428.423 318.805C428.881 318.448 429.445 318.251 430.026 318.245C437.434 317.476 444.923 318.325 452.379 318.117C459.835 317.908 467.596 316.515 473.433 311.854C479.27 307.193 482.525 298.72 479.27 292.025C478.681 290.667 477.661 289.541 476.367 288.821C474.952 288.266 473.419 288.073 471.91 288.261C463.187 288.661 454.977 288.725 446.623 291.352C441.539 292.954 436.504 294.7 431.55 296.686C427.894 298.159 420.934 303.253 417.054 303.253Z" fill="#606161"/>
<path d="M301.137 303.253C299.15 304.12 297.327 305.323 295.749 306.809C293.29 309.747 292.081 313.53 292.382 317.348C292.744 322.283 293.824 327.139 295.589 331.763L304.2 357.919C304.368 358.48 304.605 359.018 304.905 359.521C306.605 362.084 311.015 360.963 312.538 358.272C314.061 355.581 313.596 352.265 313.195 349.206C311.943 339.763 311.513 330.229 311.913 320.712C311.853 320.028 312.053 319.348 312.474 318.806C312.933 318.449 313.496 318.252 314.077 318.245C321.485 317.476 328.974 318.325 336.414 318.117C343.854 317.909 351.631 316.515 357.484 311.854C363.337 307.193 366.576 298.72 363.305 292.025C362.721 290.664 361.7 289.537 360.402 288.821C358.987 288.264 357.454 288.071 355.945 288.261C347.222 288.661 339.028 288.725 330.673 291.352C325.574 292.954 320.555 294.7 315.601 296.686C311.896 298.159 304.921 303.253 301.137 303.253Z" fill="url(#paint21_linear_8_436)"/>
<path d="M417.054 303.253C415.074 304.124 413.257 305.326 411.682 306.809C410.454 308.257 409.524 309.934 408.946 311.743C408.368 313.551 408.154 315.456 408.315 317.348C408.684 322.282 409.764 327.137 411.522 331.763L420.133 357.919C420.306 358.481 420.549 359.019 420.854 359.521C422.554 362.084 426.964 360.963 428.471 358.272C429.978 355.581 429.545 352.265 429.128 349.206C427.876 339.763 427.446 330.229 427.846 320.711C427.799 320.027 428.005 319.35 428.423 318.805C428.881 318.448 429.445 318.251 430.026 318.245C437.434 317.476 444.923 318.325 452.379 318.117C459.835 317.908 467.596 316.515 473.433 311.854C479.27 307.193 482.525 298.72 479.27 292.025C478.681 290.667 477.661 289.541 476.367 288.821C474.952 288.266 473.419 288.073 471.91 288.261C463.187 288.661 454.977 288.725 446.623 291.352C441.539 292.954 436.504 294.7 431.55 296.686C427.894 298.159 420.934 303.253 417.054 303.253Z" fill="url(#paint22_linear_8_436)"/>
<path d="M308.016 365.992C307.718 366.709 307.276 367.358 306.717 367.898C305.093 369.66 303.256 371.215 301.249 372.527C300.296 373.03 299.46 373.728 298.796 374.577C298.311 375.338 298.144 376.258 298.331 377.14C298.422 377.693 298.727 378.188 299.181 378.517C299.867 378.843 300.651 378.9 301.378 378.678C305.292 377.871 309.071 376.512 312.602 374.641C313.202 374.345 313.781 374.008 314.334 373.632C315.53 372.748 316.456 371.548 317.008 370.167C317.56 368.787 317.717 367.28 317.461 365.816C317.386 365.388 317.251 364.973 317.06 364.583C316.816 364.125 316.532 363.691 316.21 363.285C315.214 361.752 314.065 360.324 312.778 359.025C312.679 358.909 312.543 358.83 312.394 358.8C312.214 358.79 312.036 358.847 311.897 358.96C311.175 359.377 310.469 359.809 309.796 360.274C309.122 360.738 308.513 360.963 308.192 361.475C307.631 362.757 308.497 364.599 308.016 365.992Z" fill="#606161"/>
<path d="M423.5 367.706C423.206 368.421 422.769 369.07 422.217 369.612C420.583 371.371 418.742 372.925 416.733 374.241C415.779 374.749 414.943 375.453 414.28 376.307C413.794 377.061 413.627 377.977 413.815 378.854C413.918 379.406 414.227 379.899 414.681 380.231C415.365 380.563 416.149 380.626 416.878 380.407C420.791 379.59 424.57 378.226 428.102 376.355C428.702 376.059 429.281 375.722 429.834 375.346C431.03 374.461 431.956 373.262 432.508 371.881C433.06 370.501 433.217 368.994 432.961 367.53C432.883 367.104 432.754 366.69 432.576 366.296C432.332 365.835 432.042 365.401 431.71 364.999C430.714 363.466 429.565 362.038 428.278 360.738C428.175 360.628 428.041 360.55 427.894 360.514C427.714 360.505 427.537 360.562 427.396 360.674C426.675 361.091 425.985 361.523 425.296 361.988C424.606 362.452 424.013 362.676 423.692 363.189C423.115 364.47 423.981 366.312 423.5 367.706Z" fill="#606161"/>
<path d="M456.34 189.643C455.169 185.319 451.529 180.129 442.582 179.056C436.168 178.303 433.345 179.905 432.848 181.827C432.522 182.267 432.302 182.777 432.207 183.316L431.998 182.003C431.71 185.607 430.652 195.297 430.748 200.791C430.844 206.285 433.041 212.003 437.066 211.699C441.09 211.394 450.663 205.292 452.716 202.713C454.768 200.134 457.526 194.048 456.34 189.643Z" fill="#C8A59C"/>
<path d="M442.052 215.207C442.588 215.872 443.334 216.336 444.169 216.52L447.136 217.513C447.99 217.849 448.896 218.039 449.813 218.074C450.275 218.093 450.735 217.996 451.15 217.792C451.564 217.588 451.921 217.282 452.187 216.904C452.514 216.227 452.652 215.475 452.587 214.726C452.786 210.747 452.348 206.762 451.289 202.921C451.147 202.317 450.772 201.794 450.246 201.464C449.818 201.335 449.36 201.335 448.931 201.464C446.27 201.992 442.694 204.075 441.876 206.878C441.721 207.942 441.748 209.025 441.956 210.081C442.02 211.539 441.203 213.781 442.052 215.207Z" fill="#C8A59C"/>
<path d="M307.102 199.99C307.198 202.553 310.101 203.946 311.512 206.077C312.923 208.207 312.859 211.475 314.815 213.284C316.771 215.094 320.058 214.55 322.832 213.429C323.698 213.06 324.436 218.122 325.109 218.762C327.45 220.957 331.523 218.09 333.961 216.68C334.433 216.452 334.837 216.104 335.131 215.671C335.158 213.827 335.035 211.985 334.762 210.161C334.586 205.356 334.329 200.407 333.993 195.537C333.887 192.706 333.489 189.894 332.806 187.144C332.3 185.113 331.328 183.227 329.968 181.635C328.822 180.442 327.414 179.532 325.856 178.976C324.298 178.42 322.631 178.234 320.988 178.431C317.66 178.88 314.636 180.603 312.554 183.236C310.672 185.798 309.559 188.843 309.347 192.014C308.914 194.528 307.006 197.444 307.102 199.99Z" fill="#F0CAC5"/>
<path d="M302.484 177.006C302.693 179.434 303.759 181.709 305.492 183.425C307.225 185.142 309.512 186.187 311.945 186.376C314.655 186.568 317.813 185.879 319.754 187.769C320.219 188.234 320.62 188.826 321.261 188.954C321.671 189.01 322.086 189.01 322.496 188.954C324.628 188.858 325.703 191.485 326.023 193.583C327.483 193.263 326.569 190.044 328.06 190.012C328.369 190.019 328.665 190.139 328.894 190.348C329.375 190.762 329.764 191.272 330.036 191.845C330.307 192.418 330.455 193.042 330.47 193.676C330.485 194.31 330.367 194.94 330.123 195.526C329.879 196.111 329.515 196.639 329.054 197.075C330.776 199.203 331.775 201.822 331.908 204.555C331.988 206.862 332.02 209.969 334.265 210.433C334.769 210.499 335.281 210.44 335.757 210.261C336.232 210.082 336.656 209.79 336.991 209.408C339.878 206.557 338.787 201.496 341 198.116C342.379 196.018 344.929 194.737 345.811 192.382C346.259 190.964 346.259 189.443 345.811 188.025C344.845 184.373 342.626 181.176 339.541 178.992C338.225 178.22 336.989 177.318 335.853 176.301C335.029 175.291 334.284 174.22 333.624 173.097C329.182 166.466 322.399 167.171 315.392 167.395C309.571 167.443 302.259 169.702 302.484 177.006Z" fill="#EDB607"/>
<path d="M218.926 406.163C216.246 406.163 213.626 405.369 211.398 403.882C209.17 402.395 207.433 400.281 206.407 397.808C205.382 395.335 205.114 392.614 205.636 389.988C206.159 387.363 207.45 384.951 209.345 383.058C211.24 381.165 213.654 379.876 216.282 379.354C218.911 378.832 221.635 379.1 224.111 380.124C226.587 381.149 228.703 382.883 230.192 385.109C231.681 387.335 232.475 389.952 232.475 392.629C232.471 396.217 231.042 399.657 228.502 402.194C225.962 404.732 222.518 406.159 218.926 406.163V406.163ZM218.926 386.414C217.695 386.414 216.492 386.778 215.469 387.461C214.446 388.144 213.649 389.115 213.178 390.25C212.707 391.386 212.584 392.635 212.824 393.841C213.064 395.046 213.656 396.154 214.526 397.023C215.396 397.892 216.505 398.484 217.712 398.724C218.919 398.964 220.17 398.841 221.307 398.37C222.443 397.9 223.415 397.103 224.099 396.081C224.782 395.059 225.147 393.858 225.147 392.629C225.147 390.98 224.492 389.4 223.325 388.234C222.158 387.069 220.576 386.414 218.926 386.414Z" fill="#3080E3"/>
<path d="M218.926 407.701C216.245 407.701 213.625 406.906 211.396 405.419C209.168 403.931 207.431 401.816 206.406 399.342C205.381 396.868 205.114 394.146 205.638 391.52C206.162 388.894 207.454 386.482 209.35 384.59C211.247 382.698 213.663 381.41 216.292 380.89C218.922 380.369 221.646 380.64 224.122 381.667C226.598 382.693 228.713 384.431 230.2 386.658C231.686 388.886 232.478 391.505 232.475 394.182C232.471 397.769 231.042 401.207 228.501 403.742C225.96 406.277 222.516 407.701 218.926 407.701V407.701ZM218.926 387.968C217.695 387.968 216.492 388.332 215.469 389.015C214.446 389.698 213.649 390.668 213.178 391.804C212.707 392.94 212.584 394.189 212.824 395.395C213.064 396.6 213.656 397.707 214.526 398.577C215.396 399.446 216.505 400.038 217.712 400.277C218.919 400.517 220.17 400.394 221.307 399.924C222.443 399.453 223.415 398.657 224.099 397.635C224.782 396.613 225.147 395.411 225.147 394.182C225.147 392.534 224.492 390.953 223.325 389.788C222.158 388.622 220.576 387.968 218.926 387.968V387.968Z" fill="url(#paint23_linear_8_436)"/>
<path d="M323.073 406.163C320.393 406.163 317.773 405.369 315.545 403.882C313.317 402.395 311.58 400.281 310.555 397.808C309.529 395.335 309.261 392.614 309.784 389.988C310.306 387.363 311.597 384.951 313.492 383.058C315.387 381.165 317.801 379.876 320.43 379.354C323.058 378.832 325.782 379.1 328.258 380.124C330.734 381.149 332.85 382.883 334.339 385.109C335.828 387.335 336.622 389.952 336.622 392.629C336.618 396.217 335.189 399.657 332.649 402.194C330.109 404.732 326.665 406.159 323.073 406.163V406.163ZM323.073 386.414C321.842 386.414 320.639 386.778 319.616 387.461C318.593 388.144 317.796 389.115 317.325 390.25C316.854 391.386 316.731 392.635 316.971 393.841C317.211 395.046 317.803 396.154 318.674 397.023C319.544 397.892 320.652 398.484 321.859 398.724C323.066 398.964 324.317 398.841 325.454 398.37C326.591 397.9 327.562 397.103 328.246 396.081C328.93 395.059 329.294 393.858 329.294 392.629C329.294 390.98 328.639 389.4 327.472 388.234C326.305 387.069 324.723 386.414 323.073 386.414V386.414Z" fill="#3080E3"/>
<path d="M323.073 407.701C320.392 407.701 317.772 406.906 315.543 405.419C313.315 403.931 311.578 401.816 310.553 399.342C309.528 396.868 309.261 394.146 309.785 391.52C310.309 388.894 311.601 386.482 313.498 384.59C315.394 382.698 317.81 381.41 320.439 380.89C323.069 380.369 325.794 380.64 328.269 381.667C330.745 382.693 332.86 384.431 334.347 386.658C335.834 388.886 336.626 391.505 336.622 394.182C336.618 397.769 335.189 401.207 332.648 403.742C330.108 406.277 326.664 407.701 323.073 407.701ZM323.073 387.968C321.842 387.968 320.639 388.332 319.616 389.015C318.593 389.698 317.796 390.668 317.325 391.804C316.854 392.94 316.731 394.189 316.971 395.395C317.211 396.6 317.803 397.707 318.674 398.577C319.544 399.446 320.652 400.038 321.859 400.277C323.066 400.517 324.317 400.394 325.454 399.924C326.591 399.453 327.562 398.657 328.246 397.635C328.93 396.613 329.294 395.411 329.294 394.182C329.294 392.534 328.639 390.953 327.472 389.788C326.305 388.622 324.723 387.968 323.073 387.968V387.968Z" fill="url(#paint24_linear_8_436)"/>
<path d="M441.924 406.163C439.244 406.166 436.622 405.375 434.392 403.89C432.162 402.405 430.423 400.292 429.395 397.819C428.367 395.346 428.096 392.624 428.617 389.998C429.138 387.371 430.427 384.958 432.321 383.064C434.216 381.169 436.63 379.879 439.259 379.355C441.888 378.832 444.613 379.099 447.09 380.123C449.566 381.147 451.684 382.881 453.173 385.108C454.663 387.334 455.458 389.951 455.458 392.629C455.453 396.214 454.027 399.652 451.49 402.189C448.953 404.725 445.514 406.155 441.924 406.163V406.163ZM441.924 386.414C440.694 386.414 439.491 386.778 438.468 387.461C437.445 388.144 436.647 389.115 436.176 390.25C435.705 391.386 435.582 392.635 435.822 393.841C436.062 395.046 436.655 396.154 437.525 397.023C438.395 397.892 439.504 398.484 440.71 398.724C441.917 398.964 443.168 398.841 444.305 398.37C445.442 397.9 446.414 397.103 447.097 396.081C447.781 395.059 448.146 393.858 448.146 392.629C448.146 390.98 447.49 389.4 446.323 388.234C445.157 387.069 443.574 386.414 441.924 386.414Z" fill="#3080E3"/>
<path d="M441.924 407.701C439.243 407.704 436.621 406.912 434.39 405.426C432.16 403.94 430.421 401.827 429.393 399.353C428.366 396.879 428.096 394.157 428.618 391.53C429.14 388.903 430.431 386.49 432.327 384.596C434.223 382.702 436.639 381.413 439.269 380.891C441.899 380.369 444.624 380.639 447.101 381.665C449.577 382.691 451.693 384.429 453.181 386.657C454.669 388.885 455.461 391.504 455.458 394.182C455.449 397.765 454.021 401.198 451.484 403.732C448.948 406.265 445.511 407.692 441.924 407.701V407.701ZM441.924 387.968C440.694 387.968 439.491 388.332 438.468 389.015C437.444 389.698 436.647 390.668 436.176 391.804C435.705 392.94 435.582 394.189 435.822 395.395C436.062 396.6 436.655 397.707 437.525 398.577C438.395 399.446 439.504 400.038 440.71 400.277C441.917 400.517 443.168 400.394 444.305 399.924C445.442 399.453 446.414 398.657 447.097 397.635C447.781 396.613 448.146 395.411 448.146 394.182C448.146 392.534 447.49 390.953 446.323 389.788C445.157 388.622 443.574 387.968 441.924 387.968V387.968Z" fill="url(#paint25_linear_8_436)"/>
<path d="M206.306 381.737C206.306 381.737 217.306 396.232 218.413 396.152C219.519 396.072 221.074 394.086 221.074 394.086L208.455 381.272L206.306 381.737Z" fill="#606161"/>
<path d="M194.665 380.488L196.845 387.055L209.353 381.256L207.557 375.33L194.665 380.488Z" fill="#3080E3"/>
<path d="M194.665 380.488L196.845 387.055L209.353 381.256L207.557 375.33L194.665 380.488Z" fill="url(#paint26_linear_8_436)"/>
<path d="M235.394 406.756L237.574 413.323L250.082 407.525L248.286 401.598L235.394 406.756Z" fill="#3080E3"/>
<path d="M235.394 406.756L237.574 413.323L250.082 407.525L248.286 401.598L235.394 406.756Z" fill="url(#paint27_linear_8_436)"/>
<path d="M310.758 380.439C310.758 380.439 321.758 394.951 322.864 394.855C323.971 394.759 325.526 392.789 325.526 392.789L312.907 379.975L310.758 380.439Z" fill="#606161"/>
<path d="M299.068 379.206L301.249 385.757L313.757 379.975L311.945 374.049L299.068 379.206Z" fill="#3080E3"/>
<path d="M299.068 379.206L301.249 385.757L313.757 379.975L311.945 374.049L299.068 379.206Z" fill="url(#paint28_linear_8_436)"/>
<path d="M431.694 382.506C431.694 382.506 442.694 397.017 443.816 396.921C444.939 396.825 446.478 394.871 446.478 394.871L433.843 382.057L431.694 382.506Z" fill="#606161"/>
<path d="M420.052 381.256L422.249 387.823L434.741 382.025L432.945 376.115L420.052 381.256Z" fill="#3080E3"/>
<path d="M420.052 381.256L422.249 387.823L434.741 382.025L432.945 376.115L420.052 381.256Z" fill="url(#paint29_linear_8_436)"/>
<path d="M336.189 227.412C332.774 229.414 330.946 233.29 329.631 237.022C326.697 245.383 325.286 254.433 320.62 261.977C317.939 266.274 314.315 269.906 310.02 272.596C307.262 274.31 304.184 275.655 302.003 278.058C299.822 280.46 298.796 284.465 300.961 286.899C303.125 289.334 306.701 289.206 309.732 288.421C322.704 285.057 331.86 273.701 339.156 262.473C342.509 257.708 345.135 252.472 346.949 246.937C348.793 240.498 347.991 220.476 336.189 227.412Z" fill="#3080E3"/>
<path d="M440.24 176.525C437.114 176.781 433.233 176.926 431.469 179.6C429.321 182.884 432.047 184.309 434.853 185.158C439.936 186.76 440.481 192.174 441.876 196.498C442.431 198.757 443.751 200.755 445.612 202.153C446.671 202.857 447.937 203.033 448.996 203.754C450.531 204.849 451.624 206.457 452.074 208.287C452.473 210.199 453.092 212.059 453.918 213.829C455.294 215.846 457.173 217.469 459.37 218.538C461.188 219.698 463.196 220.527 465.303 220.989C468.559 221.301 471.839 220.749 474.812 219.387C475.701 218.961 476.666 218.716 477.65 218.666C480.777 218.666 482.573 222.494 485.587 223.327C487.88 223.952 490.398 223.055 492.707 223.519C495.532 224.342 498.433 224.878 501.366 225.121C504.602 225.325 507.808 224.39 510.426 222.478C511.697 221.493 512.601 220.11 512.993 218.551C513.386 216.992 513.244 215.346 512.59 213.877C511.099 211.154 507.78 210.177 505.182 208.367C503.862 207.413 502.745 206.207 501.894 204.818C501.044 203.43 500.477 201.887 500.227 200.279C499.859 197.684 500.227 194.929 499.217 192.558C498.518 191.312 497.573 190.22 496.441 189.347C495.308 188.475 494.011 187.84 492.627 187.481C489.532 186.426 486.274 185.932 483.006 186.023C478.195 186.183 473.192 187.625 468.414 186.568C463.636 185.511 459.579 181.763 455.313 179.008C450.775 176.077 447.071 175.804 441.94 176.525H440.24Z" fill="#606161"/>
<path d="M440.24 176.525C437.114 176.781 433.233 176.926 431.469 179.6C429.321 182.884 432.047 184.309 434.853 185.158C439.936 186.76 440.481 192.174 441.876 196.498C442.431 198.757 443.751 200.755 445.612 202.153C446.671 202.857 447.937 203.033 448.996 203.754C450.531 204.849 451.624 206.457 452.074 208.287C452.473 210.199 453.092 212.059 453.918 213.829C455.294 215.846 457.173 217.469 459.37 218.538C461.188 219.698 463.196 220.527 465.303 220.989C468.559 221.301 471.839 220.749 474.812 219.387C475.701 218.961 476.666 218.716 477.65 218.666C480.777 218.666 482.573 222.494 485.587 223.327C487.88 223.952 490.398 223.055 492.707 223.519C495.532 224.342 498.433 224.878 501.366 225.121C504.602 225.325 507.808 224.39 510.426 222.478C511.697 221.493 512.601 220.11 512.993 218.551C513.386 216.992 513.244 215.346 512.59 213.877C511.099 211.154 507.78 210.177 505.182 208.367C503.862 207.413 502.745 206.207 501.894 204.818C501.044 203.43 500.477 201.887 500.227 200.279C499.859 197.684 500.227 194.929 499.217 192.558C498.518 191.312 497.573 190.22 496.441 189.347C495.308 188.475 494.011 187.84 492.627 187.481C489.532 186.426 486.274 185.932 483.006 186.023C478.195 186.183 473.192 187.625 468.414 186.568C463.636 185.511 459.579 181.763 455.313 179.008C450.775 176.077 447.071 175.804 441.94 176.525H440.24Z" fill="#C75A5A" fill-opacity="0.93"/>
<path d="M772.806 240.145C772.806 294.459 726.465 388.496 672.074 388.496C617.684 388.496 575.864 294.459 575.864 240.145C575.698 227.122 578.122 214.195 582.997 202.114C587.871 190.034 595.099 179.04 604.26 169.772C613.421 160.503 624.333 153.144 636.364 148.122C648.395 143.099 661.304 140.513 674.343 140.513C687.383 140.513 700.292 143.099 712.323 148.122C724.353 153.144 735.266 160.503 744.427 169.772C753.588 179.04 760.815 190.034 765.69 202.114C770.564 214.195 772.989 227.122 772.822 240.145H772.806Z" fill="#3080E3"/>
<path d="M772.806 240.145C772.806 294.459 726.465 388.496 672.074 388.496C617.684 388.496 575.864 294.459 575.864 240.145C575.698 227.122 578.122 214.195 582.997 202.114C587.871 190.034 595.099 179.04 604.26 169.772C613.421 160.503 624.333 153.144 636.364 148.122C648.395 143.099 661.304 140.513 674.343 140.513C687.383 140.513 700.292 143.099 712.323 148.122C724.353 153.144 735.266 160.503 744.427 169.772C753.588 179.04 760.815 190.034 765.69 202.114C770.564 214.195 772.989 227.122 772.822 240.145H772.806Z" fill="url(#paint30_linear_8_436)"/>
<path d="M725.391 364.727H630.784C622.23 364.727 615.294 371.654 615.294 380.199V380.215C615.294 388.761 622.23 395.688 630.784 395.688H725.391C733.945 395.688 740.881 388.761 740.881 380.215V380.199C740.881 371.654 733.945 364.727 725.391 364.727Z" fill="#3080E3"/>
<path d="M725.391 364.727H630.784C622.23 364.727 615.294 371.654 615.294 380.199V380.215C615.294 388.761 622.23 395.688 630.784 395.688H725.391C733.945 395.688 740.881 388.761 740.881 380.215V380.199C740.881 371.654 733.945 364.727 725.391 364.727Z" fill="url(#paint31_linear_8_436)"/>
<path d="M725.391 398.907H630.784C622.23 398.907 615.294 405.835 615.294 414.38V414.396C615.294 422.941 622.23 429.868 630.784 429.868H725.391C733.945 429.868 740.881 422.941 740.881 414.396V414.38C740.881 405.835 733.945 398.907 725.391 398.907Z" fill="#3080E3"/>
<path d="M725.391 398.907H630.784C622.23 398.907 615.294 405.835 615.294 414.38V414.396C615.294 422.941 622.23 429.868 630.784 429.868H725.391C733.945 429.868 740.881 422.941 740.881 414.396V414.38C740.881 405.835 733.945 398.907 725.391 398.907Z" fill="url(#paint32_linear_8_436)"/>
<path d="M736.567 376.611H621.484C611.078 376.611 602.643 385.037 602.643 395.432V395.448C602.643 405.842 611.078 414.268 621.484 414.268H736.567C746.973 414.268 755.408 405.842 755.408 395.448V395.432C755.408 385.037 746.973 376.611 736.567 376.611Z" fill="#3080E3"/>
<path d="M736.567 376.611H621.484C611.078 376.611 602.643 385.037 602.643 395.432V395.448C602.643 405.842 611.078 414.268 621.484 414.268H736.567C746.973 414.268 755.408 405.842 755.408 395.448V395.432C755.408 385.037 746.973 376.611 736.567 376.611Z" fill="url(#paint33_linear_8_436)"/>
<path d="M702.204 366.937L697.394 366.168C699.653 352.25 703.723 338.686 709.5 325.821C710.558 323.483 711.681 321.16 712.803 318.822C716.267 311.598 719.875 304.134 721.462 296.301C723.274 287.476 722.328 275.607 714.246 268.816C711.979 266.702 708.977 265.553 705.876 265.613C703.07 266.108 700.508 267.522 698.596 269.633C701.137 274.162 702.492 279.258 702.534 284.45C702.576 289.641 701.304 294.759 698.837 299.329C697.959 301.152 696.398 302.556 694.491 303.237C693.754 303.448 692.979 303.497 692.221 303.38C691.462 303.264 690.738 302.986 690.098 302.564C688.989 301.751 688.053 300.726 687.343 299.549C686.633 298.373 686.163 297.068 685.961 295.709C685.141 291.068 685.304 286.307 686.439 281.733C687.574 277.159 689.656 272.873 692.551 269.152C691.366 267.566 689.981 266.139 688.43 264.908C687.148 263.822 685.634 263.044 684.004 262.633C679.194 261.496 674.977 266.381 672.571 271.555C676.266 275.421 679.122 280.007 680.962 285.025C682.803 290.044 683.587 295.387 683.267 300.722C683.221 304.023 682.094 307.218 680.06 309.82C677.606 312.623 672.844 314.032 669.429 311.422C667.844 310.055 666.723 308.23 666.222 306.2C662.729 295.294 662.949 283.54 666.847 272.772C665.384 271.331 663.535 270.341 661.523 269.921C659.074 269.828 656.679 270.65 654.805 272.228C644.975 279.499 643.757 293.899 643.901 301.827C644.461 324.815 653.613 346.762 669.557 363.349L666.061 366.713C649.284 349.232 639.658 326.116 639.074 301.907C638.786 286.611 643.356 274.678 651.902 268.271C654.779 265.94 658.438 264.794 662.133 265.068C664.611 265.477 666.936 266.539 668.867 268.143C672.074 262.137 677.975 256.595 684.902 257.844C687.289 258.388 689.514 259.485 691.397 261.048C693.044 262.344 694.535 263.827 695.838 265.468C697.199 263.999 698.842 262.817 700.669 261.994C702.496 261.17 704.469 260.721 706.473 260.673C708.477 260.625 710.47 260.98 712.334 261.715C714.198 262.451 715.895 263.553 717.325 264.956C727.042 273.109 728.261 286.931 726.176 297.15C724.477 305.543 720.757 313.296 717.149 320.792C716.042 323.082 714.952 325.373 713.942 327.679C708.317 340.192 704.371 353.392 702.204 366.937V366.937ZM670.663 276.744C667.863 285.883 667.931 295.659 670.856 304.758C671.111 305.85 671.667 306.848 672.459 307.642C673.518 308.442 675.538 307.77 676.516 306.681C677.843 304.883 678.536 302.698 678.488 300.466C679.01 291.851 676.21 283.363 670.663 276.744V276.744ZM695.293 273.765C691.078 279.97 689.46 287.576 690.787 294.956C690.964 296.349 691.642 297.63 692.695 298.56C693.609 298.56 694.074 297.999 694.652 296.958C696.577 293.415 697.639 289.468 697.75 285.438C697.862 281.408 697.02 277.409 695.293 273.765V273.765Z" fill="white"/>
</g>
<defs>
<linearGradient id="paint0_linear_8_436" x1="476.464" y1="15.905" x2="571.534" y2="232.695" gradientUnits="userSpaceOnUse">
<stop stop-color="white" stop-opacity="0"/>
<stop offset="0.95" stop-color="white"/>
</linearGradient>
<linearGradient id="paint1_linear_8_436" x1="333.654" y1="314.277" x2="632.02" y2="340.862" gradientUnits="userSpaceOnUse">
<stop stop-color="white" stop-opacity="0"/>
<stop offset="0.95" stop-color="white"/>
</linearGradient>
<linearGradient id="paint2_linear_8_436" x1="867.99" y1="350.824" x2="755.422" y2="323.345" gradientUnits="userSpaceOnUse">
<stop stop-color="white" stop-opacity="0"/>
<stop offset="0.95" stop-color="white"/>
</linearGradient>
<linearGradient id="paint3_linear_8_436" x1="434.58" y1="361.331" x2="456.193" y2="327.321" gradientUnits="userSpaceOnUse">
<stop stop-color="#010101" stop-opacity="0"/>
<stop offset="0.47" stop-color="#010101" stop-opacity="0.47"/>
<stop offset="0.95" stop-color="#010101"/>
</linearGradient>
<linearGradient id="paint4_linear_8_436" x1="460.781" y1="408.229" x2="475.469" y2="408.229" gradientUnits="userSpaceOnUse">
<stop stop-color="#010101" stop-opacity="0"/>
<stop offset="0.47" stop-color="#010101" stop-opacity="0.47"/>
<stop offset="0.95" stop-color="#010101"/>
</linearGradient>
<linearGradient id="paint5_linear_8_436" x1="339.797" y1="406.179" x2="354.485" y2="406.179" gradientUnits="userSpaceOnUse">
<stop stop-color="#010101" stop-opacity="0"/>
<stop offset="0.47" stop-color="#010101" stop-opacity="0.47"/>
<stop offset="0.95" stop-color="#010101"/>
</linearGradient>
<linearGradient id="paint6_linear_8_436" x1="315.937" y1="364.566" x2="351.976" y2="310.456" gradientUnits="userSpaceOnUse">
<stop stop-color="#010101" stop-opacity="0"/>
<stop offset="0.47" stop-color="#010101" stop-opacity="0.47"/>
<stop offset="0.95" stop-color="#010101"/>
</linearGradient>
<linearGradient id="paint7_linear_8_436" x1="255.966" y1="313.504" x2="253.262" y2="304.228" gradientUnits="userSpaceOnUse">
<stop stop-color="#010101" stop-opacity="0"/>
<stop offset="0.47" stop-color="#010101" stop-opacity="0.47"/>
<stop offset="0.95" stop-color="#010101"/>
</linearGradient>
<linearGradient id="paint8_linear_8_436" x1="353.924" y1="313.504" x2="351.22" y2="304.228" gradientUnits="userSpaceOnUse">
<stop stop-color="#010101" stop-opacity="0"/>
<stop offset="0.47" stop-color="#010101" stop-opacity="0.47"/>
<stop offset="0.95" stop-color="#010101"/>
</linearGradient>
<linearGradient id="paint9_linear_8_436" x1="474.571" y1="313.504" x2="471.867" y2="304.228" gradientUnits="userSpaceOnUse">
<stop stop-color="#010101" stop-opacity="0"/>
<stop offset="0.47" stop-color="#010101" stop-opacity="0.47"/>
<stop offset="0.95" stop-color="#010101"/>
</linearGradient>
<linearGradient id="paint10_linear_8_436" x1="134.758" y1="455.304" x2="138.886" y2="291.88" gradientUnits="userSpaceOnUse">
<stop stop-color="#010101" stop-opacity="0"/>
<stop offset="0.47" stop-color="#010101" stop-opacity="0.47"/>
<stop offset="0.95" stop-color="#010101"/>
</linearGradient>
<linearGradient id="paint11_linear_8_436" x1="515.092" y1="461.743" x2="519.22" y2="298.319" gradientUnits="userSpaceOnUse">
<stop stop-color="#010101" stop-opacity="0"/>
<stop offset="0.47" stop-color="#010101" stop-opacity="0.47"/>
<stop offset="0.95" stop-color="#010101"/>
</linearGradient>
<linearGradient id="paint12_linear_8_436" x1="219.599" y1="217.785" x2="367.778" y2="741.104" gradientUnits="userSpaceOnUse">
<stop stop-color="#010101" stop-opacity="0"/>
<stop offset="0.47" stop-color="#010101" stop-opacity="0.47"/>
<stop offset="0.95" stop-color="#010101"/>
</linearGradient>
<linearGradient id="paint13_linear_8_436" x1="211.389" y1="368.667" x2="234.197" y2="318.002" gradientUnits="userSpaceOnUse">
<stop stop-color="#010101" stop-opacity="0"/>
<stop offset="0.47" stop-color="#010101" stop-opacity="0.47"/>
<stop offset="0.95" stop-color="#010101"/>
</linearGradient>
<linearGradient id="paint14_linear_8_436" x1="182.398" y1="280.941" x2="167.867" y2="324.902" gradientUnits="userSpaceOnUse">
<stop stop-color="#010101" stop-opacity="0"/>
<stop offset="0.47" stop-color="#010101" stop-opacity="0.47"/>
<stop offset="0.95" stop-color="#010101"/>
</linearGradient>
<linearGradient id="paint15_linear_8_436" x1="286.192" y1="280.941" x2="271.678" y2="324.902" gradientUnits="userSpaceOnUse">
<stop stop-color="#010101" stop-opacity="0"/>
<stop offset="0.47" stop-color="#010101" stop-opacity="0.47"/>
<stop offset="0.95" stop-color="#010101"/>
</linearGradient>
<linearGradient id="paint16_linear_8_436" x1="401.404" y1="280.941" x2="386.873" y2="324.902" gradientUnits="userSpaceOnUse">
<stop stop-color="#010101" stop-opacity="0"/>
<stop offset="0.47" stop-color="#010101" stop-opacity="0.47"/>
<stop offset="0.95" stop-color="#010101"/>
</linearGradient>
<linearGradient id="paint17_linear_8_436" x1="167.95" y1="326.526" x2="146.987" y2="315.519" gradientUnits="userSpaceOnUse">
<stop stop-color="#010101" stop-opacity="0"/>
<stop offset="0.47" stop-color="#010101" stop-opacity="0.47"/>
<stop offset="0.95" stop-color="#010101"/>
</linearGradient>
<linearGradient id="paint18_linear_8_436" x1="184.515" y1="327.022" x2="256.864" y2="327.022" gradientUnits="userSpaceOnUse">
<stop stop-color="#010101" stop-opacity="0"/>
<stop offset="0.47" stop-color="#010101" stop-opacity="0.47"/>
<stop offset="0.95" stop-color="#010101"/>
</linearGradient>
<linearGradient id="paint19_linear_8_436" x1="345.185" y1="245.223" x2="310.542" y2="391.509" gradientUnits="userSpaceOnUse">
<stop stop-color="#010101" stop-opacity="0"/>
<stop offset="0.47" stop-color="#010101" stop-opacity="0.47"/>
<stop offset="0.95" stop-color="#010101"/>
</linearGradient>
<linearGradient id="paint20_linear_8_436" x1="467.773" y1="248.955" x2="363.187" y2="332.501" gradientUnits="userSpaceOnUse">
<stop stop-color="#010101" stop-opacity="0"/>
<stop offset="0.47" stop-color="#010101" stop-opacity="0.47"/>
<stop offset="0.95" stop-color="#010101"/>
</linearGradient>
<linearGradient id="paint21_linear_8_436" x1="292.302" y1="324.604" x2="364.652" y2="324.604" gradientUnits="userSpaceOnUse">
<stop stop-color="#010101" stop-opacity="0"/>
<stop offset="0.47" stop-color="#010101" stop-opacity="0.47"/>
<stop offset="0.95" stop-color="#010101"/>
</linearGradient>
<linearGradient id="paint22_linear_8_436" x1="408.299" y1="324.604" x2="480.665" y2="324.604" gradientUnits="userSpaceOnUse">
<stop stop-color="#010101" stop-opacity="0"/>
<stop offset="0.47" stop-color="#010101" stop-opacity="0.47"/>
<stop offset="0.95" stop-color="#010101"/>
</linearGradient>
<linearGradient id="paint23_linear_8_436" x1="205.392" y1="394.182" x2="232.475" y2="394.182" gradientUnits="userSpaceOnUse">
<stop stop-color="#010101" stop-opacity="0"/>
<stop offset="0.47" stop-color="#010101" stop-opacity="0.47"/>
<stop offset="0.95" stop-color="#010101"/>
</linearGradient>
<linearGradient id="paint24_linear_8_436" x1="309.539" y1="394.182" x2="336.622" y2="394.182" gradientUnits="userSpaceOnUse">
<stop stop-color="#010101" stop-opacity="0"/>
<stop offset="0.47" stop-color="#010101" stop-opacity="0.47"/>
<stop offset="0.95" stop-color="#010101"/>
</linearGradient>
<linearGradient id="paint25_linear_8_436" x1="428.375" y1="394.182" x2="455.458" y2="394.182" gradientUnits="userSpaceOnUse">
<stop stop-color="#010101" stop-opacity="0"/>
<stop offset="0.47" stop-color="#010101" stop-opacity="0.47"/>
<stop offset="0.95" stop-color="#010101"/>
</linearGradient>
<linearGradient id="paint26_linear_8_436" x1="194.665" y1="381.192" x2="209.353" y2="381.192" gradientUnits="userSpaceOnUse">
<stop stop-color="#010101" stop-opacity="0"/>
<stop offset="0.47" stop-color="#010101" stop-opacity="0.47"/>
<stop offset="0.95" stop-color="#010101"/>
</linearGradient>
<linearGradient id="paint27_linear_8_436" x1="235.394" y1="407.46" x2="250.082" y2="407.46" gradientUnits="userSpaceOnUse">
<stop stop-color="#010101" stop-opacity="0"/>
<stop offset="0.47" stop-color="#010101" stop-opacity="0.47"/>
<stop offset="0.95" stop-color="#010101"/>
</linearGradient>
<linearGradient id="paint28_linear_8_436" x1="299.068" y1="379.911" x2="313.757" y2="379.911" gradientUnits="userSpaceOnUse">
<stop stop-color="#010101" stop-opacity="0"/>
<stop offset="0.47" stop-color="#010101" stop-opacity="0.47"/>
<stop offset="0.95" stop-color="#010101"/>
</linearGradient>
<linearGradient id="paint29_linear_8_436" x1="420.052" y1="381.961" x2="434.741" y2="381.961" gradientUnits="userSpaceOnUse">
<stop stop-color="#010101" stop-opacity="0"/>
<stop offset="0.47" stop-color="#010101" stop-opacity="0.47"/>
<stop offset="0.95" stop-color="#010101"/>
</linearGradient>
<linearGradient id="paint30_linear_8_436" x1="543.49" y1="273.397" x2="742.274" y2="260.619" gradientUnits="userSpaceOnUse">
<stop stop-color="white" stop-opacity="0.31"/>
<stop offset="0.95" stop-color="#FDD7AA"/>
</linearGradient>
<linearGradient id="paint31_linear_8_436" x1="678.344" y1="365.367" x2="677.24" y2="427.418" gradientUnits="userSpaceOnUse">
<stop stop-color="#010101" stop-opacity="0"/>
<stop offset="0.47" stop-color="#010101" stop-opacity="0.47"/>
<stop offset="0.95" stop-color="#010101"/>
</linearGradient>
<linearGradient id="paint32_linear_8_436" x1="680.653" y1="397.033" x2="664.813" y2="504.546" gradientUnits="userSpaceOnUse">
<stop stop-color="#010101" stop-opacity="0"/>
<stop offset="0.47" stop-color="#010101" stop-opacity="0.47"/>
<stop offset="0.95" stop-color="#010101"/>
</linearGradient>
<linearGradient id="paint33_linear_8_436" x1="679.851" y1="388.881" x2="665.739" y2="500.732" gradientUnits="userSpaceOnUse">
<stop stop-color="#010101" stop-opacity="0"/>
<stop offset="0.47" stop-color="#010101" stop-opacity="0.47"/>
<stop offset="0.95" stop-color="#010101"/>
</linearGradient>
<clipPath id="clip0_8_436">
<rect width="880" height="478" fill="white"/>
</clipPath>
</defs>
</svg>
