<svg width="168" height="41" viewBox="0 0 168 41" fill="none" xmlns="http://www.w3.org/2000/svg">
<rect width="41" height="41" rx="8" fill="#3080E3"/>
<path d="M30.8864 17.1591H25.2045C25.1288 16.5758 24.9735 16.0492 24.7386 15.5795C24.5038 15.1098 24.1932 14.7083 23.8068 14.375C23.4205 14.0417 22.9621 13.7879 22.4318 13.6136C21.9091 13.4318 21.3295 13.3409 20.6932 13.3409C19.5644 13.3409 18.5909 13.6174 17.7727 14.1705C16.9621 14.7235 16.3371 15.5227 15.8977 16.5682C15.4659 17.6136 15.25 18.8788 15.25 20.3636C15.25 21.9091 15.4697 23.2045 15.9091 24.25C16.3561 25.2879 16.9811 26.072 17.7841 26.6023C18.5947 27.125 19.553 27.3864 20.6591 27.3864C21.2803 27.3864 21.8447 27.3068 22.3523 27.1477C22.8674 26.9886 23.3182 26.7576 23.7045 26.4545C24.0985 26.1439 24.4205 25.7689 24.6705 25.3295C24.928 24.8826 25.1061 24.3788 25.2045 23.8182L30.8864 23.8523C30.7879 24.8826 30.4886 25.8977 29.9886 26.8977C29.4962 27.8977 28.8182 28.8106 27.9545 29.6364C27.0909 30.4545 26.0379 31.1061 24.7955 31.5909C23.5606 32.0758 22.1439 32.3182 20.5455 32.3182C18.4394 32.3182 16.553 31.8561 14.8864 30.9318C13.2273 30 11.9167 28.6439 10.9545 26.8636C9.99242 25.0833 9.51136 22.9167 9.51136 20.3636C9.51136 17.803 10 15.6326 10.9773 13.8523C11.9545 12.072 13.2765 10.7197 14.9432 9.79545C16.6098 8.87121 18.4773 8.40909 20.5455 8.40909C21.9545 8.40909 23.2576 8.60606 24.4545 9C25.6515 9.38636 26.7045 9.95454 27.6136 10.7045C28.5227 11.447 29.2614 12.3598 29.8295 13.4432C30.3977 14.5265 30.75 15.7652 30.8864 17.1591Z" fill="white"/>
<path d="M61.9091 32.3295C60.0682 32.3295 58.4886 31.9508 57.1705 31.1932C55.8598 30.4356 54.8523 29.3826 54.1477 28.0341C53.4432 26.678 53.0909 25.1098 53.0909 23.3295C53.0909 21.5417 53.4432 19.9735 54.1477 18.625C54.8598 17.2689 55.8712 16.2121 57.1818 15.4545C58.5 14.697 60.072 14.3182 61.8977 14.3182C63.5114 14.3182 64.9167 14.6098 66.1136 15.1932C67.3182 15.7765 68.2576 16.6023 68.9318 17.6705C69.6136 18.7311 69.9735 19.9773 70.0114 21.4091H64.8182C64.7121 20.5152 64.4091 19.8144 63.9091 19.3068C63.4167 18.7992 62.7727 18.5455 61.9773 18.5455C61.3333 18.5455 60.7689 18.7273 60.2841 19.0909C59.7992 19.447 59.4205 19.9773 59.1477 20.6818C58.8826 21.3788 58.75 22.2424 58.75 23.2727C58.75 24.303 58.8826 25.1742 59.1477 25.8864C59.4205 26.5909 59.7992 27.125 60.2841 27.4886C60.7689 27.8447 61.3333 28.0227 61.9773 28.0227C62.4924 28.0227 62.947 27.9129 63.3409 27.6932C63.7424 27.4735 64.072 27.1515 64.3295 26.7273C64.5871 26.2955 64.75 25.7727 64.8182 25.1591H70.0114C69.9583 26.5985 69.5985 27.8561 68.9318 28.9318C68.2727 30.0076 67.3447 30.8447 66.1477 31.4432C64.9583 32.0341 63.5455 32.3295 61.9091 32.3295ZM79.7228 32.3295C77.8895 32.3295 76.3137 31.9545 74.9956 31.2045C73.685 30.447 72.6736 29.3939 71.9615 28.0455C71.2569 26.6894 70.9047 25.1174 70.9047 23.3295C70.9047 21.5341 71.2569 19.9621 71.9615 18.6136C72.6736 17.2576 73.685 16.2045 74.9956 15.4545C76.3137 14.697 77.8895 14.3182 79.7228 14.3182C81.5562 14.3182 83.1281 14.697 84.4387 15.4545C85.7569 16.2045 86.7683 17.2576 87.4728 18.6136C88.185 19.9621 88.541 21.5341 88.541 23.3295C88.541 25.1174 88.185 26.6894 87.4728 28.0455C86.7683 29.3939 85.7569 30.447 84.4387 31.2045C83.1281 31.9545 81.5562 32.3295 79.7228 32.3295ZM79.7569 28.1364C80.4236 28.1364 80.988 27.9318 81.4501 27.5227C81.9122 27.1136 82.2645 26.5455 82.5069 25.8182C82.7569 25.0909 82.8819 24.25 82.8819 23.2955C82.8819 22.3258 82.7569 21.4773 82.5069 20.75C82.2645 20.0227 81.9122 19.4545 81.4501 19.0455C80.988 18.6364 80.4236 18.4318 79.7569 18.4318C79.0675 18.4318 78.4842 18.6364 78.0069 19.0455C77.5372 19.4545 77.1774 20.0227 76.9274 20.75C76.685 21.4773 76.5637 22.3258 76.5637 23.2955C76.5637 24.25 76.685 25.0909 76.9274 25.8182C77.1774 26.5455 77.5372 27.1136 78.0069 27.5227C78.4842 27.9318 79.0675 28.1364 79.7569 28.1364ZM95.6644 8.72727V32H90.1076V8.72727H95.6644ZM97.9214 32V8.72727H103.478V17.5341H103.592C103.819 17.0038 104.141 16.4924 104.558 16C104.982 15.5076 105.52 15.1061 106.171 14.7955C106.83 14.4773 107.618 14.3182 108.535 14.3182C109.747 14.3182 110.88 14.6364 111.933 15.2727C112.993 15.9091 113.849 16.8902 114.501 18.2159C115.152 19.5417 115.478 21.2311 115.478 23.2841C115.478 25.2614 115.164 26.9167 114.535 28.25C113.914 29.5833 113.073 30.5833 112.012 31.25C110.959 31.9167 109.789 32.25 108.501 32.25C107.622 32.25 106.861 32.1061 106.217 31.8182C105.573 31.5303 105.031 31.1515 104.592 30.6818C104.16 30.2121 103.827 29.7083 103.592 29.1705H103.421V32H97.9214ZM103.365 23.2727C103.365 24.2121 103.49 25.0303 103.74 25.7273C103.997 26.4242 104.365 26.9659 104.842 27.3523C105.327 27.7311 105.906 27.9205 106.58 27.9205C107.262 27.9205 107.842 27.7311 108.319 27.3523C108.796 26.9659 109.156 26.4242 109.399 25.7273C109.649 25.0303 109.774 24.2121 109.774 23.2727C109.774 22.3333 109.649 21.5189 109.399 20.8295C109.156 20.1402 108.796 19.6061 108.319 19.2273C107.849 18.8485 107.27 18.6591 106.58 18.6591C105.899 18.6591 105.319 18.8447 104.842 19.2159C104.365 19.5871 103.997 20.1174 103.74 20.8068C103.49 21.4962 103.365 22.3182 103.365 23.2727ZM119.945 38.5455C119.279 38.5455 118.65 38.4924 118.059 38.3864C117.468 38.2879 116.96 38.1553 116.536 37.9886L117.764 33.9545C118.309 34.1364 118.801 34.2424 119.241 34.2727C119.688 34.303 120.07 34.2311 120.389 34.0568C120.714 33.8902 120.964 33.5909 121.139 33.1591L121.354 32.6364L115.15 14.5455H120.968L124.184 27H124.366L127.627 14.5455H133.479L126.9 33.6705C126.582 34.625 126.131 35.4659 125.548 36.1932C124.972 36.928 124.226 37.5038 123.309 37.9205C122.4 38.3371 121.279 38.5455 119.945 38.5455ZM136.361 32.3295C135.543 32.3295 134.842 32.0417 134.259 31.4659C133.683 30.8902 133.399 30.1932 133.407 29.375C133.399 28.572 133.683 27.8864 134.259 27.3182C134.842 26.7424 135.543 26.4545 136.361 26.4545C137.134 26.4545 137.816 26.7424 138.407 27.3182C139.005 27.8864 139.308 28.572 139.316 29.375C139.308 29.9205 139.164 30.4167 138.884 30.8636C138.611 31.3106 138.252 31.6667 137.805 31.9318C137.365 32.197 136.884 32.3295 136.361 32.3295ZM141.706 32V14.5455H147.263V32H141.706ZM144.49 12.5114C143.71 12.5114 143.04 12.2538 142.479 11.7386C141.918 11.2159 141.638 10.5871 141.638 9.85227C141.638 9.125 141.918 8.50379 142.479 7.98864C143.04 7.46591 143.71 7.20454 144.49 7.20454C145.278 7.20454 145.949 7.46591 146.502 7.98864C147.062 8.50379 147.343 9.125 147.343 9.85227C147.343 10.5871 147.062 11.2159 146.502 11.7386C145.949 12.2538 145.278 12.5114 144.49 12.5114ZM157.668 32.3295C155.835 32.3295 154.259 31.9545 152.941 31.2045C151.63 30.447 150.619 29.3939 149.906 28.0455C149.202 26.6894 148.85 25.1174 148.85 23.3295C148.85 21.5341 149.202 19.9621 149.906 18.6136C150.619 17.2576 151.63 16.2045 152.941 15.4545C154.259 14.697 155.835 14.3182 157.668 14.3182C159.501 14.3182 161.073 14.697 162.384 15.4545C163.702 16.2045 164.713 17.2576 165.418 18.6136C166.13 19.9621 166.486 21.5341 166.486 23.3295C166.486 25.1174 166.13 26.6894 165.418 28.0455C164.713 29.3939 163.702 30.447 162.384 31.2045C161.073 31.9545 159.501 32.3295 157.668 32.3295ZM157.702 28.1364C158.369 28.1364 158.933 27.9318 159.395 27.5227C159.857 27.1136 160.21 26.5455 160.452 25.8182C160.702 25.0909 160.827 24.25 160.827 23.2955C160.827 22.3258 160.702 21.4773 160.452 20.75C160.21 20.0227 159.857 19.4545 159.395 19.0455C158.933 18.6364 158.369 18.4318 157.702 18.4318C157.013 18.4318 156.429 18.6364 155.952 19.0455C155.482 19.4545 155.122 20.0227 154.872 20.75C154.63 21.4773 154.509 22.3258 154.509 23.2955C154.509 24.25 154.63 25.0909 154.872 25.8182C155.122 26.5455 155.482 27.1136 155.952 27.5227C156.429 27.9318 157.013 28.1364 157.702 28.1364Z" fill="#303042"/>
</svg>
