<svg width="163" height="41" viewBox="0 0 163 41" fill="none" xmlns="http://www.w3.org/2000/svg">
<rect width="41" height="41" rx="8" fill="#7784EE"/>
<path d="M30.8864 17.1591H25.2045C25.1288 16.5758 24.9735 16.0492 24.7386 15.5795C24.5038 15.1098 24.1932 14.7083 23.8068 14.375C23.4205 14.0417 22.9621 13.7879 22.4318 13.6136C21.9091 13.4318 21.3295 13.3409 20.6932 13.3409C19.5644 13.3409 18.5909 13.6174 17.7727 14.1705C16.9621 14.7235 16.3371 15.5227 15.8977 16.5682C15.4659 17.6136 15.25 18.8788 15.25 20.3636C15.25 21.9091 15.4697 23.2045 15.9091 24.25C16.3561 25.2879 16.9811 26.072 17.7841 26.6023C18.5947 27.125 19.553 27.3864 20.6591 27.3864C21.2803 27.3864 21.8447 27.3068 22.3523 27.1477C22.8674 26.9886 23.3182 26.7576 23.7045 26.4545C24.0985 26.1439 24.4205 25.7689 24.6705 25.3295C24.928 24.8826 25.1061 24.3788 25.2045 23.8182L30.8864 23.8523C30.7879 24.8826 30.4886 25.8977 29.9886 26.8977C29.4962 27.8977 28.8182 28.8106 27.9545 29.6364C27.0909 30.4545 26.0379 31.1061 24.7955 31.5909C23.5606 32.0758 22.1439 32.3182 20.5455 32.3182C18.4394 32.3182 16.553 31.8561 14.8864 30.9318C13.2273 30 11.9167 28.6439 10.9545 26.8636C9.99242 25.0833 9.51136 22.9167 9.51136 20.3636C9.51136 17.803 10 15.6326 10.9773 13.8523C11.9545 12.072 13.2765 10.7197 14.9432 9.79545C16.6098 8.87121 18.4773 8.40909 20.5455 8.40909C21.9545 8.40909 23.2576 8.60606 24.4545 9C25.6515 9.38636 26.7045 9.95454 27.6136 10.7045C28.5227 11.447 29.2614 12.3598 29.8295 13.4432C30.3977 14.5265 30.75 15.7652 30.8864 17.1591Z" fill="white"/>
<path d="M56.9052 32.2905C55.0643 32.2905 53.4847 31.9117 52.1665 31.1541C50.8559 30.3965 49.8484 29.3435 49.1438 27.995C48.4393 26.639 48.087 25.0708 48.087 23.2905C48.087 21.5026 48.4393 19.9344 49.1438 18.5859C49.8559 17.2299 50.8673 16.1731 52.1779 15.4155C53.4961 14.6579 55.0681 14.2791 56.8938 14.2791C58.5075 14.2791 59.9128 14.5708 61.1097 15.1541C62.3143 15.7375 63.2537 16.5632 63.9279 17.6314C64.6097 18.692 64.9696 19.9382 65.0075 21.37H59.8143C59.7082 20.4761 59.4052 19.7753 58.9052 19.2678C58.4128 18.7602 57.7688 18.5064 56.9734 18.5064C56.3294 18.5064 55.765 18.6882 55.2802 19.0518C54.7953 19.4079 54.4165 19.9382 54.1438 20.6428C53.8787 21.3397 53.7461 22.2034 53.7461 23.2337C53.7461 24.264 53.8787 25.1352 54.1438 25.8473C54.4165 26.5518 54.7953 27.0859 55.2802 27.4496C55.765 27.8056 56.3294 27.9837 56.9734 27.9837C57.4885 27.9837 57.9431 27.8738 58.337 27.6541C58.7385 27.4344 59.0681 27.1125 59.3256 26.6882C59.5832 26.2564 59.7461 25.7337 59.8143 25.12H65.0075C64.9544 26.5594 64.5946 27.817 63.9279 28.8928C63.2688 29.9685 62.3408 30.8056 61.1438 31.4041C59.9544 31.995 58.5415 32.2905 56.9052 32.2905ZM74.7189 32.2905C72.8856 32.2905 71.3098 31.9155 69.9917 31.1655C68.6811 30.4079 67.6697 29.3549 66.9576 28.0064C66.253 26.6503 65.9008 25.0784 65.9008 23.2905C65.9008 21.495 66.253 19.9231 66.9576 18.5746C67.6697 17.2185 68.6811 16.1655 69.9917 15.4155C71.3098 14.6579 72.8856 14.2791 74.7189 14.2791C76.5523 14.2791 78.1242 14.6579 79.4348 15.4155C80.753 16.1655 81.7644 17.2185 82.4689 18.5746C83.1811 19.9231 83.5371 21.495 83.5371 23.2905C83.5371 25.0784 83.1811 26.6503 82.4689 28.0064C81.7644 29.3549 80.753 30.4079 79.4348 31.1655C78.1242 31.9155 76.5523 32.2905 74.7189 32.2905ZM74.753 28.0973C75.4197 28.0973 75.9841 27.8928 76.4462 27.4837C76.9083 27.0746 77.2606 26.5064 77.503 25.7791C77.753 25.0518 77.878 24.2109 77.878 23.2564C77.878 22.2867 77.753 21.4382 77.503 20.7109C77.2606 19.9837 76.9083 19.4155 76.4462 19.0064C75.9841 18.5973 75.4197 18.3928 74.753 18.3928C74.0636 18.3928 73.4803 18.5973 73.003 19.0064C72.5333 19.4155 72.1735 19.9837 71.9235 20.7109C71.6811 21.4382 71.5598 22.2867 71.5598 23.2564C71.5598 24.2109 71.6811 25.0518 71.9235 25.7791C72.1735 26.5064 72.5333 27.0746 73.003 27.4837C73.4803 27.8928 74.0636 28.0973 74.753 28.0973ZM90.6605 8.68821V31.9609H85.1037V8.68821H90.6605ZM92.9175 31.9609V8.68821H98.4743V17.495H98.5879C98.8152 16.9647 99.1372 16.4534 99.5538 15.9609C99.9781 15.4685 100.516 15.067 101.167 14.7564C101.827 14.4382 102.614 14.2791 103.531 14.2791C104.743 14.2791 105.876 14.5973 106.929 15.2337C107.989 15.87 108.845 16.8511 109.497 18.1768C110.149 19.5026 110.474 21.192 110.474 23.245C110.474 25.2223 110.16 26.8776 109.531 28.2109C108.91 29.5443 108.069 30.5443 107.008 31.2109C105.955 31.8776 104.785 32.2109 103.497 32.2109C102.618 32.2109 101.857 32.067 101.213 31.7791C100.569 31.4912 100.027 31.1125 99.5879 30.6428C99.1561 30.1731 98.8228 29.6693 98.5879 29.1314H98.4175V31.9609H92.9175ZM98.3606 23.2337C98.3606 24.1731 98.4856 24.9912 98.7356 25.6882C98.9932 26.3852 99.3606 26.9268 99.8379 27.3132C100.323 27.692 100.902 27.8814 101.577 27.8814C102.258 27.8814 102.838 27.692 103.315 27.3132C103.792 26.9268 104.152 26.3852 104.395 25.6882C104.645 24.9912 104.77 24.1731 104.77 23.2337C104.77 22.2943 104.645 21.4799 104.395 20.7905C104.152 20.1011 103.792 19.567 103.315 19.1882C102.845 18.8094 102.266 18.62 101.577 18.62C100.895 18.62 100.315 18.8056 99.8379 19.1768C99.3606 19.5481 98.9932 20.0784 98.7356 20.7678C98.4856 21.4571 98.3606 22.2791 98.3606 23.2337ZM114.941 38.5064C114.275 38.5064 113.646 38.4534 113.055 38.3473C112.464 38.2488 111.957 38.1162 111.532 37.9496L112.76 33.9155C113.305 34.0973 113.797 34.2034 114.237 34.2337C114.684 34.264 115.066 34.192 115.385 34.0178C115.71 33.8511 115.96 33.5518 116.135 33.12L116.351 32.5973L110.146 14.5064H115.964L119.18 26.9609H119.362L122.623 14.5064H128.476L121.896 33.6314C121.578 34.5859 121.127 35.4268 120.544 36.1541C119.968 36.889 119.222 37.4647 118.305 37.8814C117.396 38.2981 116.275 38.5064 114.941 38.5064ZM131.357 32.2905C130.539 32.2905 129.839 32.0026 129.255 31.4268C128.679 30.8511 128.395 30.1541 128.403 29.3359C128.395 28.5329 128.679 27.8473 129.255 27.2791C129.839 26.7034 130.539 26.4155 131.357 26.4155C132.13 26.4155 132.812 26.7034 133.403 27.2791C134.001 27.8473 134.304 28.5329 134.312 29.3359C134.304 29.8814 134.16 30.3776 133.88 30.8246C133.607 31.2715 133.248 31.6276 132.801 31.8928C132.361 32.1579 131.88 32.2905 131.357 32.2905ZM136.702 31.9609V14.5064H142.259V31.9609H136.702ZM139.487 12.4723C138.706 12.4723 138.036 12.2147 137.475 11.6996C136.915 11.1768 136.634 10.5481 136.634 9.81321C136.634 9.08594 136.915 8.46472 137.475 7.94957C138.036 7.42685 138.706 7.16548 139.487 7.16548C140.274 7.16548 140.945 7.42685 141.498 7.94957C142.059 8.46472 142.339 9.08594 142.339 9.81321C142.339 10.5481 142.059 11.1768 141.498 11.6996C140.945 12.2147 140.274 12.4723 139.487 12.4723ZM152.664 32.2905C150.831 32.2905 149.255 31.9155 147.937 31.1655C146.626 30.4079 145.615 29.3549 144.903 28.0064C144.198 26.6503 143.846 25.0784 143.846 23.2905C143.846 21.495 144.198 19.9231 144.903 18.5746C145.615 17.2185 146.626 16.1655 147.937 15.4155C149.255 14.6579 150.831 14.2791 152.664 14.2791C154.497 14.2791 156.069 14.6579 157.38 15.4155C158.698 16.1655 159.709 17.2185 160.414 18.5746C161.126 19.9231 161.482 21.495 161.482 23.2905C161.482 25.0784 161.126 26.6503 160.414 28.0064C159.709 29.3549 158.698 30.4079 157.38 31.1655C156.069 31.9155 154.497 32.2905 152.664 32.2905ZM152.698 28.0973C153.365 28.0973 153.929 27.8928 154.391 27.4837C154.853 27.0746 155.206 26.5064 155.448 25.7791C155.698 25.0518 155.823 24.2109 155.823 23.2564C155.823 22.2867 155.698 21.4382 155.448 20.7109C155.206 19.9837 154.853 19.4155 154.391 19.0064C153.929 18.5973 153.365 18.3928 152.698 18.3928C152.009 18.3928 151.425 18.5973 150.948 19.0064C150.478 19.4155 150.118 19.9837 149.868 20.7109C149.626 21.4382 149.505 22.2867 149.505 23.2564C149.505 24.2109 149.626 25.0518 149.868 25.7791C150.118 26.5064 150.478 27.0746 150.948 27.4837C151.425 27.8928 152.009 28.0973 152.698 28.0973Z" fill="#303042"/>
</svg>
