<svg width="145" height="35" viewBox="0 0 145 35" fill="none" xmlns="http://www.w3.org/2000/svg">
<path d="M28.4821 0H6.90476C3.09137 0 0 3.05757 0 6.82927V28.1707C0 31.9424 3.09137 35 6.90476 35H28.4821C32.2955 35 35.3869 31.9424 35.3869 28.1707V6.82927C35.3869 3.05757 32.2955 0 28.4821 0Z" fill="#3080E3"/>
<path d="M26.6579 14.648H21.7539C21.6885 14.1501 21.5545 13.7005 21.3518 13.2996C21.1491 12.8986 20.881 12.5559 20.5475 12.2713C20.2141 11.9868 19.8185 11.7702 19.3608 11.6214C18.9096 11.4662 18.4094 11.3886 17.8602 11.3886C16.8859 11.3886 16.0457 11.6246 15.3395 12.0968C14.6399 12.5688 14.1005 13.2511 13.7212 14.1436C13.3485 15.036 13.1622 16.1161 13.1622 17.3836C13.1622 18.7029 13.3518 19.8087 13.7311 20.7012C14.1169 21.5872 14.6563 22.2566 15.3494 22.7093C16.049 23.1555 16.8761 23.3786 17.8308 23.3786C18.3669 23.3786 18.854 23.3107 19.2922 23.1749C19.7367 23.0391 20.1258 22.8419 20.4592 22.5831C20.7993 22.318 21.0772 21.9978 21.293 21.6228C21.5152 21.2413 21.6689 20.8112 21.7539 20.3326L26.6579 20.3617C26.5729 21.2413 26.3146 22.1078 25.883 22.9615C25.458 23.8151 24.8728 24.5944 24.1274 25.2994C23.382 25.9978 22.4732 26.554 21.4009 26.9678C20.335 27.3818 19.1123 27.5887 17.7327 27.5887C15.9149 27.5887 14.2868 27.1942 12.8484 26.4052C11.4164 25.6098 10.2852 24.4521 9.45477 22.9323C8.6244 21.4126 8.2092 19.563 8.2092 17.3836C8.2092 15.1977 8.63094 13.3449 9.47444 11.8251C10.3179 10.3054 11.4589 9.15097 12.8974 8.36198C14.3358 7.57299 15.9477 7.1785 17.7327 7.1785C18.9488 7.1785 20.0735 7.34664 21.1066 7.68293C22.1397 8.01275 23.0485 8.49778 23.8332 9.13799C24.6178 9.77184 25.2554 10.5511 25.7457 11.4759C26.2361 12.4007 26.5402 13.4581 26.6579 14.648Z" fill="white"/>
<path d="M53.4335 27.5983C51.8446 27.5983 50.4812 27.2751 49.3436 26.6283C48.2123 25.9816 47.3428 25.0827 46.7346 23.9315C46.1266 22.7739 45.8225 21.4352 45.8225 19.9154C45.8225 18.3892 46.1266 17.0505 46.7346 15.8994C47.3492 14.7417 48.2222 13.8396 49.3533 13.1929C50.4911 12.5462 51.8479 12.2228 53.4236 12.2228C54.8164 12.2228 56.0293 12.4718 57.0623 12.9698C58.102 13.4677 58.9128 14.1727 59.4947 15.0846C60.0832 15.99 60.3938 17.0538 60.4265 18.2761H55.9443C55.8527 17.513 55.5912 16.9147 55.1596 16.4814C54.7347 16.0481 54.1788 15.8315 53.4923 15.8315C52.9365 15.8315 52.4494 15.9867 52.0309 16.2971C51.6124 16.6011 51.2856 17.0538 51.0501 17.6552C50.8213 18.2502 50.7069 18.9874 50.7069 19.8669C50.7069 20.7465 50.8213 21.4902 51.0501 22.0981C51.2856 22.6995 51.6124 23.1555 52.0309 23.4659C52.4494 23.7699 52.9365 23.9218 53.4923 23.9218C53.9369 23.9218 54.3293 23.8281 54.6692 23.6405C55.0158 23.453 55.3002 23.1781 55.5225 22.816C55.7448 22.4474 55.8854 22.0011 55.9443 21.4773H60.4265C60.3807 22.706 60.0701 23.7796 59.4947 24.6979C58.9258 25.6162 58.1249 26.3308 57.0918 26.8417C56.0652 27.3462 54.8458 27.5983 53.4335 27.5983ZM68.8084 27.5983C67.2261 27.5983 65.866 27.2782 64.7283 26.638C63.5972 25.9913 62.7242 25.0923 62.1096 23.9413C61.5015 22.7836 61.1975 21.4417 61.1975 19.9154C61.1975 18.3828 61.5015 17.0408 62.1096 15.8896C62.7242 14.7321 63.5972 13.8331 64.7283 13.1929C65.866 12.5462 67.2261 12.2228 68.8084 12.2228C70.3908 12.2228 71.7475 12.5462 72.8786 13.1929C74.0164 13.8331 74.8893 14.7321 75.4974 15.8896C76.1121 17.0408 76.4193 18.3828 76.4193 19.9154C76.4193 21.4417 76.1121 22.7836 75.4974 23.9413C74.8893 25.0923 74.0164 25.9913 72.8786 26.638C71.7475 27.2782 70.3908 27.5983 68.8084 27.5983ZM68.8378 24.0189C69.4132 24.0189 69.9004 23.8442 70.2992 23.495C70.698 23.1457 71.0021 22.6608 71.2113 22.0399C71.4271 21.4191 71.535 20.7012 71.535 19.8864C71.535 19.0586 71.4271 18.3343 71.2113 17.7134C71.0021 17.0925 70.698 16.6075 70.2992 16.2583C69.9004 15.9091 69.4132 15.7345 68.8378 15.7345C68.2428 15.7345 67.7393 15.9091 67.3274 16.2583C66.922 16.6075 66.6115 17.0925 66.3957 17.7134C66.1865 18.3343 66.0818 19.0586 66.0818 19.8864C66.0818 20.7012 66.1865 21.4191 66.3957 22.0399C66.6115 22.6608 66.922 23.1457 67.3274 23.495C67.7393 23.8442 68.2428 24.0189 68.8378 24.0189ZM82.5675 7.4501V27.3171H77.7714V7.4501H82.5675ZM84.5155 27.3171V7.4501H89.3114V14.9681H89.4098C89.6057 14.5154 89.8836 14.0789 90.2435 13.6585C90.6095 13.2382 91.0738 12.8954 91.6357 12.6303C92.2045 12.3587 92.8846 12.2228 93.6761 12.2228C94.7221 12.2228 95.7 12.4945 96.6088 13.0377C97.5237 13.5809 98.2625 14.4185 98.8253 15.5501C99.3871 16.6819 99.6685 18.1241 99.6685 19.8767C99.6685 21.5646 99.3975 22.9777 98.8546 24.1158C98.3186 25.254 97.5928 26.1077 96.677 26.6768C95.7682 27.246 94.7584 27.5305 93.6467 27.5305C92.888 27.5305 92.2312 27.4076 91.6754 27.1619C91.1196 26.9161 90.6518 26.5927 90.2729 26.1918C89.9 25.7908 89.6126 25.3607 89.4098 24.9016H89.2622V27.3171H84.5155ZM89.2138 19.8669C89.2138 20.6689 89.3217 21.3673 89.5375 21.9623C89.7593 22.5572 90.0769 23.0197 90.4886 23.3495C90.9072 23.6729 91.407 23.8346 91.9887 23.8346C92.5773 23.8346 93.0779 23.6729 93.4896 23.3495C93.9013 23.0197 94.212 22.5572 94.4218 21.9623C94.6375 21.3673 94.7454 20.6689 94.7454 19.8669C94.7454 19.065 94.6375 18.3698 94.4218 17.7813C94.212 17.1928 93.9013 16.7369 93.4896 16.4135C93.084 16.0902 92.5842 15.9285 91.9887 15.9285C91.4009 15.9285 90.9003 16.0869 90.4886 16.4038C90.0769 16.7207 89.7593 17.1734 89.5375 17.7619C89.3217 18.3504 89.2138 19.0521 89.2138 19.8669ZM103.524 32.9047C102.949 32.9047 102.406 32.8594 101.896 32.7689C101.386 32.6848 100.948 32.5716 100.582 32.4293L101.642 28.9855C102.112 29.1408 102.537 29.2313 102.916 29.2572C103.302 29.283 103.632 29.2217 103.907 29.0729C104.188 28.9306 104.403 28.6751 104.554 28.3065L104.74 27.8603L99.3854 12.4169H104.407L107.183 23.0488H107.34L110.154 12.4169H115.205L109.527 28.7431C109.252 29.5579 108.863 30.2758 108.36 30.8966C107.863 31.5239 107.219 32.0154 106.427 32.3711C105.643 32.7268 104.675 32.9047 103.524 32.9047ZM117.693 27.5983C116.987 27.5983 116.382 27.3527 115.878 26.8611C115.381 26.3697 115.136 25.7747 115.143 25.0762C115.136 24.3907 115.381 23.8055 115.878 23.3204C116.382 22.8289 116.987 22.5831 117.693 22.5831C118.36 22.5831 118.948 22.8289 119.458 23.3204C119.975 23.8055 120.236 24.3907 120.243 25.0762C120.236 25.5419 120.112 25.9655 119.87 26.347C119.635 26.7285 119.325 27.0325 118.939 27.2588C118.559 27.4852 118.144 27.5983 117.693 27.5983ZM122.306 27.3171V12.4169H127.102V27.3171H122.306ZM124.709 10.6805C124.035 10.6805 123.457 10.4606 122.973 10.0207C122.489 9.57454 122.247 9.03776 122.247 8.41047C122.247 7.78962 122.489 7.25932 122.973 6.81956C123.457 6.37333 124.035 6.15021 124.709 6.15021C125.389 6.15021 125.968 6.37333 126.445 6.81956C126.929 7.25932 127.171 7.78962 127.171 8.41047C127.171 9.03776 126.929 9.57454 126.445 10.0207C125.968 10.4606 125.389 10.6805 124.709 10.6805ZM136.083 27.5983C134.5 27.5983 133.14 27.2782 132.003 26.638C130.871 25.9913 129.999 25.0923 129.383 23.9413C128.776 22.7836 128.472 21.4417 128.472 19.9154C128.472 18.3828 128.776 17.0408 129.383 15.8896C129.999 14.7321 130.871 13.8331 132.003 13.1929C133.14 12.5462 134.5 12.2228 136.083 12.2228C137.665 12.2228 139.021 12.5462 140.153 13.1929C141.29 13.8331 142.163 14.7321 142.771 15.8896C143.386 17.0408 143.693 18.3828 143.693 19.9154C143.693 21.4417 143.386 22.7836 142.771 23.9413C142.163 25.0923 141.29 25.9913 140.153 26.638C139.021 27.2782 137.665 27.5983 136.083 27.5983ZM136.112 24.0189C136.688 24.0189 137.174 23.8442 137.573 23.495C137.972 23.1457 138.276 22.6608 138.485 22.0399C138.701 21.4191 138.809 20.7012 138.809 19.8864C138.809 19.0586 138.701 18.3343 138.485 17.7134C138.276 17.0925 137.972 16.6075 137.573 16.2583C137.174 15.9091 136.688 15.7345 136.112 15.7345C135.517 15.7345 135.013 15.9091 134.601 16.2583C134.196 16.6075 133.885 17.0925 133.669 17.7134C133.46 18.3343 133.356 19.0586 133.356 19.8864C133.356 20.7012 133.46 21.4191 133.669 22.0399C133.885 22.6608 134.196 23.1457 134.601 23.495C135.013 23.8442 135.517 24.0189 136.112 24.0189Z" fill="#303042"/>
</svg>
