<svg width="41" height="41" viewBox="0 0 41 41" fill="none" xmlns="http://www.w3.org/2000/svg">
<rect width="41" height="41" rx="8" fill="#3080E3"/>
<path d="M30.8864 17.1591H25.2045C25.1288 16.5758 24.9735 16.0492 24.7386 15.5795C24.5038 15.1098 24.1932 14.7083 23.8068 14.375C23.4205 14.0417 22.9621 13.7879 22.4318 13.6136C21.9091 13.4318 21.3295 13.3409 20.6932 13.3409C19.5644 13.3409 18.5909 13.6174 17.7727 14.1705C16.9621 14.7235 16.3371 15.5227 15.8977 16.5682C15.4659 17.6136 15.25 18.8788 15.25 20.3636C15.25 21.9091 15.4697 23.2045 15.9091 24.25C16.3561 25.2879 16.9811 26.072 17.7841 26.6023C18.5947 27.125 19.553 27.3864 20.6591 27.3864C21.2803 27.3864 21.8447 27.3068 22.3523 27.1477C22.8674 26.9886 23.3182 26.7576 23.7045 26.4545C24.0985 26.1439 24.4205 25.7689 24.6705 25.3295C24.928 24.8826 25.1061 24.3788 25.2045 23.8182L30.8864 23.8523C30.7879 24.8826 30.4886 25.8977 29.9886 26.8977C29.4962 27.8977 28.8182 28.8106 27.9545 29.6364C27.0909 30.4545 26.0379 31.1061 24.7955 31.5909C23.5606 32.0758 22.1439 32.3182 20.5455 32.3182C18.4394 32.3182 16.553 31.8561 14.8864 30.9318C13.2273 30 11.9167 28.6439 10.9545 26.8636C9.99242 25.0833 9.51136 22.9167 9.51136 20.3636C9.51136 17.803 10 15.6326 10.9773 13.8523C11.9545 12.072 13.2765 10.7197 14.9432 9.79545C16.6098 8.87121 18.4773 8.40909 20.5455 8.40909C21.9545 8.40909 23.2576 8.60606 24.4545 9C25.6515 9.38636 26.7045 9.95454 27.6136 10.7045C28.5227 11.447 29.2614 12.3598 29.8295 13.4432C30.3977 14.5265 30.75 15.7652 30.8864 17.1591Z" fill="white"/>
</svg>
